<svg width="24" height="16" viewBox="0 0 24 16" fill="none" xmlns="http://www.w3.org/2000/svg">
<path d="M10.7565 15.3476C11.0647 16.2472 12.4317 16.2058 12.6778 15.2895L15.6585 4.19163L17.557 9.25443C17.6981 9.63072 18.076 9.88236 18.5 9.88236H23C23.5523 9.88236 24 9.46098 24 8.94118C24 8.42139 23.5523 8.00001 23 8.00001H19.2075L16.443 0.627979C16.1135 -0.250648 14.7731 -0.192767 14.5305 0.710565L11.5918 11.6521L8.95174 3.94648C8.66435 3.10766 7.41931 3.06746 7.07152 3.88578L5.32297 8.00001H1C0.447715 8.00001 0 8.42139 0 8.94118C0 9.46098 0.447715 9.88236 1 9.88236H6C6.4089 9.88236 6.77661 9.64805 6.92848 9.29073L7.89898 7.0072L10.7565 15.3476Z" fill="white"/>
</svg>
