<svg width="24" height="24" viewBox="0 0 24 24" fill="none" xmlns="http://www.w3.org/2000/svg">
<path d="M16.2891 7.12751L8.57963 14.2695C8.44944 14.3859 8.3456 14.5252 8.27416 14.6793C8.20273 14.8333 8.16512 14.999 8.16355 15.1666C8.16198 15.3342 8.19647 15.5005 8.265 15.6556C8.33354 15.8108 8.43475 15.9518 8.56273 16.0703C8.69071 16.1888 8.8429 16.2826 9.01042 16.3461C9.17794 16.4095 9.35742 16.4415 9.53841 16.44C9.7194 16.4386 9.89826 16.4037 10.0646 16.3376C10.2309 16.2714 10.3813 16.1752 10.507 16.0546L18.2179 8.91395C18.9848 8.2036 19.4157 7.24015 19.4157 6.23556C19.4157 5.23097 18.9848 4.26752 18.2179 3.55717C17.4509 2.84681 16.4107 2.44774 15.3261 2.44774C14.2415 2.44774 13.2013 2.84681 12.4344 3.55717L4.72351 10.6991C4.07752 11.2826 3.56304 11.979 3.20991 12.748C2.85677 13.5171 2.67202 14.3434 2.66637 15.1791C2.66072 16.0148 2.83427 16.8432 3.17697 17.6162C3.51967 18.3893 4.02469 19.0917 4.66274 19.6825C5.30079 20.2734 6.05916 20.7411 6.89386 21.0584C7.72856 21.3757 8.62298 21.5363 9.52524 21.531C10.4275 21.5256 11.3196 21.3544 12.1499 21.0272C12.9801 20.7 13.7319 20.2234 14.3618 19.625L22.0726 12.4843L24 14.2695L16.2891 21.4114C15.4031 22.2321 14.3512 22.8831 13.1935 23.3273C12.0358 23.7714 10.795 24 9.54195 24C8.28889 24 7.04809 23.7714 5.8904 23.3273C4.73272 22.8831 3.68083 22.2321 2.79477 21.4114C1.90872 20.5907 1.20587 19.6165 0.726338 18.5442C0.24681 17.4719 -9.33608e-09 16.3227 0 15.1621C9.33608e-09 14.0014 0.24681 12.8522 0.726338 11.7799C1.20587 10.7077 1.90872 9.73337 2.79477 8.91269L10.507 1.77199C11.7924 0.62212 13.514 -0.0141439 15.3009 0.000238629C17.0879 0.0146211 18.7972 0.6785 20.0609 1.84889C21.3245 3.01928 22.0412 4.60253 22.0568 6.25764C22.0723 7.91276 21.3854 9.50731 20.1439 10.6979L12.4344 17.8423C12.0545 18.1941 11.6036 18.4731 11.1074 18.6634C10.6111 18.8537 10.0793 18.9516 9.54215 18.9516C9.00504 18.9515 8.4732 18.8535 7.977 18.663C7.4808 18.4726 7.02996 18.1935 6.65021 17.8417C6.27046 17.4899 5.96924 17.0722 5.76376 16.6126C5.55827 16.153 5.45254 15.6604 5.45261 15.1629C5.45267 14.6654 5.55852 14.1728 5.76413 13.7132C5.96973 13.2536 6.27105 12.836 6.65089 12.4843L14.3618 5.34234L16.2891 7.12751Z" fill="white"/>
</svg>
