<svg width="24" height="24" viewBox="0 0 24 24" fill="none" xmlns="http://www.w3.org/2000/svg">
<path d="M23.9815 9.6103C24.1014 8.98143 23.6218 8.22679 23.0222 8.22679L16.1875 7.2206L13.0699 0.680377C12.95 0.42883 12.8301 0.303056 12.5903 0.177283C11.9908 -0.200038 11.2713 0.0515094 10.9116 0.680377L7.9139 7.2206L1.07917 8.22679C0.719445 8.22679 0.47963 8.35257 0.359723 8.60411C-0.119908 9.10721 -0.119908 9.86185 0.359723 10.3649L5.27593 15.3959L4.07686 22.565C4.07686 22.8165 4.07686 23.0681 4.19676 23.3196C4.55649 23.9485 5.27593 24.2 5.87547 23.8227L11.9908 20.4268L18.106 23.8227C18.2259 23.9485 18.4658 23.9485 18.7056 23.9485H18.9454C19.5449 23.8227 20.0246 23.1938 19.9046 22.4392L18.7056 15.2701L23.6218 10.2392C23.8616 10.1134 23.9815 9.86185 23.9815 9.6103Z" fill="#C2A6F1"/>
<path d="M23.9815 9.6103C24.1014 8.98143 23.6218 8.22679 23.0222 8.22679L16.1875 7.2206L13.0699 0.680377C12.95 0.42883 12.8301 0.303056 12.5903 0.177283C11.9908 -0.200038 11.2713 0.0515094 10.9116 0.680377L7.9139 7.2206L1.07917 8.22679C0.719445 8.22679 0.47963 8.35257 0.359723 8.60411C-0.119908 9.10721 -0.119908 9.86185 0.359723 10.3649L5.27593 15.3959L4.07686 22.565C4.07686 22.8165 4.07686 23.0681 4.19676 23.3196C4.55649 23.9485 5.27593 24.2 5.87547 23.8227L11.9908 20.4268L18.106 23.8227C18.2259 23.9485 18.4658 23.9485 18.7056 23.9485H18.9454C19.5449 23.8227 20.0246 23.1938 19.9046 22.4392L18.7056 15.2701L23.6218 10.2392C23.8616 10.1134 23.9815 9.86185 23.9815 9.6103Z" fill="url(#paint0_radial)"/>
<path d="M23.9815 9.6103C24.1014 8.98143 23.6218 8.22679 23.0222 8.22679L16.1875 7.2206L13.0699 0.680377C12.95 0.42883 12.8301 0.303056 12.5903 0.177283C11.9908 -0.200038 11.2713 0.0515094 10.9116 0.680377L7.9139 7.2206L1.07917 8.22679C0.719445 8.22679 0.47963 8.35257 0.359723 8.60411C-0.119908 9.10721 -0.119908 9.86185 0.359723 10.3649L5.27593 15.3959L4.07686 22.565C4.07686 22.8165 4.07686 23.0681 4.19676 23.3196C4.55649 23.9485 5.27593 24.2 5.87547 23.8227L11.9908 20.4268L18.106 23.8227C18.2259 23.9485 18.4658 23.9485 18.7056 23.9485H18.9454C19.5449 23.8227 20.0246 23.1938 19.9046 22.4392L18.7056 15.2701L23.6218 10.2392C23.8616 10.1134 23.9815 9.86185 23.9815 9.6103Z" fill="url(#paint1_linear)"/>
<path d="M23.9815 9.6103C24.1014 8.98143 23.6218 8.22679 23.0222 8.22679L16.1875 7.2206L13.0699 0.680377C12.95 0.42883 12.8301 0.303056 12.5903 0.177283C11.9908 -0.200038 11.2713 0.0515094 10.9116 0.680377L7.9139 7.2206L1.07917 8.22679C0.719445 8.22679 0.47963 8.35257 0.359723 8.60411C-0.119908 9.10721 -0.119908 9.86185 0.359723 10.3649L5.27593 15.3959L4.07686 22.565C4.07686 22.8165 4.07686 23.0681 4.19676 23.3196C4.55649 23.9485 5.27593 24.2 5.87547 23.8227L11.9908 20.4268L18.106 23.8227C18.2259 23.9485 18.4658 23.9485 18.7056 23.9485H18.9454C19.5449 23.8227 20.0246 23.1938 19.9046 22.4392L18.7056 15.2701L23.6218 10.2392C23.8616 10.1134 23.9815 9.86185 23.9815 9.6103Z" fill="url(#paint2_linear)"/>
<path d="M23.9815 9.6103C24.1014 8.98143 23.6218 8.22679 23.0222 8.22679L16.1875 7.2206L13.0699 0.680377C12.95 0.42883 12.8301 0.303056 12.5903 0.177283C11.9908 -0.200038 11.2713 0.0515094 10.9116 0.680377L7.9139 7.2206L1.07917 8.22679C0.719445 8.22679 0.47963 8.35257 0.359723 8.60411C-0.119908 9.10721 -0.119908 9.86185 0.359723 10.3649L5.27593 15.3959L4.07686 22.565C4.07686 22.8165 4.07686 23.0681 4.19676 23.3196C4.55649 23.9485 5.27593 24.2 5.87547 23.8227L11.9908 20.4268L18.106 23.8227C18.2259 23.9485 18.4658 23.9485 18.7056 23.9485H18.9454C19.5449 23.8227 20.0246 23.1938 19.9046 22.4392L18.7056 15.2701L23.6218 10.2392C23.8616 10.1134 23.9815 9.86185 23.9815 9.6103Z" fill="url(#paint3_linear)"/>
<path d="M23.9815 9.6103C24.1014 8.98143 23.6218 8.22679 23.0222 8.22679L16.1875 7.2206L13.0699 0.680377C12.95 0.42883 12.8301 0.303056 12.5903 0.177283C11.9908 -0.200038 11.2713 0.0515094 10.9116 0.680377L7.9139 7.2206L1.07917 8.22679C0.719445 8.22679 0.47963 8.35257 0.359723 8.60411C-0.119908 9.10721 -0.119908 9.86185 0.359723 10.3649L5.27593 15.3959L4.07686 22.565C4.07686 22.8165 4.07686 23.0681 4.19676 23.3196C4.55649 23.9485 5.27593 24.2 5.87547 23.8227L11.9908 20.4268L18.106 23.8227C18.2259 23.9485 18.4658 23.9485 18.7056 23.9485H18.9454C19.5449 23.8227 20.0246 23.1938 19.9046 22.4392L18.7056 15.2701L23.6218 10.2392C23.8616 10.1134 23.9815 9.86185 23.9815 9.6103Z" fill="url(#paint4_radial)"/>
<path d="M23.9815 9.6103C24.1014 8.98143 23.6218 8.22679 23.0222 8.22679L16.1875 7.2206L13.0699 0.680377C12.95 0.42883 12.8301 0.303056 12.5903 0.177283C11.9908 -0.200038 11.2713 0.0515094 10.9116 0.680377L7.9139 7.2206L1.07917 8.22679C0.719445 8.22679 0.47963 8.35257 0.359723 8.60411C-0.119908 9.10721 -0.119908 9.86185 0.359723 10.3649L5.27593 15.3959L4.07686 22.565C4.07686 22.8165 4.07686 23.0681 4.19676 23.3196C4.55649 23.9485 5.27593 24.2 5.87547 23.8227L11.9908 20.4268L18.106 23.8227C18.2259 23.9485 18.4658 23.9485 18.7056 23.9485H18.9454C19.5449 23.8227 20.0246 23.1938 19.9046 22.4392L18.7056 15.2701L23.6218 10.2392C23.8616 10.1134 23.9815 9.86185 23.9815 9.6103Z" fill="url(#paint5_radial)"/>
<path d="M23.9815 9.6103C24.1014 8.98143 23.6218 8.22679 23.0222 8.22679L16.1875 7.2206L13.0699 0.680377C12.95 0.42883 12.8301 0.303056 12.5903 0.177283C11.9908 -0.200038 11.2713 0.0515094 10.9116 0.680377L7.9139 7.2206L1.07917 8.22679C0.719445 8.22679 0.47963 8.35257 0.359723 8.60411C-0.119908 9.10721 -0.119908 9.86185 0.359723 10.3649L5.27593 15.3959L4.07686 22.565C4.07686 22.8165 4.07686 23.0681 4.19676 23.3196C4.55649 23.9485 5.27593 24.2 5.87547 23.8227L11.9908 20.4268L18.106 23.8227C18.2259 23.9485 18.4658 23.9485 18.7056 23.9485H18.9454C19.5449 23.8227 20.0246 23.1938 19.9046 22.4392L18.7056 15.2701L23.6218 10.2392C23.8616 10.1134 23.9815 9.86185 23.9815 9.6103Z" fill="url(#paint6_radial)"/>
<path d="M23.9815 9.6103C24.1014 8.98143 23.6218 8.22679 23.0222 8.22679L16.1875 7.2206L13.0699 0.680377C12.95 0.42883 12.8301 0.303056 12.5903 0.177283C11.9908 -0.200038 11.2713 0.0515094 10.9116 0.680377L7.9139 7.2206L1.07917 8.22679C0.719445 8.22679 0.47963 8.35257 0.359723 8.60411C-0.119908 9.10721 -0.119908 9.86185 0.359723 10.3649L5.27593 15.3959L4.07686 22.565C4.07686 22.8165 4.07686 23.0681 4.19676 23.3196C4.55649 23.9485 5.27593 24.2 5.87547 23.8227L11.9908 20.4268L18.106 23.8227C18.2259 23.9485 18.4658 23.9485 18.7056 23.9485H18.9454C19.5449 23.8227 20.0246 23.1938 19.9046 22.4392L18.7056 15.2701L23.6218 10.2392C23.8616 10.1134 23.9815 9.86185 23.9815 9.6103Z" fill="url(#paint7_linear)"/>
<defs>
<radialGradient id="paint0_radial" cx="0" cy="0" r="1" gradientUnits="userSpaceOnUse" gradientTransform="translate(21.78 9.63603) rotate(105.702) scale(24.2756 11.0914)">
<stop stop-color="#FFFDB1"/>
<stop offset="0.344597" stop-color="#FEE4BF"/>
<stop offset="0.695017" stop-color="#F0BDD0"/>
<stop offset="1" stop-color="#FF8126" stop-opacity="0"/>
</radialGradient>
<linearGradient id="paint1_linear" x1="13.635" y1="-1.62101" x2="19.342" y2="2.92392" gradientUnits="userSpaceOnUse">
<stop stop-color="#C0A9F0" stop-opacity="0"/>
<stop offset="0.456382" stop-color="#C0A9F0"/>
<stop offset="1" stop-color="#C0A9F0" stop-opacity="0"/>
</linearGradient>
<linearGradient id="paint2_linear" x1="25.71" y1="-5.62852" x2="19.0285" y2="3.41939" gradientUnits="userSpaceOnUse">
<stop stop-color="#C0A9F0" stop-opacity="0"/>
<stop offset="0.461891" stop-color="#C0A9F0"/>
<stop offset="1" stop-color="#C0A9F0" stop-opacity="0"/>
</linearGradient>
<linearGradient id="paint3_linear" x1="6.105" y1="3.78236" x2="12.6801" y2="10.2644" gradientUnits="userSpaceOnUse">
<stop stop-color="#CDF9E8"/>
<stop offset="1" stop-color="#CDF9E8" stop-opacity="0"/>
</linearGradient>
<radialGradient id="paint4_radial" cx="0" cy="0" r="1" gradientUnits="userSpaceOnUse" gradientTransform="translate(10.935 10.7167) rotate(-117.358) scale(7.37669 14.5765)">
<stop stop-color="#CBADEB"/>
<stop offset="1" stop-color="#C2A6F1" stop-opacity="0"/>
</radialGradient>
<radialGradient id="paint5_radial" cx="0" cy="0" r="1" gradientUnits="userSpaceOnUse" gradientTransform="translate(8.61 24) rotate(-125.099) scale(10.5393 14.0354)">
<stop stop-color="#DC8DDC"/>
<stop offset="1" stop-color="#DC8DDC" stop-opacity="0"/>
</radialGradient>
<radialGradient id="paint6_radial" cx="0" cy="0" r="1" gradientUnits="userSpaceOnUse" gradientTransform="translate(10.62 20.8705) rotate(-136.482) scale(9.1222 17.2881)">
<stop stop-color="#DC8DDC"/>
<stop offset="1" stop-color="#DC8DDC" stop-opacity="0"/>
</radialGradient>
<linearGradient id="paint7_linear" x1="0" y1="0" x2="5.10793" y2="3.36183" gradientUnits="userSpaceOnUse">
<stop stop-color="#EBF3D0"/>
<stop offset="1" stop-color="#EBF3D0" stop-opacity="0"/>
</linearGradient>
</defs>
</svg>
