<svg width="24" height="24" viewBox="0 0 24 24" fill="none" xmlns="http://www.w3.org/2000/svg">
<path d="M22.9992 9.42301L22.9939 9.45091L22.9066 9.54027L17.9904 14.5712L17.6355 14.9343L17.7193 15.4351L18.9175 22.5992C18.9472 22.7933 18.8555 22.9044 18.7871 22.9485H18.7869H18.7865H18.7861H18.7857H18.7853H18.7849H18.7845H18.784H18.7836H18.7832H18.7828H18.7824H18.7819H18.7815H18.7811H18.7807H18.7802H18.7798H18.7794H18.7789H18.7785H18.7781H18.7776H18.7772H18.7768H18.7763H18.7759H18.7754H18.775H18.7746H18.7741H18.7737H18.7732H18.7728H18.7723H18.7719H18.7714H18.7709H18.7705H18.77H18.7696H18.7691H18.7686H18.7682H18.7677H18.7672H18.7668H18.7663H18.7658H18.7653H18.7649H18.7644H18.7639H18.7634H18.7629H18.7624H18.762H18.7615H18.761H18.7605H18.76H18.7595H18.759H18.7585H18.758H18.7575H18.757H18.7565H18.756H18.7555H18.7549H18.7544H18.7539H18.7534H18.7529H18.7524H18.7518H18.7513H18.7508H18.7502H18.7497H18.7492H18.7486H18.7481H18.7476H18.747H18.7465H18.7459H18.7454H18.7448H18.7443H18.7437H18.7432H18.7426H18.7421H18.7415H18.7409H18.7404H18.7398H18.7392H18.7386H18.7381H18.7375H18.7369H18.7363H18.7358H18.7352H18.7346H18.734H18.7334H18.7328H18.7322H18.7316H18.731H18.7304H18.7298H18.7292H18.7286H18.7279H18.7273H18.7267H18.7261H18.7255H18.7248H18.7242H18.7236H18.7229H18.7223H18.7217H18.721H18.7204H18.7197H18.7191H18.7184H18.7178H18.7171H18.7165H18.7158H18.7151H18.7145H18.7138H18.7131H18.7125H18.7118H18.7111H18.7104H18.7097H18.7091H18.7084H18.7077H18.707H18.7063H18.7056C18.6578 22.9485 18.6217 22.9484 18.5904 22.9478L12.4762 19.5526L11.9908 19.283L11.5053 19.5526L5.38999 22.9485L5.36602 22.9618L5.34282 22.9764C5.31368 22.9947 5.29533 22.9984 5.28692 22.9994C5.27762 23.0006 5.26477 23.0004 5.24635 22.9946C5.21371 22.9843 5.15135 22.9508 5.09176 22.8657C5.08947 22.8559 5.08702 22.8425 5.08482 22.824C5.07955 22.7797 5.07766 22.7299 5.07708 22.6467L6.26223 15.5609L6.34598 15.0601L5.99115 14.697L1.08057 9.67181C1.01942 9.60624 1 9.53975 1 9.48453C1 9.42843 1.02004 9.36071 1.08351 9.29414L1.14771 9.22679H1.15238L1.22482 9.21613L8.05954 8.20994L8.59672 8.13086L8.82296 7.63727L11.7973 1.148C11.8596 1.05281 11.9268 1.0162 11.9612 1.0054C11.9796 0.999601 11.9924 0.999407 12.0017 1.00057C12.0101 1.00162 12.0285 1.00528 12.0576 1.02362L12.091 1.04459L12.1258 1.06288C12.1357 1.06805 12.1436 1.0724 12.1498 1.07595C12.1542 1.08428 12.1601 1.09563 12.1672 1.11067L15.2848 7.6509L15.5143 8.13227L16.0419 8.20994L22.8766 9.21613L22.9296 9.22394C22.9335 9.2288 22.9376 9.23447 22.942 9.24103C22.9651 9.27534 22.9835 9.31725 22.9931 9.35796C23.0027 9.39879 22.9996 9.42103 22.9992 9.42301Z" stroke="#C2A6F1" stroke-width="2"/>
<path d="M22.9992 9.42301L22.9939 9.45091L22.9066 9.54027L17.9904 14.5712L17.6355 14.9343L17.7193 15.4351L18.9175 22.5992C18.9472 22.7933 18.8555 22.9044 18.7871 22.9485H18.7869H18.7865H18.7861H18.7857H18.7853H18.7849H18.7845H18.784H18.7836H18.7832H18.7828H18.7824H18.7819H18.7815H18.7811H18.7807H18.7802H18.7798H18.7794H18.7789H18.7785H18.7781H18.7776H18.7772H18.7768H18.7763H18.7759H18.7754H18.775H18.7746H18.7741H18.7737H18.7732H18.7728H18.7723H18.7719H18.7714H18.7709H18.7705H18.77H18.7696H18.7691H18.7686H18.7682H18.7677H18.7672H18.7668H18.7663H18.7658H18.7653H18.7649H18.7644H18.7639H18.7634H18.7629H18.7624H18.762H18.7615H18.761H18.7605H18.76H18.7595H18.759H18.7585H18.758H18.7575H18.757H18.7565H18.756H18.7555H18.7549H18.7544H18.7539H18.7534H18.7529H18.7524H18.7518H18.7513H18.7508H18.7502H18.7497H18.7492H18.7486H18.7481H18.7476H18.747H18.7465H18.7459H18.7454H18.7448H18.7443H18.7437H18.7432H18.7426H18.7421H18.7415H18.7409H18.7404H18.7398H18.7392H18.7386H18.7381H18.7375H18.7369H18.7363H18.7358H18.7352H18.7346H18.734H18.7334H18.7328H18.7322H18.7316H18.731H18.7304H18.7298H18.7292H18.7286H18.7279H18.7273H18.7267H18.7261H18.7255H18.7248H18.7242H18.7236H18.7229H18.7223H18.7217H18.721H18.7204H18.7197H18.7191H18.7184H18.7178H18.7171H18.7165H18.7158H18.7151H18.7145H18.7138H18.7131H18.7125H18.7118H18.7111H18.7104H18.7097H18.7091H18.7084H18.7077H18.707H18.7063H18.7056C18.6578 22.9485 18.6217 22.9484 18.5904 22.9478L12.4762 19.5526L11.9908 19.283L11.5053 19.5526L5.38999 22.9485L5.36602 22.9618L5.34282 22.9764C5.31368 22.9947 5.29533 22.9984 5.28692 22.9994C5.27762 23.0006 5.26477 23.0004 5.24635 22.9946C5.21371 22.9843 5.15135 22.9508 5.09176 22.8657C5.08947 22.8559 5.08702 22.8425 5.08482 22.824C5.07955 22.7797 5.07766 22.7299 5.07708 22.6467L6.26223 15.5609L6.34598 15.0601L5.99115 14.697L1.08057 9.67181C1.01942 9.60624 1 9.53975 1 9.48453C1 9.42843 1.02004 9.36071 1.08351 9.29414L1.14771 9.22679H1.15238L1.22482 9.21613L8.05954 8.20994L8.59672 8.13086L8.82296 7.63727L11.7973 1.148C11.8596 1.05281 11.9268 1.0162 11.9612 1.0054C11.9796 0.999601 11.9924 0.999407 12.0017 1.00057C12.0101 1.00162 12.0285 1.00528 12.0576 1.02362L12.091 1.04459L12.1258 1.06288C12.1357 1.06805 12.1436 1.0724 12.1498 1.07595C12.1542 1.08428 12.1601 1.09563 12.1672 1.11067L15.2848 7.6509L15.5143 8.13227L16.0419 8.20994L22.8766 9.21613L22.9296 9.22394C22.9335 9.2288 22.9376 9.23447 22.942 9.24103C22.9651 9.27534 22.9835 9.31725 22.9931 9.35796C23.0027 9.39879 22.9996 9.42103 22.9992 9.42301Z" stroke="url(#paint0_radial)" stroke-width="2"/>
<path d="M22.9992 9.42301L22.9939 9.45091L22.9066 9.54027L17.9904 14.5712L17.6355 14.9343L17.7193 15.4351L18.9175 22.5992C18.9472 22.7933 18.8555 22.9044 18.7871 22.9485H18.7869H18.7865H18.7861H18.7857H18.7853H18.7849H18.7845H18.784H18.7836H18.7832H18.7828H18.7824H18.7819H18.7815H18.7811H18.7807H18.7802H18.7798H18.7794H18.7789H18.7785H18.7781H18.7776H18.7772H18.7768H18.7763H18.7759H18.7754H18.775H18.7746H18.7741H18.7737H18.7732H18.7728H18.7723H18.7719H18.7714H18.7709H18.7705H18.77H18.7696H18.7691H18.7686H18.7682H18.7677H18.7672H18.7668H18.7663H18.7658H18.7653H18.7649H18.7644H18.7639H18.7634H18.7629H18.7624H18.762H18.7615H18.761H18.7605H18.76H18.7595H18.759H18.7585H18.758H18.7575H18.757H18.7565H18.756H18.7555H18.7549H18.7544H18.7539H18.7534H18.7529H18.7524H18.7518H18.7513H18.7508H18.7502H18.7497H18.7492H18.7486H18.7481H18.7476H18.747H18.7465H18.7459H18.7454H18.7448H18.7443H18.7437H18.7432H18.7426H18.7421H18.7415H18.7409H18.7404H18.7398H18.7392H18.7386H18.7381H18.7375H18.7369H18.7363H18.7358H18.7352H18.7346H18.734H18.7334H18.7328H18.7322H18.7316H18.731H18.7304H18.7298H18.7292H18.7286H18.7279H18.7273H18.7267H18.7261H18.7255H18.7248H18.7242H18.7236H18.7229H18.7223H18.7217H18.721H18.7204H18.7197H18.7191H18.7184H18.7178H18.7171H18.7165H18.7158H18.7151H18.7145H18.7138H18.7131H18.7125H18.7118H18.7111H18.7104H18.7097H18.7091H18.7084H18.7077H18.707H18.7063H18.7056C18.6578 22.9485 18.6217 22.9484 18.5904 22.9478L12.4762 19.5526L11.9908 19.283L11.5053 19.5526L5.38999 22.9485L5.36602 22.9618L5.34282 22.9764C5.31368 22.9947 5.29533 22.9984 5.28692 22.9994C5.27762 23.0006 5.26477 23.0004 5.24635 22.9946C5.21371 22.9843 5.15135 22.9508 5.09176 22.8657C5.08947 22.8559 5.08702 22.8425 5.08482 22.824C5.07955 22.7797 5.07766 22.7299 5.07708 22.6467L6.26223 15.5609L6.34598 15.0601L5.99115 14.697L1.08057 9.67181C1.01942 9.60624 1 9.53975 1 9.48453C1 9.42843 1.02004 9.36071 1.08351 9.29414L1.14771 9.22679H1.15238L1.22482 9.21613L8.05954 8.20994L8.59672 8.13086L8.82296 7.63727L11.7973 1.148C11.8596 1.05281 11.9268 1.0162 11.9612 1.0054C11.9796 0.999601 11.9924 0.999407 12.0017 1.00057C12.0101 1.00162 12.0285 1.00528 12.0576 1.02362L12.091 1.04459L12.1258 1.06288C12.1357 1.06805 12.1436 1.0724 12.1498 1.07595C12.1542 1.08428 12.1601 1.09563 12.1672 1.11067L15.2848 7.6509L15.5143 8.13227L16.0419 8.20994L22.8766 9.21613L22.9296 9.22394C22.9335 9.2288 22.9376 9.23447 22.942 9.24103C22.9651 9.27534 22.9835 9.31725 22.9931 9.35796C23.0027 9.39879 22.9996 9.42103 22.9992 9.42301Z" stroke="url(#paint1_linear)" stroke-width="2"/>
<path d="M22.9992 9.42301L22.9939 9.45091L22.9066 9.54027L17.9904 14.5712L17.6355 14.9343L17.7193 15.4351L18.9175 22.5992C18.9472 22.7933 18.8555 22.9044 18.7871 22.9485H18.7869H18.7865H18.7861H18.7857H18.7853H18.7849H18.7845H18.784H18.7836H18.7832H18.7828H18.7824H18.7819H18.7815H18.7811H18.7807H18.7802H18.7798H18.7794H18.7789H18.7785H18.7781H18.7776H18.7772H18.7768H18.7763H18.7759H18.7754H18.775H18.7746H18.7741H18.7737H18.7732H18.7728H18.7723H18.7719H18.7714H18.7709H18.7705H18.77H18.7696H18.7691H18.7686H18.7682H18.7677H18.7672H18.7668H18.7663H18.7658H18.7653H18.7649H18.7644H18.7639H18.7634H18.7629H18.7624H18.762H18.7615H18.761H18.7605H18.76H18.7595H18.759H18.7585H18.758H18.7575H18.757H18.7565H18.756H18.7555H18.7549H18.7544H18.7539H18.7534H18.7529H18.7524H18.7518H18.7513H18.7508H18.7502H18.7497H18.7492H18.7486H18.7481H18.7476H18.747H18.7465H18.7459H18.7454H18.7448H18.7443H18.7437H18.7432H18.7426H18.7421H18.7415H18.7409H18.7404H18.7398H18.7392H18.7386H18.7381H18.7375H18.7369H18.7363H18.7358H18.7352H18.7346H18.734H18.7334H18.7328H18.7322H18.7316H18.731H18.7304H18.7298H18.7292H18.7286H18.7279H18.7273H18.7267H18.7261H18.7255H18.7248H18.7242H18.7236H18.7229H18.7223H18.7217H18.721H18.7204H18.7197H18.7191H18.7184H18.7178H18.7171H18.7165H18.7158H18.7151H18.7145H18.7138H18.7131H18.7125H18.7118H18.7111H18.7104H18.7097H18.7091H18.7084H18.7077H18.707H18.7063H18.7056C18.6578 22.9485 18.6217 22.9484 18.5904 22.9478L12.4762 19.5526L11.9908 19.283L11.5053 19.5526L5.38999 22.9485L5.36602 22.9618L5.34282 22.9764C5.31368 22.9947 5.29533 22.9984 5.28692 22.9994C5.27762 23.0006 5.26477 23.0004 5.24635 22.9946C5.21371 22.9843 5.15135 22.9508 5.09176 22.8657C5.08947 22.8559 5.08702 22.8425 5.08482 22.824C5.07955 22.7797 5.07766 22.7299 5.07708 22.6467L6.26223 15.5609L6.34598 15.0601L5.99115 14.697L1.08057 9.67181C1.01942 9.60624 1 9.53975 1 9.48453C1 9.42843 1.02004 9.36071 1.08351 9.29414L1.14771 9.22679H1.15238L1.22482 9.21613L8.05954 8.20994L8.59672 8.13086L8.82296 7.63727L11.7973 1.148C11.8596 1.05281 11.9268 1.0162 11.9612 1.0054C11.9796 0.999601 11.9924 0.999407 12.0017 1.00057C12.0101 1.00162 12.0285 1.00528 12.0576 1.02362L12.091 1.04459L12.1258 1.06288C12.1357 1.06805 12.1436 1.0724 12.1498 1.07595C12.1542 1.08428 12.1601 1.09563 12.1672 1.11067L15.2848 7.6509L15.5143 8.13227L16.0419 8.20994L22.8766 9.21613L22.9296 9.22394C22.9335 9.2288 22.9376 9.23447 22.942 9.24103C22.9651 9.27534 22.9835 9.31725 22.9931 9.35796C23.0027 9.39879 22.9996 9.42103 22.9992 9.42301Z" stroke="url(#paint2_linear)" stroke-width="2"/>
<path d="M22.9992 9.42301L22.9939 9.45091L22.9066 9.54027L17.9904 14.5712L17.6355 14.9343L17.7193 15.4351L18.9175 22.5992C18.9472 22.7933 18.8555 22.9044 18.7871 22.9485H18.7869H18.7865H18.7861H18.7857H18.7853H18.7849H18.7845H18.784H18.7836H18.7832H18.7828H18.7824H18.7819H18.7815H18.7811H18.7807H18.7802H18.7798H18.7794H18.7789H18.7785H18.7781H18.7776H18.7772H18.7768H18.7763H18.7759H18.7754H18.775H18.7746H18.7741H18.7737H18.7732H18.7728H18.7723H18.7719H18.7714H18.7709H18.7705H18.77H18.7696H18.7691H18.7686H18.7682H18.7677H18.7672H18.7668H18.7663H18.7658H18.7653H18.7649H18.7644H18.7639H18.7634H18.7629H18.7624H18.762H18.7615H18.761H18.7605H18.76H18.7595H18.759H18.7585H18.758H18.7575H18.757H18.7565H18.756H18.7555H18.7549H18.7544H18.7539H18.7534H18.7529H18.7524H18.7518H18.7513H18.7508H18.7502H18.7497H18.7492H18.7486H18.7481H18.7476H18.747H18.7465H18.7459H18.7454H18.7448H18.7443H18.7437H18.7432H18.7426H18.7421H18.7415H18.7409H18.7404H18.7398H18.7392H18.7386H18.7381H18.7375H18.7369H18.7363H18.7358H18.7352H18.7346H18.734H18.7334H18.7328H18.7322H18.7316H18.731H18.7304H18.7298H18.7292H18.7286H18.7279H18.7273H18.7267H18.7261H18.7255H18.7248H18.7242H18.7236H18.7229H18.7223H18.7217H18.721H18.7204H18.7197H18.7191H18.7184H18.7178H18.7171H18.7165H18.7158H18.7151H18.7145H18.7138H18.7131H18.7125H18.7118H18.7111H18.7104H18.7097H18.7091H18.7084H18.7077H18.707H18.7063H18.7056C18.6578 22.9485 18.6217 22.9484 18.5904 22.9478L12.4762 19.5526L11.9908 19.283L11.5053 19.5526L5.38999 22.9485L5.36602 22.9618L5.34282 22.9764C5.31368 22.9947 5.29533 22.9984 5.28692 22.9994C5.27762 23.0006 5.26477 23.0004 5.24635 22.9946C5.21371 22.9843 5.15135 22.9508 5.09176 22.8657C5.08947 22.8559 5.08702 22.8425 5.08482 22.824C5.07955 22.7797 5.07766 22.7299 5.07708 22.6467L6.26223 15.5609L6.34598 15.0601L5.99115 14.697L1.08057 9.67181C1.01942 9.60624 1 9.53975 1 9.48453C1 9.42843 1.02004 9.36071 1.08351 9.29414L1.14771 9.22679H1.15238L1.22482 9.21613L8.05954 8.20994L8.59672 8.13086L8.82296 7.63727L11.7973 1.148C11.8596 1.05281 11.9268 1.0162 11.9612 1.0054C11.9796 0.999601 11.9924 0.999407 12.0017 1.00057C12.0101 1.00162 12.0285 1.00528 12.0576 1.02362L12.091 1.04459L12.1258 1.06288C12.1357 1.06805 12.1436 1.0724 12.1498 1.07595C12.1542 1.08428 12.1601 1.09563 12.1672 1.11067L15.2848 7.6509L15.5143 8.13227L16.0419 8.20994L22.8766 9.21613L22.9296 9.22394C22.9335 9.2288 22.9376 9.23447 22.942 9.24103C22.9651 9.27534 22.9835 9.31725 22.9931 9.35796C23.0027 9.39879 22.9996 9.42103 22.9992 9.42301Z" stroke="url(#paint3_linear)" stroke-width="2"/>
<path d="M22.9992 9.42301L22.9939 9.45091L22.9066 9.54027L17.9904 14.5712L17.6355 14.9343L17.7193 15.4351L18.9175 22.5992C18.9472 22.7933 18.8555 22.9044 18.7871 22.9485H18.7869H18.7865H18.7861H18.7857H18.7853H18.7849H18.7845H18.784H18.7836H18.7832H18.7828H18.7824H18.7819H18.7815H18.7811H18.7807H18.7802H18.7798H18.7794H18.7789H18.7785H18.7781H18.7776H18.7772H18.7768H18.7763H18.7759H18.7754H18.775H18.7746H18.7741H18.7737H18.7732H18.7728H18.7723H18.7719H18.7714H18.7709H18.7705H18.77H18.7696H18.7691H18.7686H18.7682H18.7677H18.7672H18.7668H18.7663H18.7658H18.7653H18.7649H18.7644H18.7639H18.7634H18.7629H18.7624H18.762H18.7615H18.761H18.7605H18.76H18.7595H18.759H18.7585H18.758H18.7575H18.757H18.7565H18.756H18.7555H18.7549H18.7544H18.7539H18.7534H18.7529H18.7524H18.7518H18.7513H18.7508H18.7502H18.7497H18.7492H18.7486H18.7481H18.7476H18.747H18.7465H18.7459H18.7454H18.7448H18.7443H18.7437H18.7432H18.7426H18.7421H18.7415H18.7409H18.7404H18.7398H18.7392H18.7386H18.7381H18.7375H18.7369H18.7363H18.7358H18.7352H18.7346H18.734H18.7334H18.7328H18.7322H18.7316H18.731H18.7304H18.7298H18.7292H18.7286H18.7279H18.7273H18.7267H18.7261H18.7255H18.7248H18.7242H18.7236H18.7229H18.7223H18.7217H18.721H18.7204H18.7197H18.7191H18.7184H18.7178H18.7171H18.7165H18.7158H18.7151H18.7145H18.7138H18.7131H18.7125H18.7118H18.7111H18.7104H18.7097H18.7091H18.7084H18.7077H18.707H18.7063H18.7056C18.6578 22.9485 18.6217 22.9484 18.5904 22.9478L12.4762 19.5526L11.9908 19.283L11.5053 19.5526L5.38999 22.9485L5.36602 22.9618L5.34282 22.9764C5.31368 22.9947 5.29533 22.9984 5.28692 22.9994C5.27762 23.0006 5.26477 23.0004 5.24635 22.9946C5.21371 22.9843 5.15135 22.9508 5.09176 22.8657C5.08947 22.8559 5.08702 22.8425 5.08482 22.824C5.07955 22.7797 5.07766 22.7299 5.07708 22.6467L6.26223 15.5609L6.34598 15.0601L5.99115 14.697L1.08057 9.67181C1.01942 9.60624 1 9.53975 1 9.48453C1 9.42843 1.02004 9.36071 1.08351 9.29414L1.14771 9.22679H1.15238L1.22482 9.21613L8.05954 8.20994L8.59672 8.13086L8.82296 7.63727L11.7973 1.148C11.8596 1.05281 11.9268 1.0162 11.9612 1.0054C11.9796 0.999601 11.9924 0.999407 12.0017 1.00057C12.0101 1.00162 12.0285 1.00528 12.0576 1.02362L12.091 1.04459L12.1258 1.06288C12.1357 1.06805 12.1436 1.0724 12.1498 1.07595C12.1542 1.08428 12.1601 1.09563 12.1672 1.11067L15.2848 7.6509L15.5143 8.13227L16.0419 8.20994L22.8766 9.21613L22.9296 9.22394C22.9335 9.2288 22.9376 9.23447 22.942 9.24103C22.9651 9.27534 22.9835 9.31725 22.9931 9.35796C23.0027 9.39879 22.9996 9.42103 22.9992 9.42301Z" stroke="url(#paint4_radial)" stroke-width="2"/>
<path d="M22.9992 9.42301L22.9939 9.45091L22.9066 9.54027L17.9904 14.5712L17.6355 14.9343L17.7193 15.4351L18.9175 22.5992C18.9472 22.7933 18.8555 22.9044 18.7871 22.9485H18.7869H18.7865H18.7861H18.7857H18.7853H18.7849H18.7845H18.784H18.7836H18.7832H18.7828H18.7824H18.7819H18.7815H18.7811H18.7807H18.7802H18.7798H18.7794H18.7789H18.7785H18.7781H18.7776H18.7772H18.7768H18.7763H18.7759H18.7754H18.775H18.7746H18.7741H18.7737H18.7732H18.7728H18.7723H18.7719H18.7714H18.7709H18.7705H18.77H18.7696H18.7691H18.7686H18.7682H18.7677H18.7672H18.7668H18.7663H18.7658H18.7653H18.7649H18.7644H18.7639H18.7634H18.7629H18.7624H18.762H18.7615H18.761H18.7605H18.76H18.7595H18.759H18.7585H18.758H18.7575H18.757H18.7565H18.756H18.7555H18.7549H18.7544H18.7539H18.7534H18.7529H18.7524H18.7518H18.7513H18.7508H18.7502H18.7497H18.7492H18.7486H18.7481H18.7476H18.747H18.7465H18.7459H18.7454H18.7448H18.7443H18.7437H18.7432H18.7426H18.7421H18.7415H18.7409H18.7404H18.7398H18.7392H18.7386H18.7381H18.7375H18.7369H18.7363H18.7358H18.7352H18.7346H18.734H18.7334H18.7328H18.7322H18.7316H18.731H18.7304H18.7298H18.7292H18.7286H18.7279H18.7273H18.7267H18.7261H18.7255H18.7248H18.7242H18.7236H18.7229H18.7223H18.7217H18.721H18.7204H18.7197H18.7191H18.7184H18.7178H18.7171H18.7165H18.7158H18.7151H18.7145H18.7138H18.7131H18.7125H18.7118H18.7111H18.7104H18.7097H18.7091H18.7084H18.7077H18.707H18.7063H18.7056C18.6578 22.9485 18.6217 22.9484 18.5904 22.9478L12.4762 19.5526L11.9908 19.283L11.5053 19.5526L5.38999 22.9485L5.36602 22.9618L5.34282 22.9764C5.31368 22.9947 5.29533 22.9984 5.28692 22.9994C5.27762 23.0006 5.26477 23.0004 5.24635 22.9946C5.21371 22.9843 5.15135 22.9508 5.09176 22.8657C5.08947 22.8559 5.08702 22.8425 5.08482 22.824C5.07955 22.7797 5.07766 22.7299 5.07708 22.6467L6.26223 15.5609L6.34598 15.0601L5.99115 14.697L1.08057 9.67181C1.01942 9.60624 1 9.53975 1 9.48453C1 9.42843 1.02004 9.36071 1.08351 9.29414L1.14771 9.22679H1.15238L1.22482 9.21613L8.05954 8.20994L8.59672 8.13086L8.82296 7.63727L11.7973 1.148C11.8596 1.05281 11.9268 1.0162 11.9612 1.0054C11.9796 0.999601 11.9924 0.999407 12.0017 1.00057C12.0101 1.00162 12.0285 1.00528 12.0576 1.02362L12.091 1.04459L12.1258 1.06288C12.1357 1.06805 12.1436 1.0724 12.1498 1.07595C12.1542 1.08428 12.1601 1.09563 12.1672 1.11067L15.2848 7.6509L15.5143 8.13227L16.0419 8.20994L22.8766 9.21613L22.9296 9.22394C22.9335 9.2288 22.9376 9.23447 22.942 9.24103C22.9651 9.27534 22.9835 9.31725 22.9931 9.35796C23.0027 9.39879 22.9996 9.42103 22.9992 9.42301Z" stroke="url(#paint5_radial)" stroke-width="2"/>
<path d="M22.9992 9.42301L22.9939 9.45091L22.9066 9.54027L17.9904 14.5712L17.6355 14.9343L17.7193 15.4351L18.9175 22.5992C18.9472 22.7933 18.8555 22.9044 18.7871 22.9485H18.7869H18.7865H18.7861H18.7857H18.7853H18.7849H18.7845H18.784H18.7836H18.7832H18.7828H18.7824H18.7819H18.7815H18.7811H18.7807H18.7802H18.7798H18.7794H18.7789H18.7785H18.7781H18.7776H18.7772H18.7768H18.7763H18.7759H18.7754H18.775H18.7746H18.7741H18.7737H18.7732H18.7728H18.7723H18.7719H18.7714H18.7709H18.7705H18.77H18.7696H18.7691H18.7686H18.7682H18.7677H18.7672H18.7668H18.7663H18.7658H18.7653H18.7649H18.7644H18.7639H18.7634H18.7629H18.7624H18.762H18.7615H18.761H18.7605H18.76H18.7595H18.759H18.7585H18.758H18.7575H18.757H18.7565H18.756H18.7555H18.7549H18.7544H18.7539H18.7534H18.7529H18.7524H18.7518H18.7513H18.7508H18.7502H18.7497H18.7492H18.7486H18.7481H18.7476H18.747H18.7465H18.7459H18.7454H18.7448H18.7443H18.7437H18.7432H18.7426H18.7421H18.7415H18.7409H18.7404H18.7398H18.7392H18.7386H18.7381H18.7375H18.7369H18.7363H18.7358H18.7352H18.7346H18.734H18.7334H18.7328H18.7322H18.7316H18.731H18.7304H18.7298H18.7292H18.7286H18.7279H18.7273H18.7267H18.7261H18.7255H18.7248H18.7242H18.7236H18.7229H18.7223H18.7217H18.721H18.7204H18.7197H18.7191H18.7184H18.7178H18.7171H18.7165H18.7158H18.7151H18.7145H18.7138H18.7131H18.7125H18.7118H18.7111H18.7104H18.7097H18.7091H18.7084H18.7077H18.707H18.7063H18.7056C18.6578 22.9485 18.6217 22.9484 18.5904 22.9478L12.4762 19.5526L11.9908 19.283L11.5053 19.5526L5.38999 22.9485L5.36602 22.9618L5.34282 22.9764C5.31368 22.9947 5.29533 22.9984 5.28692 22.9994C5.27762 23.0006 5.26477 23.0004 5.24635 22.9946C5.21371 22.9843 5.15135 22.9508 5.09176 22.8657C5.08947 22.8559 5.08702 22.8425 5.08482 22.824C5.07955 22.7797 5.07766 22.7299 5.07708 22.6467L6.26223 15.5609L6.34598 15.0601L5.99115 14.697L1.08057 9.67181C1.01942 9.60624 1 9.53975 1 9.48453C1 9.42843 1.02004 9.36071 1.08351 9.29414L1.14771 9.22679H1.15238L1.22482 9.21613L8.05954 8.20994L8.59672 8.13086L8.82296 7.63727L11.7973 1.148C11.8596 1.05281 11.9268 1.0162 11.9612 1.0054C11.9796 0.999601 11.9924 0.999407 12.0017 1.00057C12.0101 1.00162 12.0285 1.00528 12.0576 1.02362L12.091 1.04459L12.1258 1.06288C12.1357 1.06805 12.1436 1.0724 12.1498 1.07595C12.1542 1.08428 12.1601 1.09563 12.1672 1.11067L15.2848 7.6509L15.5143 8.13227L16.0419 8.20994L22.8766 9.21613L22.9296 9.22394C22.9335 9.2288 22.9376 9.23447 22.942 9.24103C22.9651 9.27534 22.9835 9.31725 22.9931 9.35796C23.0027 9.39879 22.9996 9.42103 22.9992 9.42301Z" stroke="url(#paint6_radial)" stroke-width="2"/>
<path d="M22.9992 9.42301L22.9939 9.45091L22.9066 9.54027L17.9904 14.5712L17.6355 14.9343L17.7193 15.4351L18.9175 22.5992C18.9472 22.7933 18.8555 22.9044 18.7871 22.9485H18.7869H18.7865H18.7861H18.7857H18.7853H18.7849H18.7845H18.784H18.7836H18.7832H18.7828H18.7824H18.7819H18.7815H18.7811H18.7807H18.7802H18.7798H18.7794H18.7789H18.7785H18.7781H18.7776H18.7772H18.7768H18.7763H18.7759H18.7754H18.775H18.7746H18.7741H18.7737H18.7732H18.7728H18.7723H18.7719H18.7714H18.7709H18.7705H18.77H18.7696H18.7691H18.7686H18.7682H18.7677H18.7672H18.7668H18.7663H18.7658H18.7653H18.7649H18.7644H18.7639H18.7634H18.7629H18.7624H18.762H18.7615H18.761H18.7605H18.76H18.7595H18.759H18.7585H18.758H18.7575H18.757H18.7565H18.756H18.7555H18.7549H18.7544H18.7539H18.7534H18.7529H18.7524H18.7518H18.7513H18.7508H18.7502H18.7497H18.7492H18.7486H18.7481H18.7476H18.747H18.7465H18.7459H18.7454H18.7448H18.7443H18.7437H18.7432H18.7426H18.7421H18.7415H18.7409H18.7404H18.7398H18.7392H18.7386H18.7381H18.7375H18.7369H18.7363H18.7358H18.7352H18.7346H18.734H18.7334H18.7328H18.7322H18.7316H18.731H18.7304H18.7298H18.7292H18.7286H18.7279H18.7273H18.7267H18.7261H18.7255H18.7248H18.7242H18.7236H18.7229H18.7223H18.7217H18.721H18.7204H18.7197H18.7191H18.7184H18.7178H18.7171H18.7165H18.7158H18.7151H18.7145H18.7138H18.7131H18.7125H18.7118H18.7111H18.7104H18.7097H18.7091H18.7084H18.7077H18.707H18.7063H18.7056C18.6578 22.9485 18.6217 22.9484 18.5904 22.9478L12.4762 19.5526L11.9908 19.283L11.5053 19.5526L5.38999 22.9485L5.36602 22.9618L5.34282 22.9764C5.31368 22.9947 5.29533 22.9984 5.28692 22.9994C5.27762 23.0006 5.26477 23.0004 5.24635 22.9946C5.21371 22.9843 5.15135 22.9508 5.09176 22.8657C5.08947 22.8559 5.08702 22.8425 5.08482 22.824C5.07955 22.7797 5.07766 22.7299 5.07708 22.6467L6.26223 15.5609L6.34598 15.0601L5.99115 14.697L1.08057 9.67181C1.01942 9.60624 1 9.53975 1 9.48453C1 9.42843 1.02004 9.36071 1.08351 9.29414L1.14771 9.22679H1.15238L1.22482 9.21613L8.05954 8.20994L8.59672 8.13086L8.82296 7.63727L11.7973 1.148C11.8596 1.05281 11.9268 1.0162 11.9612 1.0054C11.9796 0.999601 11.9924 0.999407 12.0017 1.00057C12.0101 1.00162 12.0285 1.00528 12.0576 1.02362L12.091 1.04459L12.1258 1.06288C12.1357 1.06805 12.1436 1.0724 12.1498 1.07595C12.1542 1.08428 12.1601 1.09563 12.1672 1.11067L15.2848 7.6509L15.5143 8.13227L16.0419 8.20994L22.8766 9.21613L22.9296 9.22394C22.9335 9.2288 22.9376 9.23447 22.942 9.24103C22.9651 9.27534 22.9835 9.31725 22.9931 9.35796C23.0027 9.39879 22.9996 9.42103 22.9992 9.42301Z" stroke="url(#paint7_linear)" stroke-width="2"/>
<defs>
<radialGradient id="paint0_radial" cx="0" cy="0" r="1" gradientUnits="userSpaceOnUse" gradientTransform="translate(21.78 9.63603) rotate(105.702) scale(24.2756 11.0914)">
<stop stop-color="#FFFDB1"/>
<stop offset="0.344597" stop-color="#FEE4BF"/>
<stop offset="0.695017" stop-color="#F0BDD0"/>
<stop offset="1" stop-color="#FF8126" stop-opacity="0"/>
</radialGradient>
<linearGradient id="paint1_linear" x1="13.635" y1="-1.62101" x2="19.342" y2="2.92392" gradientUnits="userSpaceOnUse">
<stop stop-color="#C0A9F0" stop-opacity="0"/>
<stop offset="0.456382" stop-color="#C0A9F0"/>
<stop offset="1" stop-color="#C0A9F0" stop-opacity="0"/>
</linearGradient>
<linearGradient id="paint2_linear" x1="25.71" y1="-5.62852" x2="19.0285" y2="3.41939" gradientUnits="userSpaceOnUse">
<stop stop-color="#C0A9F0" stop-opacity="0"/>
<stop offset="0.461891" stop-color="#C0A9F0"/>
<stop offset="1" stop-color="#C0A9F0" stop-opacity="0"/>
</linearGradient>
<linearGradient id="paint3_linear" x1="6.105" y1="3.78236" x2="12.6801" y2="10.2644" gradientUnits="userSpaceOnUse">
<stop stop-color="#CDF9E8"/>
<stop offset="1" stop-color="#CDF9E8" stop-opacity="0"/>
</linearGradient>
<radialGradient id="paint4_radial" cx="0" cy="0" r="1" gradientUnits="userSpaceOnUse" gradientTransform="translate(10.935 10.7167) rotate(-117.358) scale(7.37669 14.5765)">
<stop stop-color="#CBADEB"/>
<stop offset="1" stop-color="#C2A6F1" stop-opacity="0"/>
</radialGradient>
<radialGradient id="paint5_radial" cx="0" cy="0" r="1" gradientUnits="userSpaceOnUse" gradientTransform="translate(8.61 24) rotate(-125.099) scale(10.5393 14.0354)">
<stop stop-color="#DC8DDC"/>
<stop offset="1" stop-color="#DC8DDC" stop-opacity="0"/>
</radialGradient>
<radialGradient id="paint6_radial" cx="0" cy="0" r="1" gradientUnits="userSpaceOnUse" gradientTransform="translate(10.62 20.8705) rotate(-136.482) scale(9.1222 17.2881)">
<stop stop-color="#DC8DDC"/>
<stop offset="1" stop-color="#DC8DDC" stop-opacity="0"/>
</radialGradient>
<linearGradient id="paint7_linear" x1="0" y1="0" x2="5.10793" y2="3.36183" gradientUnits="userSpaceOnUse">
<stop stop-color="#EBF3D0"/>
<stop offset="1" stop-color="#EBF3D0" stop-opacity="0"/>
</linearGradient>
</defs>
</svg>
