<svg width="76" height="76" viewBox="0 0 76 76" fill="none" xmlns="http://www.w3.org/2000/svg">
<circle cx="38" cy="38" r="26" fill="white" fill-opacity="0.9"/>
<circle cx="38" cy="38" r="28.5" stroke="white" stroke-opacity="0.9" stroke-width="3"/>
<mask id="path-3-inside-1" fill="white">
<path d="M76 38C76 33.0098 75.0171 28.0684 73.1074 23.458C71.1977 18.8477 68.3987 14.6586 64.8701 11.1299C61.3414 7.60132 57.1523 4.80226 52.542 2.89258C47.9316 0.982899 42.9902 -2.1813e-07 38 0L38 2.80124C42.6224 2.80124 47.1995 3.71169 51.47 5.48059C55.7405 7.24949 59.6208 9.84221 62.8893 13.1107C66.1578 16.3792 68.7505 20.2595 70.5194 24.53C72.2883 28.8005 73.1988 33.3776 73.1988 38H76Z"/>
</mask>
<path d="M76 38C76 33.0098 75.0171 28.0684 73.1074 23.458C71.1977 18.8477 68.3987 14.6586 64.8701 11.1299C61.3414 7.60132 57.1523 4.80226 52.542 2.89258C47.9316 0.982899 42.9902 -2.1813e-07 38 0L38 2.80124C42.6224 2.80124 47.1995 3.71169 51.47 5.48059C55.7405 7.24949 59.6208 9.84221 62.8893 13.1107C66.1578 16.3792 68.7505 20.2595 70.5194 24.53C72.2883 28.8005 73.1988 33.3776 73.1988 38H76Z" stroke="#FD2356" stroke-width="6" mask="url(#path-3-inside-1)"/>
</svg>
