<svg width="24" height="24" viewBox="0 0 24 24" fill="none" xmlns="http://www.w3.org/2000/svg">
<path d="M12.0169 0C10.4432 0 8.88501 0.310375 7.43115 0.913405C5.97729 1.51643 4.65628 2.40031 3.54355 3.51456C1.29628 5.7649 0.033776 8.81701 0.033776 11.9995C0.0233002 14.7703 0.981391 17.4575 2.74196 19.5951L0.345337 21.995C0.179062 22.1638 0.0664254 22.378 0.0216395 22.6108C-0.0231463 22.8436 0.00192556 23.0844 0.0936916 23.303C0.193221 23.5189 0.354569 23.7003 0.557254 23.8242C0.75994 23.9481 0.994823 24.0089 1.23209 23.9989H12.0169C15.195 23.9989 18.243 22.7347 20.4902 20.4844C22.7375 18.234 24 15.1819 24 11.9995C24 8.81701 22.7375 5.7649 20.4902 3.51456C18.243 1.26423 15.195 0 12.0169 0ZM12.0169 21.599H4.12002L5.23445 20.4831C5.45763 20.2583 5.58291 19.9541 5.58291 19.6371C5.58291 19.3201 5.45763 19.016 5.23445 18.7912C3.66536 17.2217 2.68824 15.156 2.46957 12.946C2.2509 10.736 2.8042 8.51843 4.03521 6.67113C5.26622 4.82383 7.09877 3.46108 9.22065 2.81504C11.3425 2.16901 13.6225 2.27966 15.672 3.12816C17.7215 3.97665 19.4139 5.51049 20.4607 7.46834C21.5075 9.42619 21.8441 11.6869 21.413 13.8654C20.9819 16.0439 19.8099 18.0053 18.0966 19.4154C16.3833 20.8256 14.2347 21.5973 12.0169 21.599Z" fill="white"/>
</svg>
