<svg width="24" height="24" viewBox="0 0 24 24" fill="none" xmlns="http://www.w3.org/2000/svg">
<path d="M14.1135 11.9987L23.5566 2.56955C23.8389 2.28727 23.9974 1.90441 23.9974 1.50521C23.9974 1.106 23.8389 0.723146 23.5566 0.440865C23.2744 0.158584 22.8916 0 22.4924 0C22.0932 0 21.7104 0.158584 21.4282 0.440865L12 9.88503L2.57183 0.440865C2.28958 0.158584 1.90677 3.54433e-07 1.5076 3.57407e-07C1.10844 3.60381e-07 0.725627 0.158584 0.443376 0.440865C0.161125 0.723146 0.00255841 1.106 0.0025584 1.50521C0.0025584 1.90441 0.161125 2.28727 0.443376 2.56955L9.88653 11.9987L0.443376 21.4279C0.302885 21.5673 0.191375 21.733 0.115277 21.9157C0.0391793 22.0984 0 22.2943 0 22.4922C0 22.6901 0.0391793 22.8861 0.115277 23.0687C0.191375 23.2514 0.302885 23.4172 0.443376 23.5566C0.58272 23.6971 0.748501 23.8086 0.931157 23.8847C1.11381 23.9608 1.30973 24 1.5076 24C1.70548 24 1.9014 23.9608 2.08405 23.8847C2.26671 23.8086 2.43249 23.6971 2.57183 23.5566L12 14.1124L21.4282 23.5566C21.5675 23.6971 21.7333 23.8086 21.9159 23.8847C22.0986 23.9608 22.2945 24 22.4924 24C22.6903 24 22.8862 23.9608 23.0688 23.8847C23.2515 23.8086 23.4173 23.6971 23.5566 23.5566C23.6971 23.4172 23.8086 23.2514 23.8847 23.0687C23.9608 22.8861 24 22.6901 24 22.4922C24 22.2943 23.9608 22.0984 23.8847 21.9157C23.8086 21.733 23.6971 21.5673 23.5566 21.4279L14.1135 11.9987Z" fill="white"/>
</svg>
