<svg width="24" height="24" viewBox="0 0 24 24" fill="none" xmlns="http://www.w3.org/2000/svg">
<path d="M9.6 0H14.4C16.9461 0 19.3879 1.03736 21.1882 2.88387C22.9886 4.73038 24 7.23479 24 9.84615C24 12.4575 22.9886 14.9619 21.1882 16.8084C19.3879 18.6549 16.9461 19.6923 14.4 19.6923V24C8.4 21.5385 0 17.8462 0 9.84615C0 7.23479 1.01143 4.73038 2.81178 2.88387C4.61212 1.03736 7.05392 0 9.6 0ZM12 17.2308H14.4C15.3455 17.2308 16.2818 17.0398 17.1553 16.6686C18.0289 16.2975 18.8226 15.7536 19.4912 15.0679C20.1598 14.3821 20.6901 13.5681 21.0519 12.6721C21.4138 11.7762 21.6 10.8159 21.6 9.84615C21.6 8.87639 21.4138 7.91613 21.0519 7.02018C20.6901 6.12424 20.1598 5.31017 19.4912 4.62444C18.8226 3.93872 18.0289 3.39477 17.1553 3.02366C16.2818 2.65255 15.3455 2.46154 14.4 2.46154H9.6C7.69044 2.46154 5.85909 3.23956 4.50883 4.62444C3.15857 6.00933 2.4 7.88763 2.4 9.84615C2.4 14.2892 5.3544 17.1889 12 20.2831V17.2308Z" fill="white"/>
</svg>
