<svg width="24" height="24" viewBox="0 0 24 24" fill="none" xmlns="http://www.w3.org/2000/svg">
<path d="M12 24C5.3724 24 0 18.6276 0 12C0 5.3724 5.3724 0 12 0C18.6276 0 24 5.3724 24 12C24 18.6276 18.6276 24 12 24ZM12 21.6C14.5461 21.6 16.9879 20.5886 18.7882 18.7882C20.5886 16.9879 21.6 14.5461 21.6 12C21.6 9.45392 20.5886 7.01212 18.7882 5.21178C16.9879 3.41143 14.5461 2.4 12 2.4C9.45392 2.4 7.01212 3.41143 5.21178 5.21178C3.41143 7.01212 2.4 9.45392 2.4 12C2.4 14.5461 3.41143 16.9879 5.21178 18.7882C7.01212 20.5886 9.45392 21.6 12 21.6ZM7.8 14.4H14.4C14.5591 14.4 14.7117 14.3368 14.8243 14.2243C14.9368 14.1117 15 13.9591 15 13.8C15 13.6409 14.9368 13.4883 14.8243 13.3757C14.7117 13.2632 14.5591 13.2 14.4 13.2H9.6C8.80435 13.2 8.04129 12.8839 7.47868 12.3213C6.91607 11.7587 6.6 10.9957 6.6 10.2C6.6 9.40435 6.91607 8.64129 7.47868 8.07868C8.04129 7.51607 8.80435 7.2 9.6 7.2H10.8V4.8H13.2V7.2H16.2V9.6H9.6C9.44087 9.6 9.28826 9.66321 9.17574 9.77574C9.06321 9.88826 9 10.0409 9 10.2C9 10.3591 9.06321 10.5117 9.17574 10.6243C9.28826 10.7368 9.44087 10.8 9.6 10.8H14.4C15.1957 10.8 15.9587 11.1161 16.5213 11.6787C17.0839 12.2413 17.4 13.0044 17.4 13.8C17.4 14.5956 17.0839 15.3587 16.5213 15.9213C15.9587 16.4839 15.1957 16.8 14.4 16.8H13.2V19.2H10.8V16.8H7.8V14.4Z" fill="white"/>
</svg>
