<svg width="24" height="24" viewBox="0 0 24 24" fill="none" xmlns="http://www.w3.org/2000/svg">
<path d="M12.6316 14.7929V17.126C11.4883 16.7688 10.2648 16.6592 9.06367 16.8065C7.86257 16.9537 6.71899 17.3535 5.72897 17.9723C4.73894 18.5911 3.93138 19.4108 3.3741 20.3625C2.81682 21.3142 2.52608 22.3703 2.52632 23.4419L3.26471e-07 23.4407C-0.000391723 22.0776 0.352322 20.7325 1.03111 19.5085C1.70991 18.2845 2.69676 17.2141 3.91606 16.3792C5.13536 15.5443 6.55475 14.9672 8.06546 14.6921C9.57616 14.4169 11.1381 14.451 12.6316 14.7918V14.7929ZM10.1053 13.3953C5.91789 13.3953 2.52632 10.3981 2.52632 6.69767C2.52632 2.99721 5.91789 0 10.1053 0C14.2926 0 17.6842 2.99721 17.6842 6.69767C17.6842 10.3981 14.2926 13.3953 10.1053 13.3953ZM10.1053 11.1628C12.8968 11.1628 15.1579 9.16465 15.1579 6.69767C15.1579 4.2307 12.8968 2.23256 10.1053 2.23256C7.31368 2.23256 5.05263 4.2307 5.05263 6.69767C5.05263 9.16465 7.31368 11.1628 10.1053 11.1628ZM20.2105 17.8605H24V20.093H20.2105V24L13.8947 18.9767L20.2105 13.9535V17.8605Z" fill="white"/>
</svg>
