<svg width="24" height="24" viewBox="0 0 24 24" fill="none" xmlns="http://www.w3.org/2000/svg">
<path d="M21.6 14.4C19.5864 14.4 17.7012 14.952 16.0884 15.9108C17.5246 17.5891 18.6392 19.5177 19.3764 21.6H21.6V14.4ZM16.8048 21.6C14.4528 15.9624 8.8896 12 2.4 12V21.6H16.8048ZM2.4 9.6C6.996 9.6 11.1876 11.322 14.3688 14.1552C16.5166 12.7452 19.0307 11.9959 21.6 12V2.4H22.8096C23.4672 2.4 24 2.934 24 3.5916V22.8084C23.9978 23.1235 23.8717 23.4252 23.649 23.6481C23.4263 23.8711 23.1247 23.9975 22.8096 24H1.1904C0.874576 23.9997 0.571796 23.874 0.348587 23.6506C0.125378 23.4271 -1.60146e-07 23.1242 0 22.8084V3.5916C0.00219605 3.27645 0.12828 2.97482 0.351015 2.75186C0.573751 2.5289 0.875256 2.40251 1.1904 2.4H4.8V0H7.2V4.8H2.4V9.6ZM19.2 0V4.8H9.6V2.4H16.8V0H19.2ZM17.4 10.8C16.9226 10.8 16.4648 10.6104 16.1272 10.2728C15.7896 9.93523 15.6 9.47739 15.6 9C15.6 8.52261 15.7896 8.06477 16.1272 7.72721C16.4648 7.38964 16.9226 7.2 17.4 7.2C17.8774 7.2 18.3352 7.38964 18.6728 7.72721C19.0104 8.06477 19.2 8.52261 19.2 9C19.2 9.47739 19.0104 9.93523 18.6728 10.2728C18.3352 10.6104 17.8774 10.8 17.4 10.8Z" fill="white"/>
</svg>
