<svg width="14" height="23" viewBox="0 0 14 23" fill="none" xmlns="http://www.w3.org/2000/svg">
<path d="M6.6549 0V2.59082H9.86859L6.95443 5.71051C6.27082 5.28398 5.47597 5.03943 4.6277 5.03943C2.07189 5.03943 0 7.25744 0 9.9935C0 12.2813 1.44875 14.2065 3.41763 14.7761V17.6162H0.820533V20.2071H3.41763V23H5.83777V20.2071H8.43486V17.6163H5.83777V14.7762C7.80664 14.2066 9.25539 12.2814 9.25539 9.99354C9.25539 9.10625 9.03727 8.27362 8.65567 7.55325L11.5799 4.42283V7.86317H14V0H6.6549ZM4.6277 12.7526C3.20429 12.7526 2.05041 11.5173 2.05041 9.9935C2.05041 8.46971 3.20429 7.23444 4.6277 7.23444C6.0511 7.23444 7.20499 8.46971 7.20499 9.9935C7.20499 11.5173 6.05106 12.7526 4.6277 12.7526Z" fill="white"/>
</svg>
