<svg width="16" height="16" viewBox="0 0 16 16" fill="none" xmlns="http://www.w3.org/2000/svg">
<path d="M8.65487 0V1.80231H12.9233L9.75488 4.97072C8.73787 4.21622 7.47872 3.76975 6.11516 3.76975C2.73784 3.76975 0 6.50756 0 9.88488C0 13.2622 2.73784 16 6.11513 16C9.49241 16 12.2303 13.2622 12.2303 9.88488C12.2303 8.52131 11.7838 7.26213 11.0293 6.24512L14.1977 3.07675V7.34516H16V0L8.65487 0ZM6.11513 13.986C3.85013 13.986 2.01397 12.1498 2.01397 9.88484C2.01397 7.61984 3.85013 5.78369 6.11513 5.78369C8.38013 5.78369 10.2163 7.61984 10.2163 9.88484C10.2163 12.1499 8.38013 13.986 6.11513 13.986Z" fill="#FD2356"/>
</svg>
