<svg width="12" height="21" viewBox="0 0 12 21" fill="none" xmlns="http://www.w3.org/2000/svg">
<path d="M12 5.98418C12 2.67922 9.31374 0 6 0C2.68626 0 0 2.67922 0 5.98418C0 8.88423 2.06846 11.3022 4.81411 11.8513V16.0844H2.2689V18.45H4.81411V21H7.18589V18.45H9.7311V16.0844H7.18589V11.8513C9.93158 11.3022 12 8.88423 12 5.98418ZM2.2689 5.98418C2.2689 3.92897 3.93936 2.26291 6 2.26291C8.06065 2.26291 9.7311 3.92897 9.7311 5.98418C9.7311 8.03939 8.06065 9.70545 6 9.70545C3.93936 9.70545 2.2689 8.03939 2.2689 5.98418Z" fill="#FD2356"/>
</svg>
