<svg width="24" height="24" viewBox="0 0 24 24" fill="none" xmlns="http://www.w3.org/2000/svg">
<path d="M6.64304 17.205C6.08194 17.205 5.52084 17.1028 4.95974 16.8984C3.42947 16.3365 2.20525 15.1103 1.59314 13.4755C0.981035 11.7385 1.18507 9.84824 2.15424 8.2645L4.44965 4.58615C4.70469 4.17744 5.16377 4.02417 5.62286 4.17744L11.3869 6.22097C11.7949 6.37424 12.05 6.73185 12.05 7.19165L11.948 11.6363C11.897 14.8038 9.55055 17.205 6.64304 17.205ZM5.72487 6.37424L3.83754 9.38845C3.22543 10.4102 3.07241 11.6874 3.48048 12.8625C3.83754 13.9353 4.60268 14.7016 5.57185 15.0592C5.92891 15.1614 6.23496 15.2125 6.59203 15.2125C8.37734 15.2125 9.90761 13.5777 9.95862 11.5852L10.0606 7.90689L5.72487 6.37424Z" fill="#C2A6F1"/>
<path d="M6.64304 17.205C6.08194 17.205 5.52084 17.1028 4.95974 16.8984C3.42947 16.3365 2.20525 15.1103 1.59314 13.4755C0.981035 11.7385 1.18507 9.84824 2.15424 8.2645L4.44965 4.58615C4.70469 4.17744 5.16377 4.02417 5.62286 4.17744L11.3869 6.22097C11.7949 6.37424 12.05 6.73185 12.05 7.19165L11.948 11.6363C11.897 14.8038 9.55055 17.205 6.64304 17.205ZM5.72487 6.37424L3.83754 9.38845C3.22543 10.4102 3.07241 11.6874 3.48048 12.8625C3.83754 13.9353 4.60268 14.7016 5.57185 15.0592C5.92891 15.1614 6.23496 15.2125 6.59203 15.2125C8.37734 15.2125 9.90761 13.5777 9.95862 11.5852L10.0606 7.90689L5.72487 6.37424Z" fill="url(#paint0_radial)"/>
<path d="M6.64304 17.205C6.08194 17.205 5.52084 17.1028 4.95974 16.8984C3.42947 16.3365 2.20525 15.1103 1.59314 13.4755C0.981035 11.7385 1.18507 9.84824 2.15424 8.2645L4.44965 4.58615C4.70469 4.17744 5.16377 4.02417 5.62286 4.17744L11.3869 6.22097C11.7949 6.37424 12.05 6.73185 12.05 7.19165L11.948 11.6363C11.897 14.8038 9.55055 17.205 6.64304 17.205ZM5.72487 6.37424L3.83754 9.38845C3.22543 10.4102 3.07241 11.6874 3.48048 12.8625C3.83754 13.9353 4.60268 14.7016 5.57185 15.0592C5.92891 15.1614 6.23496 15.2125 6.59203 15.2125C8.37734 15.2125 9.90761 13.5777 9.95862 11.5852L10.0606 7.90689L5.72487 6.37424Z" fill="url(#paint1_linear)"/>
<path d="M6.64304 17.205C6.08194 17.205 5.52084 17.1028 4.95974 16.8984C3.42947 16.3365 2.20525 15.1103 1.59314 13.4755C0.981035 11.7385 1.18507 9.84824 2.15424 8.2645L4.44965 4.58615C4.70469 4.17744 5.16377 4.02417 5.62286 4.17744L11.3869 6.22097C11.7949 6.37424 12.05 6.73185 12.05 7.19165L11.948 11.6363C11.897 14.8038 9.55055 17.205 6.64304 17.205ZM5.72487 6.37424L3.83754 9.38845C3.22543 10.4102 3.07241 11.6874 3.48048 12.8625C3.83754 13.9353 4.60268 14.7016 5.57185 15.0592C5.92891 15.1614 6.23496 15.2125 6.59203 15.2125C8.37734 15.2125 9.90761 13.5777 9.95862 11.5852L10.0606 7.90689L5.72487 6.37424Z" fill="url(#paint2_linear)"/>
<path d="M6.64304 17.205C6.08194 17.205 5.52084 17.1028 4.95974 16.8984C3.42947 16.3365 2.20525 15.1103 1.59314 13.4755C0.981035 11.7385 1.18507 9.84824 2.15424 8.2645L4.44965 4.58615C4.70469 4.17744 5.16377 4.02417 5.62286 4.17744L11.3869 6.22097C11.7949 6.37424 12.05 6.73185 12.05 7.19165L11.948 11.6363C11.897 14.8038 9.55055 17.205 6.64304 17.205ZM5.72487 6.37424L3.83754 9.38845C3.22543 10.4102 3.07241 11.6874 3.48048 12.8625C3.83754 13.9353 4.60268 14.7016 5.57185 15.0592C5.92891 15.1614 6.23496 15.2125 6.59203 15.2125C8.37734 15.2125 9.90761 13.5777 9.95862 11.5852L10.0606 7.90689L5.72487 6.37424Z" fill="url(#paint3_linear)"/>
<path d="M6.64304 17.205C6.08194 17.205 5.52084 17.1028 4.95974 16.8984C3.42947 16.3365 2.20525 15.1103 1.59314 13.4755C0.981035 11.7385 1.18507 9.84824 2.15424 8.2645L4.44965 4.58615C4.70469 4.17744 5.16377 4.02417 5.62286 4.17744L11.3869 6.22097C11.7949 6.37424 12.05 6.73185 12.05 7.19165L11.948 11.6363C11.897 14.8038 9.55055 17.205 6.64304 17.205ZM5.72487 6.37424L3.83754 9.38845C3.22543 10.4102 3.07241 11.6874 3.48048 12.8625C3.83754 13.9353 4.60268 14.7016 5.57185 15.0592C5.92891 15.1614 6.23496 15.2125 6.59203 15.2125C8.37734 15.2125 9.90761 13.5777 9.95862 11.5852L10.0606 7.90689L5.72487 6.37424Z" fill="url(#paint4_radial)"/>
<path d="M6.64304 17.205C6.08194 17.205 5.52084 17.1028 4.95974 16.8984C3.42947 16.3365 2.20525 15.1103 1.59314 13.4755C0.981035 11.7385 1.18507 9.84824 2.15424 8.2645L4.44965 4.58615C4.70469 4.17744 5.16377 4.02417 5.62286 4.17744L11.3869 6.22097C11.7949 6.37424 12.05 6.73185 12.05 7.19165L11.948 11.6363C11.897 14.8038 9.55055 17.205 6.64304 17.205ZM5.72487 6.37424L3.83754 9.38845C3.22543 10.4102 3.07241 11.6874 3.48048 12.8625C3.83754 13.9353 4.60268 14.7016 5.57185 15.0592C5.92891 15.1614 6.23496 15.2125 6.59203 15.2125C8.37734 15.2125 9.90761 13.5777 9.95862 11.5852L10.0606 7.90689L5.72487 6.37424Z" fill="url(#paint5_radial)"/>
<path d="M6.64304 17.205C6.08194 17.205 5.52084 17.1028 4.95974 16.8984C3.42947 16.3365 2.20525 15.1103 1.59314 13.4755C0.981035 11.7385 1.18507 9.84824 2.15424 8.2645L4.44965 4.58615C4.70469 4.17744 5.16377 4.02417 5.62286 4.17744L11.3869 6.22097C11.7949 6.37424 12.05 6.73185 12.05 7.19165L11.948 11.6363C11.897 14.8038 9.55055 17.205 6.64304 17.205ZM5.72487 6.37424L3.83754 9.38845C3.22543 10.4102 3.07241 11.6874 3.48048 12.8625C3.83754 13.9353 4.60268 14.7016 5.57185 15.0592C5.92891 15.1614 6.23496 15.2125 6.59203 15.2125C8.37734 15.2125 9.90761 13.5777 9.95862 11.5852L10.0606 7.90689L5.72487 6.37424Z" fill="url(#paint6_radial)"/>
<path d="M6.64304 17.205C6.08194 17.205 5.52084 17.1028 4.95974 16.8984C3.42947 16.3365 2.20525 15.1103 1.59314 13.4755C0.981035 11.7385 1.18507 9.84824 2.15424 8.2645L4.44965 4.58615C4.70469 4.17744 5.16377 4.02417 5.62286 4.17744L11.3869 6.22097C11.7949 6.37424 12.05 6.73185 12.05 7.19165L11.948 11.6363C11.897 14.8038 9.55055 17.205 6.64304 17.205ZM5.72487 6.37424L3.83754 9.38845C3.22543 10.4102 3.07241 11.6874 3.48048 12.8625C3.83754 13.9353 4.60268 14.7016 5.57185 15.0592C5.92891 15.1614 6.23496 15.2125 6.59203 15.2125C8.37734 15.2125 9.90761 13.5777 9.95862 11.5852L10.0606 7.90689L5.72487 6.37424Z" fill="url(#paint7_linear)"/>
<path d="M3.43057 23.1311C3.32856 23.1311 3.22654 23.1311 3.12452 23.08C2.61443 22.9267 2.30838 22.3647 2.4614 21.8539L4.29773 15.7233C4.45075 15.2124 5.01185 14.9059 5.52194 15.0591C6.03203 15.2124 6.33809 15.7744 6.18506 16.2852L4.34874 22.4158C4.29773 22.8756 3.88966 23.1311 3.43057 23.1311Z" fill="#C2A6F1"/>
<path d="M3.43057 23.1311C3.32856 23.1311 3.22654 23.1311 3.12452 23.08C2.61443 22.9267 2.30838 22.3647 2.4614 21.8539L4.29773 15.7233C4.45075 15.2124 5.01185 14.9059 5.52194 15.0591C6.03203 15.2124 6.33809 15.7744 6.18506 16.2852L4.34874 22.4158C4.29773 22.8756 3.88966 23.1311 3.43057 23.1311Z" fill="url(#paint8_radial)"/>
<path d="M3.43057 23.1311C3.32856 23.1311 3.22654 23.1311 3.12452 23.08C2.61443 22.9267 2.30838 22.3647 2.4614 21.8539L4.29773 15.7233C4.45075 15.2124 5.01185 14.9059 5.52194 15.0591C6.03203 15.2124 6.33809 15.7744 6.18506 16.2852L4.34874 22.4158C4.29773 22.8756 3.88966 23.1311 3.43057 23.1311Z" fill="url(#paint9_linear)"/>
<path d="M3.43057 23.1311C3.32856 23.1311 3.22654 23.1311 3.12452 23.08C2.61443 22.9267 2.30838 22.3647 2.4614 21.8539L4.29773 15.7233C4.45075 15.2124 5.01185 14.9059 5.52194 15.0591C6.03203 15.2124 6.33809 15.7744 6.18506 16.2852L4.34874 22.4158C4.29773 22.8756 3.88966 23.1311 3.43057 23.1311Z" fill="url(#paint10_linear)"/>
<path d="M3.43057 23.1311C3.32856 23.1311 3.22654 23.1311 3.12452 23.08C2.61443 22.9267 2.30838 22.3647 2.4614 21.8539L4.29773 15.7233C4.45075 15.2124 5.01185 14.9059 5.52194 15.0591C6.03203 15.2124 6.33809 15.7744 6.18506 16.2852L4.34874 22.4158C4.29773 22.8756 3.88966 23.1311 3.43057 23.1311Z" fill="url(#paint11_linear)"/>
<path d="M3.43057 23.1311C3.32856 23.1311 3.22654 23.1311 3.12452 23.08C2.61443 22.9267 2.30838 22.3647 2.4614 21.8539L4.29773 15.7233C4.45075 15.2124 5.01185 14.9059 5.52194 15.0591C6.03203 15.2124 6.33809 15.7744 6.18506 16.2852L4.34874 22.4158C4.29773 22.8756 3.88966 23.1311 3.43057 23.1311Z" fill="url(#paint12_radial)"/>
<path d="M3.43057 23.1311C3.32856 23.1311 3.22654 23.1311 3.12452 23.08C2.61443 22.9267 2.30838 22.3647 2.4614 21.8539L4.29773 15.7233C4.45075 15.2124 5.01185 14.9059 5.52194 15.0591C6.03203 15.2124 6.33809 15.7744 6.18506 16.2852L4.34874 22.4158C4.29773 22.8756 3.88966 23.1311 3.43057 23.1311Z" fill="url(#paint13_radial)"/>
<path d="M3.43057 23.1311C3.32856 23.1311 3.22654 23.1311 3.12452 23.08C2.61443 22.9267 2.30838 22.3647 2.4614 21.8539L4.29773 15.7233C4.45075 15.2124 5.01185 14.9059 5.52194 15.0591C6.03203 15.2124 6.33809 15.7744 6.18506 16.2852L4.34874 22.4158C4.29773 22.8756 3.88966 23.1311 3.43057 23.1311Z" fill="url(#paint14_radial)"/>
<path d="M3.43057 23.1311C3.32856 23.1311 3.22654 23.1311 3.12452 23.08C2.61443 22.9267 2.30838 22.3647 2.4614 21.8539L4.29773 15.7233C4.45075 15.2124 5.01185 14.9059 5.52194 15.0591C6.03203 15.2124 6.33809 15.7744 6.18506 16.2852L4.34874 22.4158C4.29773 22.8756 3.88966 23.1311 3.43057 23.1311Z" fill="url(#paint15_linear)"/>
<path d="M5.87894 23.9992C5.77692 23.9992 5.6749 23.9992 5.57288 23.9481L0.676019 22.2111C0.165928 22.0068 -0.140126 21.4448 0.0639105 20.9339C0.267947 20.423 0.829046 20.1165 1.33914 20.3208L6.18499 22.0068C6.69508 22.2111 7.00114 22.7731 6.7971 23.284C6.69508 23.7438 6.28701 23.9992 5.87894 23.9992Z" fill="#C2A6F1"/>
<path d="M5.87894 23.9992C5.77692 23.9992 5.6749 23.9992 5.57288 23.9481L0.676019 22.2111C0.165928 22.0068 -0.140126 21.4448 0.0639105 20.9339C0.267947 20.423 0.829046 20.1165 1.33914 20.3208L6.18499 22.0068C6.69508 22.2111 7.00114 22.7731 6.7971 23.284C6.69508 23.7438 6.28701 23.9992 5.87894 23.9992Z" fill="url(#paint16_radial)"/>
<path d="M5.87894 23.9992C5.77692 23.9992 5.6749 23.9992 5.57288 23.9481L0.676019 22.2111C0.165928 22.0068 -0.140126 21.4448 0.0639105 20.9339C0.267947 20.423 0.829046 20.1165 1.33914 20.3208L6.18499 22.0068C6.69508 22.2111 7.00114 22.7731 6.7971 23.284C6.69508 23.7438 6.28701 23.9992 5.87894 23.9992Z" fill="url(#paint17_linear)"/>
<path d="M5.87894 23.9992C5.77692 23.9992 5.6749 23.9992 5.57288 23.9481L0.676019 22.2111C0.165928 22.0068 -0.140126 21.4448 0.0639105 20.9339C0.267947 20.423 0.829046 20.1165 1.33914 20.3208L6.18499 22.0068C6.69508 22.2111 7.00114 22.7731 6.7971 23.284C6.69508 23.7438 6.28701 23.9992 5.87894 23.9992Z" fill="url(#paint18_linear)"/>
<path d="M5.87894 23.9992C5.77692 23.9992 5.6749 23.9992 5.57288 23.9481L0.676019 22.2111C0.165928 22.0068 -0.140126 21.4448 0.0639105 20.9339C0.267947 20.423 0.829046 20.1165 1.33914 20.3208L6.18499 22.0068C6.69508 22.2111 7.00114 22.7731 6.7971 23.284C6.69508 23.7438 6.28701 23.9992 5.87894 23.9992Z" fill="url(#paint19_linear)"/>
<path d="M5.87894 23.9992C5.77692 23.9992 5.6749 23.9992 5.57288 23.9481L0.676019 22.2111C0.165928 22.0068 -0.140126 21.4448 0.0639105 20.9339C0.267947 20.423 0.829046 20.1165 1.33914 20.3208L6.18499 22.0068C6.69508 22.2111 7.00114 22.7731 6.7971 23.284C6.69508 23.7438 6.28701 23.9992 5.87894 23.9992Z" fill="url(#paint20_radial)"/>
<path d="M5.87894 23.9992C5.77692 23.9992 5.6749 23.9992 5.57288 23.9481L0.676019 22.2111C0.165928 22.0068 -0.140126 21.4448 0.0639105 20.9339C0.267947 20.423 0.829046 20.1165 1.33914 20.3208L6.18499 22.0068C6.69508 22.2111 7.00114 22.7731 6.7971 23.284C6.69508 23.7438 6.28701 23.9992 5.87894 23.9992Z" fill="url(#paint21_radial)"/>
<path d="M5.87894 23.9992C5.77692 23.9992 5.6749 23.9992 5.57288 23.9481L0.676019 22.2111C0.165928 22.0068 -0.140126 21.4448 0.0639105 20.9339C0.267947 20.423 0.829046 20.1165 1.33914 20.3208L6.18499 22.0068C6.69508 22.2111 7.00114 22.7731 6.7971 23.284C6.69508 23.7438 6.28701 23.9992 5.87894 23.9992Z" fill="url(#paint22_radial)"/>
<path d="M5.87894 23.9992C5.77692 23.9992 5.6749 23.9992 5.57288 23.9481L0.676019 22.2111C0.165928 22.0068 -0.140126 21.4448 0.0639105 20.9339C0.267947 20.423 0.829046 20.1165 1.33914 20.3208L6.18499 22.0068C6.69508 22.2111 7.00114 22.7731 6.7971 23.284C6.69508 23.7438 6.28701 23.9992 5.87894 23.9992Z" fill="url(#paint23_linear)"/>
<path d="M17.3564 17.205C14.4489 17.205 12.1025 14.7527 12.0005 11.6363L11.8984 7.19165C11.8984 6.73185 12.1535 6.37424 12.5616 6.22097L18.3256 4.17744C18.7847 4.02417 19.2437 4.17744 19.4988 4.58615L21.7942 8.2645C22.7634 9.79715 22.9674 11.6874 22.3553 13.4755C21.7942 15.1103 20.57 16.3365 18.9887 16.8984C18.5296 17.1539 17.9685 17.205 17.3564 17.205ZM13.9388 7.90689L14.0408 11.5852C14.0918 13.5777 15.5711 15.2125 17.4074 15.2125C17.7645 15.2125 18.0705 15.1614 18.4276 15.0592C19.3968 14.7016 20.1619 13.9353 20.519 12.8625C20.927 11.6874 20.774 10.4102 20.1619 9.38845L18.2746 6.37424L13.9388 7.90689Z" fill="#C2A6F1"/>
<path d="M17.3564 17.205C14.4489 17.205 12.1025 14.7527 12.0005 11.6363L11.8984 7.19165C11.8984 6.73185 12.1535 6.37424 12.5616 6.22097L18.3256 4.17744C18.7847 4.02417 19.2437 4.17744 19.4988 4.58615L21.7942 8.2645C22.7634 9.79715 22.9674 11.6874 22.3553 13.4755C21.7942 15.1103 20.57 16.3365 18.9887 16.8984C18.5296 17.1539 17.9685 17.205 17.3564 17.205ZM13.9388 7.90689L14.0408 11.5852C14.0918 13.5777 15.5711 15.2125 17.4074 15.2125C17.7645 15.2125 18.0705 15.1614 18.4276 15.0592C19.3968 14.7016 20.1619 13.9353 20.519 12.8625C20.927 11.6874 20.774 10.4102 20.1619 9.38845L18.2746 6.37424L13.9388 7.90689Z" fill="url(#paint24_radial)"/>
<path d="M17.3564 17.205C14.4489 17.205 12.1025 14.7527 12.0005 11.6363L11.8984 7.19165C11.8984 6.73185 12.1535 6.37424 12.5616 6.22097L18.3256 4.17744C18.7847 4.02417 19.2437 4.17744 19.4988 4.58615L21.7942 8.2645C22.7634 9.79715 22.9674 11.6874 22.3553 13.4755C21.7942 15.1103 20.57 16.3365 18.9887 16.8984C18.5296 17.1539 17.9685 17.205 17.3564 17.205ZM13.9388 7.90689L14.0408 11.5852C14.0918 13.5777 15.5711 15.2125 17.4074 15.2125C17.7645 15.2125 18.0705 15.1614 18.4276 15.0592C19.3968 14.7016 20.1619 13.9353 20.519 12.8625C20.927 11.6874 20.774 10.4102 20.1619 9.38845L18.2746 6.37424L13.9388 7.90689Z" fill="url(#paint25_linear)"/>
<path d="M17.3564 17.205C14.4489 17.205 12.1025 14.7527 12.0005 11.6363L11.8984 7.19165C11.8984 6.73185 12.1535 6.37424 12.5616 6.22097L18.3256 4.17744C18.7847 4.02417 19.2437 4.17744 19.4988 4.58615L21.7942 8.2645C22.7634 9.79715 22.9674 11.6874 22.3553 13.4755C21.7942 15.1103 20.57 16.3365 18.9887 16.8984C18.5296 17.1539 17.9685 17.205 17.3564 17.205ZM13.9388 7.90689L14.0408 11.5852C14.0918 13.5777 15.5711 15.2125 17.4074 15.2125C17.7645 15.2125 18.0705 15.1614 18.4276 15.0592C19.3968 14.7016 20.1619 13.9353 20.519 12.8625C20.927 11.6874 20.774 10.4102 20.1619 9.38845L18.2746 6.37424L13.9388 7.90689Z" fill="url(#paint26_linear)"/>
<path d="M17.3564 17.205C14.4489 17.205 12.1025 14.7527 12.0005 11.6363L11.8984 7.19165C11.8984 6.73185 12.1535 6.37424 12.5616 6.22097L18.3256 4.17744C18.7847 4.02417 19.2437 4.17744 19.4988 4.58615L21.7942 8.2645C22.7634 9.79715 22.9674 11.6874 22.3553 13.4755C21.7942 15.1103 20.57 16.3365 18.9887 16.8984C18.5296 17.1539 17.9685 17.205 17.3564 17.205ZM13.9388 7.90689L14.0408 11.5852C14.0918 13.5777 15.5711 15.2125 17.4074 15.2125C17.7645 15.2125 18.0705 15.1614 18.4276 15.0592C19.3968 14.7016 20.1619 13.9353 20.519 12.8625C20.927 11.6874 20.774 10.4102 20.1619 9.38845L18.2746 6.37424L13.9388 7.90689Z" fill="url(#paint27_linear)"/>
<path d="M17.3564 17.205C14.4489 17.205 12.1025 14.7527 12.0005 11.6363L11.8984 7.19165C11.8984 6.73185 12.1535 6.37424 12.5616 6.22097L18.3256 4.17744C18.7847 4.02417 19.2437 4.17744 19.4988 4.58615L21.7942 8.2645C22.7634 9.79715 22.9674 11.6874 22.3553 13.4755C21.7942 15.1103 20.57 16.3365 18.9887 16.8984C18.5296 17.1539 17.9685 17.205 17.3564 17.205ZM13.9388 7.90689L14.0408 11.5852C14.0918 13.5777 15.5711 15.2125 17.4074 15.2125C17.7645 15.2125 18.0705 15.1614 18.4276 15.0592C19.3968 14.7016 20.1619 13.9353 20.519 12.8625C20.927 11.6874 20.774 10.4102 20.1619 9.38845L18.2746 6.37424L13.9388 7.90689Z" fill="url(#paint28_radial)"/>
<path d="M17.3564 17.205C14.4489 17.205 12.1025 14.7527 12.0005 11.6363L11.8984 7.19165C11.8984 6.73185 12.1535 6.37424 12.5616 6.22097L18.3256 4.17744C18.7847 4.02417 19.2437 4.17744 19.4988 4.58615L21.7942 8.2645C22.7634 9.79715 22.9674 11.6874 22.3553 13.4755C21.7942 15.1103 20.57 16.3365 18.9887 16.8984C18.5296 17.1539 17.9685 17.205 17.3564 17.205ZM13.9388 7.90689L14.0408 11.5852C14.0918 13.5777 15.5711 15.2125 17.4074 15.2125C17.7645 15.2125 18.0705 15.1614 18.4276 15.0592C19.3968 14.7016 20.1619 13.9353 20.519 12.8625C20.927 11.6874 20.774 10.4102 20.1619 9.38845L18.2746 6.37424L13.9388 7.90689Z" fill="url(#paint29_radial)"/>
<path d="M17.3564 17.205C14.4489 17.205 12.1025 14.7527 12.0005 11.6363L11.8984 7.19165C11.8984 6.73185 12.1535 6.37424 12.5616 6.22097L18.3256 4.17744C18.7847 4.02417 19.2437 4.17744 19.4988 4.58615L21.7942 8.2645C22.7634 9.79715 22.9674 11.6874 22.3553 13.4755C21.7942 15.1103 20.57 16.3365 18.9887 16.8984C18.5296 17.1539 17.9685 17.205 17.3564 17.205ZM13.9388 7.90689L14.0408 11.5852C14.0918 13.5777 15.5711 15.2125 17.4074 15.2125C17.7645 15.2125 18.0705 15.1614 18.4276 15.0592C19.3968 14.7016 20.1619 13.9353 20.519 12.8625C20.927 11.6874 20.774 10.4102 20.1619 9.38845L18.2746 6.37424L13.9388 7.90689Z" fill="url(#paint30_radial)"/>
<path d="M17.3564 17.205C14.4489 17.205 12.1025 14.7527 12.0005 11.6363L11.8984 7.19165C11.8984 6.73185 12.1535 6.37424 12.5616 6.22097L18.3256 4.17744C18.7847 4.02417 19.2437 4.17744 19.4988 4.58615L21.7942 8.2645C22.7634 9.79715 22.9674 11.6874 22.3553 13.4755C21.7942 15.1103 20.57 16.3365 18.9887 16.8984C18.5296 17.1539 17.9685 17.205 17.3564 17.205ZM13.9388 7.90689L14.0408 11.5852C14.0918 13.5777 15.5711 15.2125 17.4074 15.2125C17.7645 15.2125 18.0705 15.1614 18.4276 15.0592C19.3968 14.7016 20.1619 13.9353 20.519 12.8625C20.927 11.6874 20.774 10.4102 20.1619 9.38845L18.2746 6.37424L13.9388 7.90689Z" fill="url(#paint31_linear)"/>
<path d="M20.5696 23.1311C20.1616 23.1311 19.7535 22.8756 19.6005 22.4158L17.7641 16.2852C17.6111 15.7744 17.9172 15.2124 18.4273 15.0591C18.9373 14.9059 19.4984 15.2124 19.6515 15.7233L21.4878 21.8539C21.6408 22.3647 21.3348 22.9267 20.8247 23.08C20.7227 23.1311 20.6717 23.1311 20.5696 23.1311Z" fill="#C2A6F1"/>
<path d="M20.5696 23.1311C20.1616 23.1311 19.7535 22.8756 19.6005 22.4158L17.7641 16.2852C17.6111 15.7744 17.9172 15.2124 18.4273 15.0591C18.9373 14.9059 19.4984 15.2124 19.6515 15.7233L21.4878 21.8539C21.6408 22.3647 21.3348 22.9267 20.8247 23.08C20.7227 23.1311 20.6717 23.1311 20.5696 23.1311Z" fill="url(#paint32_radial)"/>
<path d="M20.5696 23.1311C20.1616 23.1311 19.7535 22.8756 19.6005 22.4158L17.7641 16.2852C17.6111 15.7744 17.9172 15.2124 18.4273 15.0591C18.9373 14.9059 19.4984 15.2124 19.6515 15.7233L21.4878 21.8539C21.6408 22.3647 21.3348 22.9267 20.8247 23.08C20.7227 23.1311 20.6717 23.1311 20.5696 23.1311Z" fill="url(#paint33_linear)"/>
<path d="M20.5696 23.1311C20.1616 23.1311 19.7535 22.8756 19.6005 22.4158L17.7641 16.2852C17.6111 15.7744 17.9172 15.2124 18.4273 15.0591C18.9373 14.9059 19.4984 15.2124 19.6515 15.7233L21.4878 21.8539C21.6408 22.3647 21.3348 22.9267 20.8247 23.08C20.7227 23.1311 20.6717 23.1311 20.5696 23.1311Z" fill="url(#paint34_linear)"/>
<path d="M20.5696 23.1311C20.1616 23.1311 19.7535 22.8756 19.6005 22.4158L17.7641 16.2852C17.6111 15.7744 17.9172 15.2124 18.4273 15.0591C18.9373 14.9059 19.4984 15.2124 19.6515 15.7233L21.4878 21.8539C21.6408 22.3647 21.3348 22.9267 20.8247 23.08C20.7227 23.1311 20.6717 23.1311 20.5696 23.1311Z" fill="url(#paint35_linear)"/>
<path d="M20.5696 23.1311C20.1616 23.1311 19.7535 22.8756 19.6005 22.4158L17.7641 16.2852C17.6111 15.7744 17.9172 15.2124 18.4273 15.0591C18.9373 14.9059 19.4984 15.2124 19.6515 15.7233L21.4878 21.8539C21.6408 22.3647 21.3348 22.9267 20.8247 23.08C20.7227 23.1311 20.6717 23.1311 20.5696 23.1311Z" fill="url(#paint36_radial)"/>
<path d="M20.5696 23.1311C20.1616 23.1311 19.7535 22.8756 19.6005 22.4158L17.7641 16.2852C17.6111 15.7744 17.9172 15.2124 18.4273 15.0591C18.9373 14.9059 19.4984 15.2124 19.6515 15.7233L21.4878 21.8539C21.6408 22.3647 21.3348 22.9267 20.8247 23.08C20.7227 23.1311 20.6717 23.1311 20.5696 23.1311Z" fill="url(#paint37_radial)"/>
<path d="M20.5696 23.1311C20.1616 23.1311 19.7535 22.8756 19.6005 22.4158L17.7641 16.2852C17.6111 15.7744 17.9172 15.2124 18.4273 15.0591C18.9373 14.9059 19.4984 15.2124 19.6515 15.7233L21.4878 21.8539C21.6408 22.3647 21.3348 22.9267 20.8247 23.08C20.7227 23.1311 20.6717 23.1311 20.5696 23.1311Z" fill="url(#paint38_radial)"/>
<path d="M20.5696 23.1311C20.1616 23.1311 19.7535 22.8756 19.6005 22.4158L17.7641 16.2852C17.6111 15.7744 17.9172 15.2124 18.4273 15.0591C18.9373 14.9059 19.4984 15.2124 19.6515 15.7233L21.4878 21.8539C21.6408 22.3647 21.3348 22.9267 20.8247 23.08C20.7227 23.1311 20.6717 23.1311 20.5696 23.1311Z" fill="url(#paint39_linear)"/>
<path d="M18.1207 23.9999C17.7127 23.9999 17.3046 23.7444 17.2026 23.3357C16.9985 22.8248 17.3046 22.2629 17.8147 22.0585L22.6606 20.3726C23.1706 20.1683 23.7317 20.4748 23.9358 20.9857C24.1398 21.4965 23.8338 22.0585 23.3237 22.2629L18.4778 23.9488C18.3248 23.9999 18.2228 23.9999 18.1207 23.9999Z" fill="#C2A6F1"/>
<path d="M18.1207 23.9999C17.7127 23.9999 17.3046 23.7444 17.2026 23.3357C16.9985 22.8248 17.3046 22.2629 17.8147 22.0585L22.6606 20.3726C23.1706 20.1683 23.7317 20.4748 23.9358 20.9857C24.1398 21.4965 23.8338 22.0585 23.3237 22.2629L18.4778 23.9488C18.3248 23.9999 18.2228 23.9999 18.1207 23.9999Z" fill="url(#paint40_radial)"/>
<path d="M18.1207 23.9999C17.7127 23.9999 17.3046 23.7444 17.2026 23.3357C16.9985 22.8248 17.3046 22.2629 17.8147 22.0585L22.6606 20.3726C23.1706 20.1683 23.7317 20.4748 23.9358 20.9857C24.1398 21.4965 23.8338 22.0585 23.3237 22.2629L18.4778 23.9488C18.3248 23.9999 18.2228 23.9999 18.1207 23.9999Z" fill="url(#paint41_linear)"/>
<path d="M18.1207 23.9999C17.7127 23.9999 17.3046 23.7444 17.2026 23.3357C16.9985 22.8248 17.3046 22.2629 17.8147 22.0585L22.6606 20.3726C23.1706 20.1683 23.7317 20.4748 23.9358 20.9857C24.1398 21.4965 23.8338 22.0585 23.3237 22.2629L18.4778 23.9488C18.3248 23.9999 18.2228 23.9999 18.1207 23.9999Z" fill="url(#paint42_linear)"/>
<path d="M18.1207 23.9999C17.7127 23.9999 17.3046 23.7444 17.2026 23.3357C16.9985 22.8248 17.3046 22.2629 17.8147 22.0585L22.6606 20.3726C23.1706 20.1683 23.7317 20.4748 23.9358 20.9857C24.1398 21.4965 23.8338 22.0585 23.3237 22.2629L18.4778 23.9488C18.3248 23.9999 18.2228 23.9999 18.1207 23.9999Z" fill="url(#paint43_linear)"/>
<path d="M18.1207 23.9999C17.7127 23.9999 17.3046 23.7444 17.2026 23.3357C16.9985 22.8248 17.3046 22.2629 17.8147 22.0585L22.6606 20.3726C23.1706 20.1683 23.7317 20.4748 23.9358 20.9857C24.1398 21.4965 23.8338 22.0585 23.3237 22.2629L18.4778 23.9488C18.3248 23.9999 18.2228 23.9999 18.1207 23.9999Z" fill="url(#paint44_radial)"/>
<path d="M18.1207 23.9999C17.7127 23.9999 17.3046 23.7444 17.2026 23.3357C16.9985 22.8248 17.3046 22.2629 17.8147 22.0585L22.6606 20.3726C23.1706 20.1683 23.7317 20.4748 23.9358 20.9857C24.1398 21.4965 23.8338 22.0585 23.3237 22.2629L18.4778 23.9488C18.3248 23.9999 18.2228 23.9999 18.1207 23.9999Z" fill="url(#paint45_radial)"/>
<path d="M18.1207 23.9999C17.7127 23.9999 17.3046 23.7444 17.2026 23.3357C16.9985 22.8248 17.3046 22.2629 17.8147 22.0585L22.6606 20.3726C23.1706 20.1683 23.7317 20.4748 23.9358 20.9857C24.1398 21.4965 23.8338 22.0585 23.3237 22.2629L18.4778 23.9488C18.3248 23.9999 18.2228 23.9999 18.1207 23.9999Z" fill="url(#paint46_radial)"/>
<path d="M18.1207 23.9999C17.7127 23.9999 17.3046 23.7444 17.2026 23.3357C16.9985 22.8248 17.3046 22.2629 17.8147 22.0585L22.6606 20.3726C23.1706 20.1683 23.7317 20.4748 23.9358 20.9857C24.1398 21.4965 23.8338 22.0585 23.3237 22.2629L18.4778 23.9488C18.3248 23.9999 18.2228 23.9999 18.1207 23.9999Z" fill="url(#paint47_linear)"/>
<path d="M10.5199 4.53536C10.1119 4.53536 9.70378 4.27992 9.55076 3.82012L8.78562 1.26571C8.63259 0.754825 8.93865 0.192854 9.44874 0.0395895C9.95883 -0.113675 10.5199 0.192854 10.673 0.703737L11.4381 3.25815C11.5911 3.76903 11.2851 4.33101 10.775 4.48427C10.673 4.53536 10.6219 4.53536 10.5199 4.53536Z" fill="#C2A6F1"/>
<path d="M10.5199 4.53536C10.1119 4.53536 9.70378 4.27992 9.55076 3.82012L8.78562 1.26571C8.63259 0.754825 8.93865 0.192854 9.44874 0.0395895C9.95883 -0.113675 10.5199 0.192854 10.673 0.703737L11.4381 3.25815C11.5911 3.76903 11.2851 4.33101 10.775 4.48427C10.673 4.53536 10.6219 4.53536 10.5199 4.53536Z" fill="url(#paint48_radial)"/>
<path d="M10.5199 4.53536C10.1119 4.53536 9.70378 4.27992 9.55076 3.82012L8.78562 1.26571C8.63259 0.754825 8.93865 0.192854 9.44874 0.0395895C9.95883 -0.113675 10.5199 0.192854 10.673 0.703737L11.4381 3.25815C11.5911 3.76903 11.2851 4.33101 10.775 4.48427C10.673 4.53536 10.6219 4.53536 10.5199 4.53536Z" fill="url(#paint49_linear)"/>
<path d="M10.5199 4.53536C10.1119 4.53536 9.70378 4.27992 9.55076 3.82012L8.78562 1.26571C8.63259 0.754825 8.93865 0.192854 9.44874 0.0395895C9.95883 -0.113675 10.5199 0.192854 10.673 0.703737L11.4381 3.25815C11.5911 3.76903 11.2851 4.33101 10.775 4.48427C10.673 4.53536 10.6219 4.53536 10.5199 4.53536Z" fill="url(#paint50_linear)"/>
<path d="M10.5199 4.53536C10.1119 4.53536 9.70378 4.27992 9.55076 3.82012L8.78562 1.26571C8.63259 0.754825 8.93865 0.192854 9.44874 0.0395895C9.95883 -0.113675 10.5199 0.192854 10.673 0.703737L11.4381 3.25815C11.5911 3.76903 11.2851 4.33101 10.775 4.48427C10.673 4.53536 10.6219 4.53536 10.5199 4.53536Z" fill="url(#paint51_linear)"/>
<path d="M10.5199 4.53536C10.1119 4.53536 9.70378 4.27992 9.55076 3.82012L8.78562 1.26571C8.63259 0.754825 8.93865 0.192854 9.44874 0.0395895C9.95883 -0.113675 10.5199 0.192854 10.673 0.703737L11.4381 3.25815C11.5911 3.76903 11.2851 4.33101 10.775 4.48427C10.673 4.53536 10.6219 4.53536 10.5199 4.53536Z" fill="url(#paint52_radial)"/>
<path d="M10.5199 4.53536C10.1119 4.53536 9.70378 4.27992 9.55076 3.82012L8.78562 1.26571C8.63259 0.754825 8.93865 0.192854 9.44874 0.0395895C9.95883 -0.113675 10.5199 0.192854 10.673 0.703737L11.4381 3.25815C11.5911 3.76903 11.2851 4.33101 10.775 4.48427C10.673 4.53536 10.6219 4.53536 10.5199 4.53536Z" fill="url(#paint53_radial)"/>
<path d="M10.5199 4.53536C10.1119 4.53536 9.70378 4.27992 9.55076 3.82012L8.78562 1.26571C8.63259 0.754825 8.93865 0.192854 9.44874 0.0395895C9.95883 -0.113675 10.5199 0.192854 10.673 0.703737L11.4381 3.25815C11.5911 3.76903 11.2851 4.33101 10.775 4.48427C10.673 4.53536 10.6219 4.53536 10.5199 4.53536Z" fill="url(#paint54_radial)"/>
<path d="M10.5199 4.53536C10.1119 4.53536 9.70378 4.27992 9.55076 3.82012L8.78562 1.26571C8.63259 0.754825 8.93865 0.192854 9.44874 0.0395895C9.95883 -0.113675 10.5199 0.192854 10.673 0.703737L11.4381 3.25815C11.5911 3.76903 11.2851 4.33101 10.775 4.48427C10.673 4.53536 10.6219 4.53536 10.5199 4.53536Z" fill="url(#paint55_linear)"/>
<path d="M13.4794 4.53536C13.3774 4.53536 13.2754 4.53536 13.1733 4.48427C12.6633 4.33101 12.3572 3.76903 12.5102 3.25815L13.2754 0.703737C13.4284 0.192854 13.9895 -0.113675 14.4996 0.0395895C15.0097 0.192854 15.3157 0.754825 15.1627 1.26571L14.3976 3.82012C14.2955 4.27992 13.9385 4.53536 13.4794 4.53536Z" fill="#C2A6F1"/>
<path d="M13.4794 4.53536C13.3774 4.53536 13.2754 4.53536 13.1733 4.48427C12.6633 4.33101 12.3572 3.76903 12.5102 3.25815L13.2754 0.703737C13.4284 0.192854 13.9895 -0.113675 14.4996 0.0395895C15.0097 0.192854 15.3157 0.754825 15.1627 1.26571L14.3976 3.82012C14.2955 4.27992 13.9385 4.53536 13.4794 4.53536Z" fill="url(#paint56_radial)"/>
<path d="M13.4794 4.53536C13.3774 4.53536 13.2754 4.53536 13.1733 4.48427C12.6633 4.33101 12.3572 3.76903 12.5102 3.25815L13.2754 0.703737C13.4284 0.192854 13.9895 -0.113675 14.4996 0.0395895C15.0097 0.192854 15.3157 0.754825 15.1627 1.26571L14.3976 3.82012C14.2955 4.27992 13.9385 4.53536 13.4794 4.53536Z" fill="url(#paint57_linear)"/>
<path d="M13.4794 4.53536C13.3774 4.53536 13.2754 4.53536 13.1733 4.48427C12.6633 4.33101 12.3572 3.76903 12.5102 3.25815L13.2754 0.703737C13.4284 0.192854 13.9895 -0.113675 14.4996 0.0395895C15.0097 0.192854 15.3157 0.754825 15.1627 1.26571L14.3976 3.82012C14.2955 4.27992 13.9385 4.53536 13.4794 4.53536Z" fill="url(#paint58_linear)"/>
<path d="M13.4794 4.53536C13.3774 4.53536 13.2754 4.53536 13.1733 4.48427C12.6633 4.33101 12.3572 3.76903 12.5102 3.25815L13.2754 0.703737C13.4284 0.192854 13.9895 -0.113675 14.4996 0.0395895C15.0097 0.192854 15.3157 0.754825 15.1627 1.26571L14.3976 3.82012C14.2955 4.27992 13.9385 4.53536 13.4794 4.53536Z" fill="url(#paint59_linear)"/>
<path d="M13.4794 4.53536C13.3774 4.53536 13.2754 4.53536 13.1733 4.48427C12.6633 4.33101 12.3572 3.76903 12.5102 3.25815L13.2754 0.703737C13.4284 0.192854 13.9895 -0.113675 14.4996 0.0395895C15.0097 0.192854 15.3157 0.754825 15.1627 1.26571L14.3976 3.82012C14.2955 4.27992 13.9385 4.53536 13.4794 4.53536Z" fill="url(#paint60_radial)"/>
<path d="M13.4794 4.53536C13.3774 4.53536 13.2754 4.53536 13.1733 4.48427C12.6633 4.33101 12.3572 3.76903 12.5102 3.25815L13.2754 0.703737C13.4284 0.192854 13.9895 -0.113675 14.4996 0.0395895C15.0097 0.192854 15.3157 0.754825 15.1627 1.26571L14.3976 3.82012C14.2955 4.27992 13.9385 4.53536 13.4794 4.53536Z" fill="url(#paint61_radial)"/>
<path d="M13.4794 4.53536C13.3774 4.53536 13.2754 4.53536 13.1733 4.48427C12.6633 4.33101 12.3572 3.76903 12.5102 3.25815L13.2754 0.703737C13.4284 0.192854 13.9895 -0.113675 14.4996 0.0395895C15.0097 0.192854 15.3157 0.754825 15.1627 1.26571L14.3976 3.82012C14.2955 4.27992 13.9385 4.53536 13.4794 4.53536Z" fill="url(#paint62_radial)"/>
<path d="M13.4794 4.53536C13.3774 4.53536 13.2754 4.53536 13.1733 4.48427C12.6633 4.33101 12.3572 3.76903 12.5102 3.25815L13.2754 0.703737C13.4284 0.192854 13.9895 -0.113675 14.4996 0.0395895C15.0097 0.192854 15.3157 0.754825 15.1627 1.26571L14.3976 3.82012C14.2955 4.27992 13.9385 4.53536 13.4794 4.53536Z" fill="url(#paint63_linear)"/>
<defs>
<radialGradient id="paint0_radial" cx="0" cy="0" r="1" gradientUnits="userSpaceOnUse" gradientTransform="translate(11.0506 9.37311) rotate(103.068) scale(13.0808 5.05218)">
<stop stop-color="#FFFDB1"/>
<stop offset="0.344597" stop-color="#FEE4BF"/>
<stop offset="0.695017" stop-color="#F0BDD0"/>
<stop offset="1" stop-color="#FF8126" stop-opacity="0"/>
</radialGradient>
<linearGradient id="paint1_linear" x1="7.38406" y1="3.2353" x2="10.3153" y2="5.16259" gradientUnits="userSpaceOnUse">
<stop stop-color="#C0A9F0" stop-opacity="0"/>
<stop offset="0.456382" stop-color="#C0A9F0"/>
<stop offset="1" stop-color="#C0A9F0" stop-opacity="0"/>
</linearGradient>
<linearGradient id="paint2_linear" x1="12.8198" y1="1.05023" x2="9.03159" y2="5.28552" gradientUnits="userSpaceOnUse">
<stop stop-color="#C0A9F0" stop-opacity="0"/>
<stop offset="0.461891" stop-color="#C0A9F0"/>
<stop offset="1" stop-color="#C0A9F0" stop-opacity="0"/>
</linearGradient>
<linearGradient id="paint3_linear" x1="3.99434" y1="6.18145" x2="7.50505" y2="9.03895" gradientUnits="userSpaceOnUse">
<stop stop-color="#CDF9E8"/>
<stop offset="1" stop-color="#CDF9E8" stop-opacity="0"/>
</linearGradient>
<radialGradient id="paint4_radial" cx="0" cy="0" r="1" gradientUnits="userSpaceOnUse" gradientTransform="translate(6.16862 9.96234) rotate(-113.132) scale(3.88452 6.79415)">
<stop stop-color="#CBADEB"/>
<stop offset="1" stop-color="#C2A6F1" stop-opacity="0"/>
</radialGradient>
<radialGradient id="paint5_radial" cx="0" cy="0" r="1" gradientUnits="userSpaceOnUse" gradientTransform="translate(5.12199 17.205) rotate(-120.124) scale(5.43568 6.67947)">
<stop stop-color="#DC8DDC"/>
<stop offset="1" stop-color="#DC8DDC" stop-opacity="0"/>
</radialGradient>
<radialGradient id="paint6_radial" cx="0" cy="0" r="1" gradientUnits="userSpaceOnUse" gradientTransform="translate(6.02682 15.4986) rotate(-131.006) scale(4.53843 8.52903)">
<stop stop-color="#DC8DDC"/>
<stop offset="1" stop-color="#DC8DDC" stop-opacity="0"/>
</radialGradient>
<linearGradient id="paint7_linear" x1="1.24609" y1="4.11914" x2="3.7903" y2="5.50163" gradientUnits="userSpaceOnUse">
<stop stop-color="#EBF3D0"/>
<stop offset="1" stop-color="#EBF3D0" stop-opacity="0"/>
</linearGradient>
<radialGradient id="paint8_radial" cx="0" cy="0" r="1" gradientUnits="userSpaceOnUse" gradientTransform="translate(5.87284 18.2763) rotate(97.5081) scale(7.96678 1.80987)">
<stop stop-color="#FFFDB1"/>
<stop offset="0.344597" stop-color="#FEE4BF"/>
<stop offset="0.695017" stop-color="#F0BDD0"/>
<stop offset="1" stop-color="#FF8126" stop-opacity="0"/>
</radialGradient>
<linearGradient id="paint9_linear" x1="4.58229" y1="14.4717" x2="5.87926" y2="14.9559" gradientUnits="userSpaceOnUse">
<stop stop-color="#C0A9F0" stop-opacity="0"/>
<stop offset="0.456382" stop-color="#C0A9F0"/>
<stop offset="1" stop-color="#C0A9F0" stop-opacity="0"/>
</linearGradient>
<linearGradient id="paint10_linear" x1="6.49553" y1="13.1172" x2="4.35728" y2="14.4746" gradientUnits="userSpaceOnUse">
<stop stop-color="#C0A9F0" stop-opacity="0"/>
<stop offset="0.461891" stop-color="#C0A9F0"/>
<stop offset="1" stop-color="#C0A9F0" stop-opacity="0"/>
</linearGradient>
<linearGradient id="paint11_linear" x1="3.38919" y1="16.2979" x2="5.08194" y2="17.0802" gradientUnits="userSpaceOnUse">
<stop stop-color="#CDF9E8"/>
<stop offset="1" stop-color="#CDF9E8" stop-opacity="0"/>
</linearGradient>
<radialGradient id="paint12_radial" cx="0" cy="0" r="1" gradientUnits="userSpaceOnUse" gradientTransform="translate(4.15449 18.6416) rotate(-103.635) scale(2.27853 2.52716)">
<stop stop-color="#CBADEB"/>
<stop offset="1" stop-color="#C2A6F1" stop-opacity="0"/>
</radialGradient>
<radialGradient id="paint13_radial" cx="0" cy="0" r="1" gradientUnits="userSpaceOnUse" gradientTransform="translate(3.7861 23.1311) rotate(-108.235) scale(3.06847 2.5816)">
<stop stop-color="#DC8DDC"/>
<stop offset="1" stop-color="#DC8DDC" stop-opacity="0"/>
</radialGradient>
<radialGradient id="paint14_radial" cx="0" cy="0" r="1" gradientUnits="userSpaceOnUse" gradientTransform="translate(4.10458 22.0734) rotate(-116.275) scale(2.36764 3.56703)">
<stop stop-color="#DC8DDC"/>
<stop offset="1" stop-color="#DC8DDC" stop-opacity="0"/>
</radialGradient>
<linearGradient id="paint15_linear" x1="2.42188" y1="15.0195" x2="3.48096" y2="15.3463" gradientUnits="userSpaceOnUse">
<stop stop-color="#EBF3D0"/>
<stop offset="1" stop-color="#EBF3D0" stop-opacity="0"/>
</linearGradient>
<radialGradient id="paint16_radial" cx="0" cy="0" r="1" gradientUnits="userSpaceOnUse" gradientTransform="translate(6.22637 21.7594) rotate(117.267) scale(4.09962 2.92768)">
<stop stop-color="#FFFDB1"/>
<stop offset="0.344597" stop-color="#FEE4BF"/>
<stop offset="0.695017" stop-color="#F0BDD0"/>
<stop offset="1" stop-color="#FF8126" stop-opacity="0"/>
</radialGradient>
<linearGradient id="paint17_linear" x1="3.89791" y1="20.0041" x2="4.74928" y2="21.2471" gradientUnits="userSpaceOnUse">
<stop stop-color="#C0A9F0" stop-opacity="0"/>
<stop offset="0.456382" stop-color="#C0A9F0"/>
<stop offset="1" stop-color="#C0A9F0" stop-opacity="0"/>
</linearGradient>
<linearGradient id="paint18_linear" x1="7.34986" y1="19.3792" x2="6.59426" y2="21.2551" gradientUnits="userSpaceOnUse">
<stop stop-color="#C0A9F0" stop-opacity="0"/>
<stop offset="0.461891" stop-color="#C0A9F0"/>
<stop offset="1" stop-color="#C0A9F0" stop-opacity="0"/>
</linearGradient>
<linearGradient id="paint19_linear" x1="1.74527" y1="20.8466" x2="2.61397" y2="22.4167" gradientUnits="userSpaceOnUse">
<stop stop-color="#CDF9E8"/>
<stop offset="1" stop-color="#CDF9E8" stop-opacity="0"/>
</linearGradient>
<radialGradient id="paint20_radial" cx="0" cy="0" r="1" gradientUnits="userSpaceOnUse" gradientTransform="translate(3.12605 21.9279) rotate(-133.49) scale(1.40814 3.40392)">
<stop stop-color="#CBADEB"/>
<stop offset="1" stop-color="#C2A6F1" stop-opacity="0"/>
</radialGradient>
<radialGradient id="paint21_radial" cx="0" cy="0" r="1" gradientUnits="userSpaceOnUse" gradientTransform="translate(2.46139 23.9992) rotate(-142.184) scale(2.19297 3.00688)">
<stop stop-color="#DC8DDC"/>
<stop offset="1" stop-color="#DC8DDC" stop-opacity="0"/>
</radialGradient>
<radialGradient id="paint22_radial" cx="0" cy="0" r="1" gradientUnits="userSpaceOnUse" gradientTransform="translate(3.036 23.5112) rotate(-152.618) scale(2.12967 3.301)">
<stop stop-color="#DC8DDC"/>
<stop offset="1" stop-color="#DC8DDC" stop-opacity="0"/>
</radialGradient>
<linearGradient id="paint23_linear" x1="0" y1="20.2568" x2="0.852123" y2="21.285" gradientUnits="userSpaceOnUse">
<stop stop-color="#EBF3D0"/>
<stop offset="1" stop-color="#EBF3D0" stop-opacity="0"/>
</linearGradient>
<radialGradient id="paint24_radial" cx="0" cy="0" r="1" gradientUnits="userSpaceOnUse" gradientTransform="translate(21.703 9.37311) rotate(103.068) scale(13.0808 5.05218)">
<stop stop-color="#FFFDB1"/>
<stop offset="0.344597" stop-color="#FEE4BF"/>
<stop offset="0.695017" stop-color="#F0BDD0"/>
<stop offset="1" stop-color="#FF8126" stop-opacity="0"/>
</radialGradient>
<linearGradient id="paint25_linear" x1="18.0364" y1="3.2353" x2="20.9676" y2="5.16259" gradientUnits="userSpaceOnUse">
<stop stop-color="#C0A9F0" stop-opacity="0"/>
<stop offset="0.456382" stop-color="#C0A9F0"/>
<stop offset="1" stop-color="#C0A9F0" stop-opacity="0"/>
</linearGradient>
<linearGradient id="paint26_linear" x1="23.4721" y1="1.05023" x2="19.6839" y2="5.28552" gradientUnits="userSpaceOnUse">
<stop stop-color="#C0A9F0" stop-opacity="0"/>
<stop offset="0.461891" stop-color="#C0A9F0"/>
<stop offset="1" stop-color="#C0A9F0" stop-opacity="0"/>
</linearGradient>
<linearGradient id="paint27_linear" x1="14.6467" y1="6.18145" x2="18.1574" y2="9.03895" gradientUnits="userSpaceOnUse">
<stop stop-color="#CDF9E8"/>
<stop offset="1" stop-color="#CDF9E8" stop-opacity="0"/>
</linearGradient>
<radialGradient id="paint28_radial" cx="0" cy="0" r="1" gradientUnits="userSpaceOnUse" gradientTransform="translate(16.821 9.96234) rotate(-113.132) scale(3.88452 6.79415)">
<stop stop-color="#CBADEB"/>
<stop offset="1" stop-color="#C2A6F1" stop-opacity="0"/>
</radialGradient>
<radialGradient id="paint29_radial" cx="0" cy="0" r="1" gradientUnits="userSpaceOnUse" gradientTransform="translate(15.7743 17.205) rotate(-120.124) scale(5.43568 6.67948)">
<stop stop-color="#DC8DDC"/>
<stop offset="1" stop-color="#DC8DDC" stop-opacity="0"/>
</radialGradient>
<radialGradient id="paint30_radial" cx="0" cy="0" r="1" gradientUnits="userSpaceOnUse" gradientTransform="translate(16.6792 15.4986) rotate(-131.006) scale(4.53843 8.52903)">
<stop stop-color="#DC8DDC"/>
<stop offset="1" stop-color="#DC8DDC" stop-opacity="0"/>
</radialGradient>
<linearGradient id="paint31_linear" x1="11.8984" y1="4.11914" x2="14.4426" y2="5.50163" gradientUnits="userSpaceOnUse">
<stop stop-color="#EBF3D0"/>
<stop offset="1" stop-color="#EBF3D0" stop-opacity="0"/>
</linearGradient>
<radialGradient id="paint32_radial" cx="0" cy="0" r="1" gradientUnits="userSpaceOnUse" gradientTransform="translate(21.1756 18.2763) rotate(97.5081) scale(7.96678 1.80987)">
<stop stop-color="#FFFDB1"/>
<stop offset="0.344597" stop-color="#FEE4BF"/>
<stop offset="0.695017" stop-color="#F0BDD0"/>
<stop offset="1" stop-color="#FF8126" stop-opacity="0"/>
</radialGradient>
<linearGradient id="paint33_linear" x1="19.885" y1="14.4717" x2="21.182" y2="14.9559" gradientUnits="userSpaceOnUse">
<stop stop-color="#C0A9F0" stop-opacity="0"/>
<stop offset="0.456382" stop-color="#C0A9F0"/>
<stop offset="1" stop-color="#C0A9F0" stop-opacity="0"/>
</linearGradient>
<linearGradient id="paint34_linear" x1="21.7983" y1="13.1172" x2="19.66" y2="14.4746" gradientUnits="userSpaceOnUse">
<stop stop-color="#C0A9F0" stop-opacity="0"/>
<stop offset="0.461891" stop-color="#C0A9F0"/>
<stop offset="1" stop-color="#C0A9F0" stop-opacity="0"/>
</linearGradient>
<linearGradient id="paint35_linear" x1="18.6919" y1="16.2979" x2="20.3847" y2="17.0802" gradientUnits="userSpaceOnUse">
<stop stop-color="#CDF9E8"/>
<stop offset="1" stop-color="#CDF9E8" stop-opacity="0"/>
</linearGradient>
<radialGradient id="paint36_radial" cx="0" cy="0" r="1" gradientUnits="userSpaceOnUse" gradientTransform="translate(19.4572 18.6416) rotate(-103.635) scale(2.27853 2.52717)">
<stop stop-color="#CBADEB"/>
<stop offset="1" stop-color="#C2A6F1" stop-opacity="0"/>
</radialGradient>
<radialGradient id="paint37_radial" cx="0" cy="0" r="1" gradientUnits="userSpaceOnUse" gradientTransform="translate(19.0888 23.1311) rotate(-108.235) scale(3.06847 2.58161)">
<stop stop-color="#DC8DDC"/>
<stop offset="1" stop-color="#DC8DDC" stop-opacity="0"/>
</radialGradient>
<radialGradient id="paint38_radial" cx="0" cy="0" r="1" gradientUnits="userSpaceOnUse" gradientTransform="translate(19.4073 22.0734) rotate(-116.275) scale(2.36764 3.56703)">
<stop stop-color="#DC8DDC"/>
<stop offset="1" stop-color="#DC8DDC" stop-opacity="0"/>
</radialGradient>
<linearGradient id="paint39_linear" x1="17.7246" y1="15.0195" x2="18.7837" y2="15.3463" gradientUnits="userSpaceOnUse">
<stop stop-color="#EBF3D0"/>
<stop offset="1" stop-color="#EBF3D0" stop-opacity="0"/>
</linearGradient>
<radialGradient id="paint40_radial" cx="0" cy="0" r="1" gradientUnits="userSpaceOnUse" gradientTransform="translate(23.365 21.7906) rotate(117.589) scale(4.05547 2.91916)">
<stop stop-color="#FFFDB1"/>
<stop offset="0.344597" stop-color="#FEE4BF"/>
<stop offset="0.695017" stop-color="#F0BDD0"/>
<stop offset="1" stop-color="#FF8126" stop-opacity="0"/>
</radialGradient>
<linearGradient id="paint41_linear" x1="21.0366" y1="20.0593" x2="21.8721" y2="21.296" gradientUnits="userSpaceOnUse">
<stop stop-color="#C0A9F0" stop-opacity="0"/>
<stop offset="0.456382" stop-color="#C0A9F0"/>
<stop offset="1" stop-color="#C0A9F0" stop-opacity="0"/>
</linearGradient>
<linearGradient id="paint42_linear" x1="24.4885" y1="19.4429" x2="23.7506" y2="21.3002" gradientUnits="userSpaceOnUse">
<stop stop-color="#C0A9F0" stop-opacity="0"/>
<stop offset="0.461891" stop-color="#C0A9F0"/>
<stop offset="1" stop-color="#C0A9F0" stop-opacity="0"/>
</linearGradient>
<linearGradient id="paint43_linear" x1="18.8839" y1="20.8903" x2="19.7345" y2="22.4489" gradientUnits="userSpaceOnUse">
<stop stop-color="#CDF9E8"/>
<stop offset="1" stop-color="#CDF9E8" stop-opacity="0"/>
</linearGradient>
<radialGradient id="paint44_radial" cx="0" cy="0" r="1" gradientUnits="userSpaceOnUse" gradientTransform="translate(20.2647 21.9569) rotate(-133.883) scale(1.39806 3.38167)">
<stop stop-color="#CBADEB"/>
<stop offset="1" stop-color="#C2A6F1" stop-opacity="0"/>
</radialGradient>
<radialGradient id="paint45_radial" cx="0" cy="0" r="1" gradientUnits="userSpaceOnUse" gradientTransform="translate(19.6001 23.9999) rotate(-142.564) scale(2.18177 2.98107)">
<stop stop-color="#DC8DDC"/>
<stop offset="1" stop-color="#DC8DDC" stop-opacity="0"/>
</radialGradient>
<radialGradient id="paint46_radial" cx="0" cy="0" r="1" gradientUnits="userSpaceOnUse" gradientTransform="translate(20.1747 23.5186) rotate(-152.939) scale(2.12356 3.26532)">
<stop stop-color="#DC8DDC"/>
<stop offset="1" stop-color="#DC8DDC" stop-opacity="0"/>
</radialGradient>
<linearGradient id="paint47_linear" x1="17.1387" y1="20.3086" x2="17.9769" y2="21.3341" gradientUnits="userSpaceOnUse">
<stop stop-color="#EBF3D0"/>
<stop offset="1" stop-color="#EBF3D0" stop-opacity="0"/>
</linearGradient>
<radialGradient id="paint48_radial" cx="0" cy="0" r="1" gradientUnits="userSpaceOnUse" gradientTransform="translate(11.225 1.82095) rotate(99.6102) scale(4.47909 1.29289)">
<stop stop-color="#FFFDB1"/>
<stop offset="0.344597" stop-color="#FEE4BF"/>
<stop offset="0.695017" stop-color="#F0BDD0"/>
<stop offset="1" stop-color="#FF8126" stop-opacity="0"/>
</radialGradient>
<linearGradient id="paint49_linear" x1="10.2979" y1="-0.306328" x2="11.1609" y2="0.107577" gradientUnits="userSpaceOnUse">
<stop stop-color="#C0A9F0" stop-opacity="0"/>
<stop offset="0.456382" stop-color="#C0A9F0"/>
<stop offset="1" stop-color="#C0A9F0" stop-opacity="0"/>
</linearGradient>
<linearGradient id="paint50_linear" x1="11.6722" y1="-1.06364" x2="10.3781" y2="-0.00818024" gradientUnits="userSpaceOnUse">
<stop stop-color="#C0A9F0" stop-opacity="0"/>
<stop offset="0.461891" stop-color="#C0A9F0"/>
<stop offset="1" stop-color="#C0A9F0" stop-opacity="0"/>
</linearGradient>
<linearGradient id="paint51_linear" x1="9.44093" y1="0.714766" x2="10.5319" y2="1.36256" gradientUnits="userSpaceOnUse">
<stop stop-color="#CDF9E8"/>
<stop offset="1" stop-color="#CDF9E8" stop-opacity="0"/>
</linearGradient>
<radialGradient id="paint52_radial" cx="0" cy="0" r="1" gradientUnits="userSpaceOnUse" gradientTransform="translate(9.99064 2.02517) rotate(-107.309) scale(1.2968 1.78334)">
<stop stop-color="#CBADEB"/>
<stop offset="1" stop-color="#C2A6F1" stop-opacity="0"/>
</radialGradient>
<radialGradient id="paint53_radial" cx="0" cy="0" r="1" gradientUnits="userSpaceOnUse" gradientTransform="translate(9.72603 4.53536) rotate(-112.941) scale(1.76945 1.79801)">
<stop stop-color="#DC8DDC"/>
<stop offset="1" stop-color="#DC8DDC" stop-opacity="0"/>
</radialGradient>
<radialGradient id="paint54_radial" cx="0" cy="0" r="1" gradientUnits="userSpaceOnUse" gradientTransform="translate(9.95479 3.94398) rotate(-122.385) scale(1.40565 2.41304)">
<stop stop-color="#DC8DDC"/>
<stop offset="1" stop-color="#DC8DDC" stop-opacity="0"/>
</radialGradient>
<linearGradient id="paint55_linear" x1="8.74609" y1="0" x2="9.46613" y2="0.285417" gradientUnits="userSpaceOnUse">
<stop stop-color="#EBF3D0"/>
<stop offset="1" stop-color="#EBF3D0" stop-opacity="0"/>
</linearGradient>
<radialGradient id="paint56_radial" cx="0" cy="0" r="1" gradientUnits="userSpaceOnUse" gradientTransform="translate(14.9496 1.82095) rotate(99.6102) scale(4.47909 1.29289)">
<stop stop-color="#FFFDB1"/>
<stop offset="0.344597" stop-color="#FEE4BF"/>
<stop offset="0.695017" stop-color="#F0BDD0"/>
<stop offset="1" stop-color="#FF8126" stop-opacity="0"/>
</radialGradient>
<linearGradient id="paint57_linear" x1="14.0226" y1="-0.306328" x2="14.8855" y2="0.107577" gradientUnits="userSpaceOnUse">
<stop stop-color="#C0A9F0" stop-opacity="0"/>
<stop offset="0.456382" stop-color="#C0A9F0"/>
<stop offset="1" stop-color="#C0A9F0" stop-opacity="0"/>
</linearGradient>
<linearGradient id="paint58_linear" x1="15.3969" y1="-1.06364" x2="14.1027" y2="-0.00817935" gradientUnits="userSpaceOnUse">
<stop stop-color="#C0A9F0" stop-opacity="0"/>
<stop offset="0.461891" stop-color="#C0A9F0"/>
<stop offset="1" stop-color="#C0A9F0" stop-opacity="0"/>
</linearGradient>
<linearGradient id="paint59_linear" x1="13.1655" y1="0.714766" x2="14.2565" y2="1.36256" gradientUnits="userSpaceOnUse">
<stop stop-color="#CDF9E8"/>
<stop offset="1" stop-color="#CDF9E8" stop-opacity="0"/>
</linearGradient>
<radialGradient id="paint60_radial" cx="0" cy="0" r="1" gradientUnits="userSpaceOnUse" gradientTransform="translate(13.7153 2.02517) rotate(-107.309) scale(1.2968 1.78334)">
<stop stop-color="#CBADEB"/>
<stop offset="1" stop-color="#C2A6F1" stop-opacity="0"/>
</radialGradient>
<radialGradient id="paint61_radial" cx="0" cy="0" r="1" gradientUnits="userSpaceOnUse" gradientTransform="translate(13.4506 4.53536) rotate(-112.941) scale(1.76945 1.79801)">
<stop stop-color="#DC8DDC"/>
<stop offset="1" stop-color="#DC8DDC" stop-opacity="0"/>
</radialGradient>
<radialGradient id="paint62_radial" cx="0" cy="0" r="1" gradientUnits="userSpaceOnUse" gradientTransform="translate(13.6794 3.94398) rotate(-122.385) scale(1.40565 2.41304)">
<stop stop-color="#DC8DDC"/>
<stop offset="1" stop-color="#DC8DDC" stop-opacity="0"/>
</radialGradient>
<linearGradient id="paint63_linear" x1="12.4707" y1="0" x2="13.1907" y2="0.285418" gradientUnits="userSpaceOnUse">
<stop stop-color="#EBF3D0"/>
<stop offset="1" stop-color="#EBF3D0" stop-opacity="0"/>
</linearGradient>
</defs>
</svg>
