<svg width="24" height="24" viewBox="0 0 24 24" fill="none" xmlns="http://www.w3.org/2000/svg">
<path d="M6.64303 17.205C6.08193 17.205 5.52083 17.1028 4.95973 16.8984C3.42946 16.3365 2.20525 15.1103 1.59314 13.4755C0.981035 11.7385 1.18507 9.84824 2.15424 8.2645L4.44964 4.58615C4.70469 4.17744 5.16377 4.02417 5.62285 4.17744L11.3869 6.22097C11.7949 6.37424 12.05 6.73185 12.05 7.19165L11.948 11.6363C11.8969 14.8038 9.55053 17.205 6.64303 17.205ZM5.72486 6.37424L3.83753 9.38845C3.22543 10.4102 3.0724 11.6874 3.48047 12.8625C3.83754 13.9353 4.60267 14.7016 5.57184 15.0592C5.9289 15.1614 6.23495 15.2125 6.59202 15.2125C8.37733 15.2125 9.9076 13.5777 9.95861 11.5852L10.0606 7.90689L5.72486 6.37424Z" fill="white"/>
<path d="M3.43057 23.1311C3.32855 23.1311 3.22654 23.1311 3.12452 23.08C2.61443 22.9267 2.30838 22.3647 2.4614 21.8539L4.29772 15.7233C4.45075 15.2124 5.01185 14.9059 5.52194 15.0591C6.03203 15.2124 6.33808 15.7744 6.18505 16.2852L4.34873 22.4158C4.29772 22.8756 3.88965 23.1311 3.43057 23.1311Z" fill="white"/>
<path d="M5.87893 23.9992C5.77691 23.9992 5.67489 23.9992 5.57287 23.9481L0.676017 22.2111C0.165928 22.0068 -0.140125 21.4448 0.0639103 20.9339C0.267946 20.423 0.829044 20.1165 1.33913 20.3208L6.18498 22.0068C6.69507 22.2111 7.00112 22.7731 6.79709 23.284C6.69507 23.7438 6.287 23.9992 5.87893 23.9992Z" fill="white"/>
<path d="M17.3564 17.205C14.4489 17.205 12.1025 14.7527 12.0005 11.6363L11.8984 7.19165C11.8984 6.73185 12.1535 6.37424 12.5616 6.22097L18.3256 4.17744C18.7846 4.02417 19.2437 4.17744 19.4988 4.58615L21.7942 8.2645C22.7633 9.79715 22.9674 11.6874 22.3553 13.4755C21.7942 15.1103 20.57 16.3365 18.9887 16.8984C18.5296 17.1539 17.9685 17.205 17.3564 17.205ZM13.9388 7.90689L14.0408 11.5852C14.0918 13.5777 15.5711 15.2125 17.4074 15.2125C17.7645 15.2125 18.0705 15.1614 18.4276 15.0592C19.3968 14.7016 20.1619 13.9353 20.5189 12.8625C20.927 11.6874 20.774 10.4102 20.1619 9.38845L18.2746 6.37424L13.9388 7.90689Z" fill="white"/>
<path d="M20.5696 23.1311C20.1616 23.1311 19.7535 22.8756 19.6005 22.4158L17.7641 16.2852C17.6111 15.7744 17.9172 15.2124 18.4273 15.0591C18.9373 14.9059 19.4984 15.2124 19.6515 15.7233L21.4878 21.8539C21.6408 22.3647 21.3348 22.9267 20.8247 23.08C20.7227 23.1311 20.6716 23.1311 20.5696 23.1311Z" fill="white"/>
<path d="M18.1207 23.9999C17.7127 23.9999 17.3046 23.7444 17.2026 23.3357C16.9985 22.8248 17.3046 22.2629 17.8147 22.0585L22.6605 20.3726C23.1706 20.1683 23.7317 20.4748 23.9358 20.9857C24.1398 21.4965 23.8337 22.0585 23.3237 22.2629L18.4778 23.9488C18.3248 23.9999 18.2228 23.9999 18.1207 23.9999Z" fill="white"/>
<path d="M10.5199 4.53536C10.1119 4.53536 9.70378 4.27992 9.55076 3.82012L8.78562 1.26571C8.6326 0.754826 8.93865 0.192854 9.44874 0.0395895C9.95883 -0.113675 10.5199 0.192854 10.673 0.703737L11.4381 3.25815C11.5911 3.76904 11.2851 4.33101 10.775 4.48427C10.673 4.53536 10.6219 4.53536 10.5199 4.53536Z" fill="white"/>
<path d="M13.4794 4.53536C13.3774 4.53536 13.2754 4.53536 13.1733 4.48427C12.6633 4.33101 12.3572 3.76904 12.5102 3.25815L13.2754 0.703737C13.4284 0.192854 13.9895 -0.113675 14.4996 0.0395895C15.0097 0.192854 15.3157 0.754826 15.1627 1.26571L14.3976 3.82012C14.2955 4.27992 13.9385 4.53536 13.4794 4.53536Z" fill="white"/>
</svg>
