<svg width="24" height="24" viewBox="0 0 24 24" fill="none" xmlns="http://www.w3.org/2000/svg">
<path d="M3.70348 5.13736L0.235142 1.60083L1.8046 0L23.7649 22.4003L22.1954 24L18.5241 20.2553C16.5733 21.5174 14.3101 22.1857 12 22.182C6.01941 22.182 1.04372 17.7924 0 12C0.476972 9.36482 1.77646 6.95755 3.70459 5.13736H3.70348ZM15.058 16.7199L13.4341 15.0636C12.8131 15.3667 12.1151 15.4659 11.4365 15.3474C10.7578 15.2288 10.132 14.8985 9.64511 14.402C9.15826 13.9054 8.83442 13.267 8.71824 12.5748C8.60205 11.8826 8.69923 11.1707 8.9964 10.5372L7.37259 8.88093C6.66684 9.96869 6.35135 11.2718 6.47952 12.5696C6.6077 13.8674 7.17166 15.0802 8.07592 16.0025C8.98019 16.9248 10.1692 17.5001 11.4416 17.6308C12.7139 17.7616 13.9915 17.4397 15.058 16.7199ZM7.53452 2.67785C8.91765 2.1235 10.425 1.81804 12 1.81804C17.9806 1.81804 22.9563 6.2076 24 12C23.6601 13.8845 22.8962 15.6628 21.7684 17.1951L17.487 12.8281C17.6142 11.9543 17.5389 11.0623 17.2673 10.2234C16.9957 9.3846 16.5352 8.62232 15.9228 7.99766C15.3104 7.37301 14.563 6.90333 13.7407 6.62627C12.9183 6.34921 12.0437 6.27247 11.187 6.40219L7.53452 2.67899V2.67785Z" fill="#FD2356"/>
</svg>
