<svg width="24" height="20" viewBox="0 0 24 20" fill="none" xmlns="http://www.w3.org/2000/svg">
<path d="M12 0C17.9806 0 22.9563 4.31111 24 10C22.9574 15.6889 17.9806 20 12 20C6.01941 20 1.04372 15.6889 0 10C1.04261 4.31111 6.01941 0 12 0ZM12 17.7778C14.2621 17.7773 16.457 17.0076 18.2256 15.5946C19.9941 14.1817 21.2314 12.2092 21.7351 10C21.2296 7.79256 19.9914 5.82223 18.2231 4.41114C16.4547 3.00005 14.2608 2.2317 12 2.2317C9.7392 2.2317 7.54527 3.00005 5.77692 4.41114C4.00857 5.82223 2.77042 7.79256 2.2649 10C2.76857 12.2092 4.00592 14.1817 5.77445 15.5946C7.54297 17.0076 9.7379 17.7773 12 17.7778ZM12 15C10.6762 15 9.40671 14.4732 8.47068 13.5355C7.53464 12.5979 7.00878 11.3261 7.00878 10C7.00878 8.67392 7.53464 7.40215 8.47068 6.46447C9.40671 5.52678 10.6762 5 12 5C13.3238 5 14.5933 5.52678 15.5293 6.46447C16.4654 7.40215 16.9912 8.67392 16.9912 10C16.9912 11.3261 16.4654 12.5979 15.5293 13.5355C14.5933 14.4732 13.3238 15 12 15ZM12 12.7778C12.7354 12.7778 13.4407 12.4851 13.9607 11.9642C14.4808 11.4433 14.7729 10.7367 14.7729 10C14.7729 9.26329 14.4808 8.55675 13.9607 8.03582C13.4407 7.51488 12.7354 7.22222 12 7.22222C11.2646 7.22222 10.5593 7.51488 10.0393 8.03582C9.51925 8.55675 9.2271 9.26329 9.2271 10C9.2271 10.7367 9.51925 11.4433 10.0393 11.9642C10.5593 12.4851 11.2646 12.7778 12 12.7778Z" fill="white"/>
</svg>
