<svg width="24" height="22" viewBox="0 0 24 22" fill="none" xmlns="http://www.w3.org/2000/svg">
<path d="M9.3936 2.44444L6.9936 4.88889H2.4V19.5556H21.6V4.88889H17.0064L14.6064 2.44444H9.3936ZM8.4 0H15.6L18 2.44444H22.8C23.1183 2.44444 23.4235 2.57321 23.6485 2.80243C23.8736 3.03164 24 3.34251 24 3.66667V20.7778C24 21.1019 23.8736 21.4128 23.6485 21.642C23.4235 21.8712 23.1183 22 22.8 22H1.2C0.88174 22 0.576515 21.8712 0.351472 21.642C0.126428 21.4128 0 21.1019 0 20.7778V3.66667C0 3.34251 0.126428 3.03164 0.351472 2.80243C0.576515 2.57321 0.88174 2.44444 1.2 2.44444H6L8.4 0ZM9.168 5.53667C10.5817 4.8513 12.1886 4.70015 13.7017 5.11021C15.2147 5.52027 16.5354 6.46483 17.4277 7.77517C18.32 9.08552 18.726 10.6763 18.5729 12.2633C18.4199 13.8504 17.718 15.3304 16.5924 16.4389L14.1 11.7333H16.1988L16.2 11.6111C16.2001 10.8976 16.025 10.1954 15.6906 9.5684C15.3562 8.94142 14.8731 8.4096 14.2853 8.02135C13.6976 7.63311 13.0238 7.40077 12.3254 7.3455C11.6269 7.29023 10.926 7.41377 10.2864 7.70489L9.168 5.53667ZM14.7804 17.71C13.3701 18.3785 11.7733 18.5181 10.2717 18.1043C8.77018 17.6904 7.46041 16.7497 6.57352 15.4481C5.68663 14.1464 5.27963 12.5676 5.42433 10.9901C5.56903 9.41261 6.25613 7.93788 7.3644 6.82611L9.9 11.6111H7.8C7.79978 12.3199 7.9725 13.0177 8.30263 13.6417C8.63277 14.2657 9.10997 14.7964 9.69135 15.186C10.2727 15.5757 10.94 15.812 11.6333 15.8739C12.3266 15.9358 13.0241 15.8213 13.6632 15.5406L14.7804 17.7088V17.71Z" fill="white"/>
</svg>
