<svg width="24" height="20" viewBox="0 0 24 20" fill="none" xmlns="http://www.w3.org/2000/svg">
<path d="M21.7 4.70889V4.49606L21.5362 4.63191L12.0859 12.4683L2.46327 4.607L2.3 4.47362V4.68444V17.7778V17.8778H2.4H21.6H21.7V17.7778V4.70889ZM23.5806 0.398813L23.6485 0.325437L23.5806 0.398813C23.7861 0.589132 23.9 0.845539 23.9 1.11111V18.8889C23.9 19.1545 23.7861 19.4109 23.5806 19.6012C23.3748 19.7917 23.0941 19.9 22.8 19.9H1.2C0.905884 19.9 0.625217 19.7917 0.419413 19.6012C0.213868 19.4109 0.1 19.1545 0.1 18.8889V1.11111C0.1 0.84554 0.213868 0.589132 0.419413 0.398813C0.625217 0.208254 0.905885 0.1 1.2 0.1H22.8C23.0941 0.1 23.3748 0.208254 23.5806 0.398813ZM3.0132 2.12222H2.73275L2.94993 2.29966L12.0099 9.70188L12.0737 9.75395L12.137 9.70143L21.0662 2.29921L21.2797 2.12222H21.0024H3.0132Z" fill="white" fill-opacity="0.4" stroke="#212037" stroke-width="0.2"/>
</svg>
