<svg width="16" height="24" viewBox="0 0 16 24" fill="none" xmlns="http://www.w3.org/2000/svg">
<path d="M15.8562 9.3422C15.6926 9.1277 15.4117 9.0002 15.1113 9.0002H8.889V0.750317C8.889 0.396322 8.59567 0.0903261 8.185 0.0168272C7.76721 -0.0581718 7.35832 0.123326 7.18765 0.445821L0.0764573 13.9456C-0.0462108 14.1766 -0.0195436 14.4466 0.144014 14.6581C0.307571 14.8711 0.588464 15.0001 0.888912 15.0001H7.11121V23.25C7.11121 23.604 7.40454 23.91 7.81521 23.9835C7.87744 23.994 7.93966 24 8.0001 24C8.345 24 8.66678 23.8305 8.81256 23.5545L15.9238 10.0547C16.0446 9.82219 16.0215 9.5552 15.8562 9.3422Z" fill="white"/>
</svg>
