<svg width="24" height="24" viewBox="0 0 24 24" fill="none" xmlns="http://www.w3.org/2000/svg">
<path d="M20.0078 2.64487C18.707 2.64487 17.7863 3.10982 17.1924 3.57173C16.6331 1.43545 14.8571 0 12.5636 0C10.6029 0 9.3554 0.866577 8.69523 1.51748C8.03709 0.865733 6.79059 0 4.81409 0C2.0246 0 0 2.12325 0 5.04862C0 9.12594 6.00564 12.9979 7.44681 13.8683L6.20398 15.9843H7.69799C7.67873 16.055 7.65727 16.1305 7.63872 16.196C7.48725 16.729 7.27984 17.4591 7.27984 18.2632C7.27984 18.9865 7.55803 19.5391 7.80338 20.0266C8.02647 20.4698 8.21918 20.8525 8.21918 21.3728C8.21918 21.9097 8.09453 22.3495 7.97396 22.7749C7.86359 23.1644 7.74951 23.5671 7.74951 24H9.62818C9.62818 23.8271 9.69938 23.576 9.78176 23.2852C9.92261 22.7882 10.0978 22.1698 10.0978 21.3728C10.0978 20.408 9.75645 19.7297 9.48216 19.1848C9.27546 18.7742 9.15851 18.529 9.15851 18.2632C9.15851 17.7198 9.31801 17.1585 9.44614 16.7075C9.52462 16.4311 9.58999 16.1997 9.61587 15.9843H11.1737L9.93079 13.8682C10.47 13.5425 11.6474 12.7969 12.9108 11.7775C14.0232 12.754 15.1472 13.4927 15.7242 13.8492L14.4701 15.9843H15.9641C15.9449 16.055 15.9234 16.1305 15.9049 16.196C15.7534 16.729 15.546 17.4591 15.546 18.2632C15.546 18.9865 15.8242 19.5391 16.0695 20.0266C16.2926 20.4698 16.4853 20.8525 16.4853 21.3728C16.4853 21.9097 16.3607 22.3495 16.2401 22.7749C16.1297 23.1644 16.0157 23.5671 16.0157 24H17.8943C17.8943 23.8271 17.9655 23.576 18.0479 23.2852C18.1888 22.7882 18.364 22.1698 18.364 21.3728C18.364 20.408 18.0226 19.7297 17.7483 19.1848C17.5416 18.7742 17.4247 18.529 17.4247 18.2632C17.4247 17.7198 17.5842 17.1585 17.7123 16.7075C17.7908 16.4311 17.8561 16.1997 17.882 15.9843H19.4399L18.1857 13.8491C18.8261 13.4531 20.1483 12.5819 21.3767 11.4361C23.1174 9.81237 24 8.25978 24 6.82142C24 4.40137 22.321 2.64487 20.0078 2.64487Z" fill="#FD2356"/>
</svg>
