<svg width="24" height="16" viewBox="0 0 24 16" fill="none" xmlns="http://www.w3.org/2000/svg">
<path d="M2.13777 13.7197C2.01889 13.5983 1.87871 13.5032 1.72527 13.4397C1.42095 13.3064 1.0796 13.3064 0.775282 13.4397C0.621844 13.5032 0.481665 13.5983 0.362786 13.7197C0.248987 13.8465 0.159782 13.9961 0.100289 14.1597C0.00456628 14.4025 -0.0215867 14.6701 0.0251304 14.9288C0.0718475 15.1874 0.189341 15.4255 0.362786 15.613C0.484286 15.7308 0.623802 15.8255 0.775282 15.893C0.924905 15.9636 1.08669 16 1.25028 16C1.41386 16 1.57565 15.9636 1.72527 15.893C1.87675 15.8255 2.01627 15.7308 2.13777 15.613C2.31121 15.4255 2.4287 15.1874 2.47542 14.9288C2.52214 14.6701 2.49599 14.4025 2.40026 14.1597C2.34077 13.9961 2.25157 13.8465 2.13777 13.7197ZM6.25022 2.66662H22.75C23.0815 2.66662 23.3995 2.52614 23.6339 2.2761C23.8683 2.02605 24 1.68692 24 1.33331C24 0.979692 23.8683 0.640561 23.6339 0.390517C23.3995 0.140473 23.0815 0 22.75 0H6.25022C5.9187 0 5.60076 0.140473 5.36635 0.390517C5.13193 0.640561 5.00023 0.979692 5.00023 1.33331C5.00023 1.68692 5.13193 2.02605 5.36635 2.2761C5.60076 2.52614 5.9187 2.66662 6.25022 2.66662ZM2.13777 7.0532C1.96199 6.86819 1.73877 6.74286 1.49629 6.69303C1.25381 6.6432 1.00292 6.6711 0.775282 6.7732C0.623802 6.84072 0.484286 6.93542 0.362786 7.0532C0.248987 7.18 0.159782 7.32952 0.100289 7.49319C0.0341587 7.65279 0 7.82535 0 7.99985C0 8.17434 0.0341587 8.3469 0.100289 8.5065C0.163591 8.66808 0.252374 8.81689 0.362786 8.94649C0.484286 9.06427 0.623802 9.15897 0.775282 9.22649C0.924905 9.29703 1.08669 9.33346 1.25028 9.33346C1.41386 9.33346 1.57565 9.29703 1.72527 9.22649C1.87675 9.15897 2.01627 9.06427 2.13777 8.94649C2.24818 8.81689 2.33696 8.66808 2.40026 8.5065C2.46639 8.3469 2.50055 8.17434 2.50055 7.99985C2.50055 7.82535 2.46639 7.65279 2.40026 7.49319C2.34077 7.32952 2.25157 7.18 2.13777 7.0532ZM22.75 6.66654H6.25022C5.9187 6.66654 5.60076 6.80701 5.36635 7.05705C5.13193 7.3071 5.00023 7.64623 5.00023 7.99985C5.00023 8.35346 5.13193 8.69259 5.36635 8.94264C5.60076 9.19268 5.9187 9.33315 6.25022 9.33315H22.75C23.0815 9.33315 23.3995 9.19268 23.6339 8.94264C23.8683 8.69259 24 8.35346 24 7.99985C24 7.64623 23.8683 7.3071 23.6339 7.05705C23.3995 6.80701 23.0815 6.66654 22.75 6.66654ZM2.13777 0.386659C2.01889 0.265274 1.87871 0.170122 1.72527 0.106665C1.49763 0.00456057 1.24675 -0.0233355 1.00426 0.0264957C0.761778 0.0763269 0.538564 0.201652 0.362786 0.386659C0.252374 0.516258 0.163591 0.665074 0.100289 0.826651C0.0341587 0.986248 0 1.15882 0 1.33331C0 1.5078 0.0341587 1.68037 0.100289 1.83996C0.163591 2.00154 0.252374 2.15036 0.362786 2.27996C0.484286 2.39773 0.623802 2.49243 0.775282 2.55995C1.00292 2.66205 1.25381 2.68995 1.49629 2.64012C1.73877 2.59029 1.96199 2.46496 2.13777 2.27996C2.24818 2.15036 2.33696 2.00154 2.40026 1.83996C2.46639 1.68037 2.50055 1.5078 2.50055 1.33331C2.50055 1.15882 2.46639 0.986248 2.40026 0.826651C2.33696 0.665074 2.24818 0.516258 2.13777 0.386659ZM22.75 13.3331H6.25022C5.9187 13.3331 5.60076 13.4735 5.36635 13.7236C5.13193 13.9736 5.00023 14.3128 5.00023 14.6664C5.00023 15.02 5.13193 15.3591 5.36635 15.6092C5.60076 15.8592 5.9187 15.9997 6.25022 15.9997H22.75C23.0815 15.9997 23.3995 15.8592 23.6339 15.6092C23.8683 15.3591 24 15.02 24 14.6664C24 14.3128 23.8683 13.9736 23.6339 13.7236C23.3995 13.4735 23.0815 13.3331 22.75 13.3331Z" fill="white"/>
</svg>
