<svg width="20" height="24" viewBox="0 0 20 24" fill="none" xmlns="http://www.w3.org/2000/svg">
<path d="M17.0815 2.97326C15.205 1.06951 12.6599 -2.00592e-08 10.0061 0C7.35233 2.00592e-08 4.80724 1.06951 2.93073 2.97326C1.05421 4.877 1.97723e-08 7.45903 0 10.1513C-1.97723e-08 12.8436 1.05421 15.4257 2.93073 17.3294L9.14528 23.6461C9.25491 23.7583 9.38533 23.8473 9.52903 23.908C9.67273 23.9687 9.82687 24 9.98254 24C10.1382 24 10.2923 23.9687 10.436 23.908C10.5797 23.8473 10.7102 23.7583 10.8198 23.6461L17.0815 17.2696C18.9502 15.3738 20 12.8025 20 10.1214C20 7.44035 18.9502 4.86908 17.0815 2.97326ZM15.3952 15.5588L10.0061 21.0501L4.61703 15.5588C3.55235 14.4777 2.82751 13.1006 2.53414 11.6017C2.24077 10.1027 2.39204 8.54912 2.96882 7.13736C3.5456 5.72559 4.522 4.519 5.7746 3.6701C7.0272 2.82121 8.49975 2.36812 10.0061 2.36812C11.5125 2.36812 12.985 2.82121 14.2376 3.6701C15.4902 4.519 16.4666 5.72559 17.0434 7.13736C17.6202 8.54912 17.7715 10.1027 17.4781 11.6017C17.1847 13.1006 16.4599 14.4777 15.3952 15.5588ZM6.46842 6.47855C5.51645 7.44732 4.98188 8.75947 4.98188 10.1274C4.98188 11.4954 5.51645 12.8075 6.46842 13.7763C7.17568 14.495 8.07641 14.9859 9.05761 15.1872C10.0388 15.3886 11.0568 15.2915 11.9838 14.9082C12.9108 14.5248 13.7056 13.8723 14.2684 13.0324C14.8313 12.1926 15.1371 11.2028 15.1476 10.1872C15.1529 9.50914 15.0241 8.83686 14.7689 8.21013C14.5137 7.5834 14.1372 7.01494 13.6617 6.53837C13.1944 6.05335 12.6371 5.66688 12.0219 5.4012C11.4068 5.13553 10.7459 4.99589 10.0773 4.99033C9.4088 4.98477 8.74576 5.1134 8.12639 5.36881C7.50703 5.62422 6.94356 6.00137 6.46842 6.47855ZM11.999 12.0775C11.5521 12.5377 10.9616 12.8263 10.3282 12.8937C9.69486 12.9611 9.05809 12.8032 8.52678 12.447C7.99547 12.0909 7.60261 11.5585 7.41536 10.941C7.22811 10.3235 7.2581 9.6592 7.5002 9.06165C7.74231 8.4641 8.1815 7.97042 8.74267 7.66501C9.30385 7.35961 9.95218 7.26145 10.5768 7.38732C11.2014 7.51318 11.7635 7.85526 12.1671 8.35506C12.5706 8.85486 12.7905 9.48135 12.7891 10.1274C12.772 10.8659 12.4666 11.5672 11.9401 12.0775H11.999Z" fill="white"/>
</svg>
