<svg width="24" height="24" viewBox="0 0 24 24" fill="none" xmlns="http://www.w3.org/2000/svg">
<path d="M21.3333 9.6H22.6667C23.0203 9.6 23.3594 9.72643 23.6095 9.95147C23.8595 10.1765 24 10.4817 24 10.8V22.8C24 23.1183 23.8595 23.4235 23.6095 23.6485C23.3594 23.8736 23.0203 24 22.6667 24H1.33333C0.979711 24 0.640573 23.8736 0.390524 23.6485C0.140476 23.4235 0 23.1183 0 22.8V10.8C0 10.4817 0.140476 10.1765 0.390524 9.95147C0.640573 9.72643 0.979711 9.6 1.33333 9.6H2.66667V8.4C2.66667 7.2969 2.90808 6.20459 3.37712 5.18546C3.84617 4.16632 4.53366 3.24032 5.40034 2.4603C6.26702 1.68029 7.29592 1.06155 8.42829 0.639412C9.56066 0.217272 10.7743 0 12 0C13.2257 0 14.4393 0.217272 15.5717 0.639412C16.7041 1.06155 17.733 1.68029 18.5997 2.4603C19.4663 3.24032 20.1538 4.16632 20.6229 5.18546C21.0919 6.20459 21.3333 7.2969 21.3333 8.4V9.6ZM2.66667 12V21.6H21.3333V12H2.66667ZM10.6667 14.4H13.3333V19.2H10.6667V14.4ZM18.6667 9.6V8.4C18.6667 6.8087 17.9643 5.28258 16.714 4.15736C15.4638 3.03214 13.7681 2.4 12 2.4C10.2319 2.4 8.5362 3.03214 7.28595 4.15736C6.03571 5.28258 5.33333 6.8087 5.33333 8.4V9.6H18.6667Z" fill="white"/>
</svg>
