<svg width="24" height="24" viewBox="0 0 24 24" fill="none" xmlns="http://www.w3.org/2000/svg">
<path d="M5.33333 9.60182H22.6667C23.0203 9.60182 23.3594 9.72824 23.6095 9.95325C23.8595 10.1783 24 10.4835 24 10.8017V22.8002C24 23.1184 23.8595 23.4236 23.6095 23.6486C23.3594 23.8736 23.0203 24 22.6667 24H1.33333C0.979711 24 0.640573 23.8736 0.390524 23.6486C0.140476 23.4236 0 23.1184 0 22.8002V10.8017C0 10.4835 0.140476 10.1783 0.390524 9.95325C0.640573 9.72824 0.979711 9.60182 1.33333 9.60182H2.66667V8.40198C2.66591 6.50946 3.37544 4.67218 4.68025 3.18796C5.98507 1.70373 7.80867 0.65957 9.85547 0.224724C11.9023 -0.210122 14.0523 -0.0101622 15.957 0.792191C17.8617 1.59454 19.4094 2.95226 20.3493 4.64525L17.964 5.71792C17.2927 4.50849 16.1871 3.53857 14.8264 2.9654C13.4658 2.39223 11.9299 2.24942 10.4678 2.56013C9.00573 2.87083 7.7031 3.61683 6.77114 4.67718C5.83918 5.73752 5.33253 7.05006 5.33333 8.40198V9.60182ZM2.66667 12.0015V21.6003H21.3333V12.0015H2.66667ZM9.33333 15.6011H14.6667V18.0008H9.33333V15.6011Z" fill="white"/>
</svg>
