<svg width="24" height="24" viewBox="0 0 24 24" fill="none" xmlns="http://www.w3.org/2000/svg">
<path d="M21.7527 10.9091C21.2509 6.36 17.64 2.74909 13.0909 2.24727V0H10.9091V2.24727C6.36 2.74909 2.74909 6.36 2.24727 10.9091H0V13.0909H2.24727C2.74909 17.64 6.36 21.2509 10.9091 21.7527V24H13.0909V21.7527C17.64 21.2509 21.2509 17.64 21.7527 13.0909H24V10.9091H21.7527ZM12 19.6364C7.77818 19.6364 4.36364 16.2218 4.36364 12C4.36364 7.77818 7.77818 4.36364 12 4.36364C16.2218 4.36364 19.6364 7.77818 19.6364 12C19.6364 16.2218 16.2218 19.6364 12 19.6364Z" fill="white"/>
</svg>
