<svg width="24" height="24" viewBox="0 0 24 24" fill="none" xmlns="http://www.w3.org/2000/svg">
<path d="M2.4 5.87709V20.5336L8.478 18.0535L15.678 21.4822L21.6 19.0627V4.40733L23.1636 3.76959C23.2549 3.73232 23.3545 3.71721 23.4534 3.72564C23.5524 3.73407 23.6476 3.76576 23.7305 3.81787C23.8134 3.86999 23.8814 3.9409 23.9285 4.02423C23.9755 4.10756 24.0001 4.20071 24 4.29533V20.5713L15.6 24L8.4 20.5713L0.8364 23.6583C0.745097 23.6956 0.645503 23.7107 0.546559 23.7022C0.447615 23.6938 0.352415 23.6621 0.269505 23.61C0.186594 23.5579 0.118567 23.487 0.0715284 23.4036C0.0244898 23.3203 -8.81476e-05 23.2272 2.3754e-07 23.1325V6.85656L2.4 5.87709ZM17.0916 11.7059L12 16.554L6.9084 11.7059C5.90158 10.7468 5.21597 9.52493 4.93826 8.19476C4.66054 6.86459 4.8032 5.48586 5.34818 4.2329C5.89317 2.97995 6.81601 1.90904 8.00002 1.1556C9.18403 0.402149 10.576 0 12 0C13.424 0 14.816 0.402149 16 1.1556C17.184 1.90904 18.1068 2.97995 18.6518 4.2329C19.1968 5.48586 19.3395 6.86459 19.0617 8.19476C18.784 9.52493 18.0984 10.7468 17.0916 11.7059ZM12 13.3219L15.3936 10.0887C16.065 9.44937 16.5223 8.6348 16.7077 7.74796C16.893 6.86112 16.798 5.94186 16.4348 5.10643C16.0715 4.271 15.4563 3.55694 14.6669 3.05454C13.8775 2.55215 12.9494 2.28399 12 2.28399C11.0506 2.28399 10.1225 2.55215 9.33311 3.05454C8.54373 3.55694 7.9285 4.271 7.56524 5.10643C7.20198 5.94186 7.10701 6.86112 7.29234 7.74796C7.47766 8.6348 7.93496 9.44937 8.6064 10.0887L12 13.3219Z" fill="white"/>
</svg>
