<svg width="40" height="48" viewBox="0 0 40 48" fill="none" xmlns="http://www.w3.org/2000/svg">
<path d="M6.21788 34.3082L6.21754 34.3078C2.55747 30.5946 0.5 25.557 0.5 20.3027C0.5 15.0484 2.55747 10.0107 6.21754 6.29751C9.87737 2.58457 14.8396 0.5 20.0122 0.5C25.1849 0.5 30.1471 2.58457 33.8069 6.29751C37.4513 9.99485 39.5 15.011 39.5 20.2429C39.5 25.4747 37.4513 30.4909 33.8069 34.1882L33.8063 34.1889L21.2828 46.9419L21.2821 46.9427C21.1089 47.1198 20.9034 47.2599 20.6774 47.3554C20.4515 47.4509 20.2094 47.5 19.9651 47.5C19.7207 47.5 19.4787 47.4509 19.2527 47.3554C19.0268 47.2599 18.8212 47.1198 18.6481 46.9427L18.647 46.9416L6.21788 34.3082ZM26.0781 20.2664L26.0782 20.2664L26.0782 20.2559C26.0812 18.8498 25.6027 17.4854 24.7232 16.396C23.8435 15.3065 22.6169 14.5595 21.2524 14.2845C19.8877 14.0095 18.4715 14.2241 17.2463 14.8908C16.0213 15.5575 15.0642 16.6343 14.537 17.9355C14.0098 19.2367 13.9446 20.6828 14.3522 22.0271C14.7599 23.3716 15.6157 24.5322 16.7752 25.3094C17.9347 26.0867 19.3255 26.4318 20.7093 26.2845C22.0906 26.1375 23.3776 25.5092 24.3515 24.5086C25.5145 23.3785 26.0415 21.8423 26.0781 20.2664Z" fill="#FD2356" stroke="white"/>
</svg>
