<svg width="32" height="40" viewBox="0 0 32 40" fill="none" xmlns="http://www.w3.org/2000/svg">
<path d="M5.05266 28.539L5.05234 28.5387C2.1404 25.4614 0.5 21.2821 0.5 16.9189C0.5 12.5557 2.1404 8.37638 5.05234 5.29909C7.96339 2.22274 11.9055 0.5 16.0098 0.5C20.1141 0.5 24.0562 2.22274 26.9673 5.29909C29.8667 8.36318 31.5 12.5246 31.5 16.869C31.5 21.2135 29.8667 25.3749 26.9673 28.439L26.9666 28.4397L16.9478 39.0672L16.9471 39.068C16.8168 39.2069 16.6633 39.3155 16.4962 39.389C16.3292 39.4626 16.1512 39.5 15.9721 39.5C15.793 39.5 15.6149 39.4626 15.4479 39.389C15.2809 39.3155 15.1273 39.2069 14.997 39.068L14.996 39.0669L5.05266 28.539ZM20.9625 16.8902L20.9626 16.8902L20.9626 16.88C20.965 15.6946 20.5779 14.5418 19.8625 13.6188C19.1467 12.6953 18.1451 12.0579 17.0256 11.8229C15.9056 11.5878 14.7443 11.7717 13.7417 12.3401C12.7399 12.908 11.9618 13.8224 11.5343 14.9215C11.1069 16.0203 11.0542 17.2403 11.3845 18.3748C11.7148 19.5095 12.4096 20.4937 13.3566 21.155C14.3043 21.8168 15.4441 22.1124 16.5802 21.9864C17.7136 21.8607 18.7656 21.3243 19.559 20.4756C20.508 19.5144 20.9329 18.2143 20.9625 16.8902Z" fill="#6563FF" stroke="white"/>
</svg>
