<svg width="24" height="24" viewBox="0 0 24 24" fill="none" xmlns="http://www.w3.org/2000/svg">
<path d="M20.4 24H3.6C2.64522 24 1.72955 23.6207 1.05442 22.9456C0.379285 22.2705 0 21.3548 0 20.4V1.2C0 0.88174 0.126428 0.576515 0.351472 0.351472C0.576515 0.126428 0.88174 0 1.2 0H18C18.3183 0 18.6235 0.126428 18.8485 0.351472C19.0736 0.576515 19.2 0.88174 19.2 1.2V15.6H24V20.4C24 21.3548 23.6207 22.2705 22.9456 22.9456C22.2705 23.6207 21.3548 24 20.4 24ZM19.2 18V20.4C19.2 20.7183 19.3264 21.0235 19.5515 21.2485C19.7765 21.4736 20.0817 21.6 20.4 21.6C20.7183 21.6 21.0235 21.4736 21.2485 21.2485C21.4736 21.0235 21.6 20.7183 21.6 20.4V18H19.2ZM16.8 21.6V2.4H2.4V20.4C2.4 20.7183 2.52643 21.0235 2.75147 21.2485C2.97652 21.4736 3.28174 21.6 3.6 21.6H16.8ZM4.8 6H14.4V8.4H4.8V6ZM4.8 10.8H14.4V13.2H4.8V10.8ZM4.8 15.6H10.8V18H4.8V15.6Z" fill="white"/>
</svg>
