<svg width="18" height="22" viewBox="0 0 18 22" fill="none" xmlns="http://www.w3.org/2000/svg">
<path d="M9 18.8999L13.95 13.9499C14.9289 12.9709 15.5955 11.7236 15.8656 10.3658C16.1356 9.00795 15.9969 7.60052 15.4671 6.32148C14.9373 5.04244 14.04 3.94923 12.8889 3.18009C11.7378 2.41095 10.3844 2.00043 9 2.00043C7.61557 2.00043 6.26222 2.41095 5.11109 3.18009C3.95996 3.94923 3.06275 5.04244 2.53292 6.32148C2.00308 7.60052 1.86442 9.00795 2.13445 10.3658C2.40449 11.7236 3.07111 12.9709 4.05 13.9499L9 18.8999ZM9 21.7279L2.636 15.3639C1.37734 14.1052 0.520187 12.5016 0.172928 10.7558C-0.17433 9.00995 0.00390685 7.20035 0.685099 5.55582C1.36629 3.91129 2.51984 2.50569 3.99988 1.51677C5.47992 0.527838 7.21998 0 9 0C10.78 0 12.5201 0.527838 14.0001 1.51677C15.4802 2.50569 16.6337 3.91129 17.3149 5.55582C17.9961 7.20035 18.1743 9.00995 17.8271 10.7558C17.4798 12.5016 16.6227 14.1052 15.364 15.3639L9 21.7279ZM8 7.99992V4.99992H10V7.99992H13V9.99992H10V12.9999H8V9.99992H5V7.99992H8Z" fill="white"/>
</svg>
