<svg width="24" height="24" viewBox="0 0 24 24" fill="none" xmlns="http://www.w3.org/2000/svg">
<path d="M0 24C0 21.5752 0.963263 19.2496 2.67788 17.535C4.3925 15.8204 6.71802 14.8571 9.14286 14.8571C11.5677 14.8571 13.8932 15.8204 15.6078 17.535C17.3225 19.2496 18.2857 21.5752 18.2857 24H16C16 22.1814 15.2776 20.4372 13.9916 19.1513C12.7056 17.8653 10.9615 17.1429 9.14286 17.1429C7.32423 17.1429 5.58009 17.8653 4.29413 19.1513C3.00816 20.4372 2.28571 22.1814 2.28571 24H0ZM9.14286 13.7143C5.35429 13.7143 2.28571 10.6457 2.28571 6.85714C2.28571 3.06857 5.35429 0 9.14286 0C12.9314 0 16 3.06857 16 6.85714C16 10.6457 12.9314 13.7143 9.14286 13.7143ZM9.14286 11.4286C11.6686 11.4286 13.7143 9.38286 13.7143 6.85714C13.7143 4.33143 11.6686 2.28571 9.14286 2.28571C6.61714 2.28571 4.57143 4.33143 4.57143 6.85714C4.57143 9.38286 6.61714 11.4286 9.14286 11.4286ZM18.6103 15.6606C20.2164 16.3839 21.5794 17.5557 22.5355 19.0351C23.4916 20.5145 24.0002 22.2385 24 24H21.7143C21.7145 22.6788 21.3332 21.3857 20.6161 20.2761C19.899 19.1665 18.8767 18.2876 17.672 17.7451L18.6091 15.6606H18.6103ZM17.824 2.75771C18.9755 3.23234 19.96 4.03833 20.6526 5.07341C21.3452 6.10848 21.7148 7.32599 21.7143 8.57143C21.7148 10.1398 21.1288 11.6517 20.0715 12.8101C19.0142 13.9685 17.5619 14.6897 16 14.832V12.5314C16.8468 12.4101 17.6324 12.0206 18.2415 11.42C18.8506 10.8193 19.2511 10.0392 19.3842 9.19421C19.5173 8.3492 19.376 7.48377 18.981 6.72498C18.586 5.96618 17.9582 5.354 17.1897 4.97829L17.824 2.75771Z" fill="white"/>
</svg>
