<svg width="32" height="32" viewBox="0 0 32 32" fill="none" xmlns="http://www.w3.org/2000/svg">
<path d="M16.3515 9.30368C16.3515 9.30368 16.7637 10.6518 17.1758 10.6518C17.3818 10.4592 16.7637 8.53331 16.7637 8.53331C16.6849 8.68043 16.6062 8.79946 16.539 8.90113C16.4302 9.06562 16.3515 9.18465 16.3515 9.30368Z" fill="#C2A6F1"/>
<path d="M16.3515 9.30368C16.3515 9.30368 16.7637 10.6518 17.1758 10.6518C17.3818 10.4592 16.7637 8.53331 16.7637 8.53331C16.6849 8.68043 16.6062 8.79946 16.539 8.90113C16.4302 9.06562 16.3515 9.18465 16.3515 9.30368Z" fill="url(#paint0_radial)"/>
<path d="M16.3515 9.30368C16.3515 9.30368 16.7637 10.6518 17.1758 10.6518C17.3818 10.4592 16.7637 8.53331 16.7637 8.53331C16.6849 8.68043 16.6062 8.79946 16.539 8.90113C16.4302 9.06562 16.3515 9.18465 16.3515 9.30368Z" fill="url(#paint1_linear)"/>
<path d="M16.3515 9.30368C16.3515 9.30368 16.7637 10.6518 17.1758 10.6518C17.3818 10.4592 16.7637 8.53331 16.7637 8.53331C16.6849 8.68043 16.6062 8.79946 16.539 8.90113C16.4302 9.06562 16.3515 9.18465 16.3515 9.30368Z" fill="url(#paint2_linear)"/>
<path d="M16.3515 9.30368C16.3515 9.30368 16.7637 10.6518 17.1758 10.6518C17.3818 10.4592 16.7637 8.53331 16.7637 8.53331C16.6849 8.68043 16.6062 8.79946 16.539 8.90113C16.4302 9.06562 16.3515 9.18465 16.3515 9.30368Z" fill="url(#paint3_linear)"/>
<path d="M16.3515 9.30368C16.3515 9.30368 16.7637 10.6518 17.1758 10.6518C17.3818 10.4592 16.7637 8.53331 16.7637 8.53331C16.6849 8.68043 16.6062 8.79946 16.539 8.90113C16.4302 9.06562 16.3515 9.18465 16.3515 9.30368Z" fill="url(#paint4_radial)"/>
<path d="M16.3515 9.30368C16.3515 9.30368 16.7637 10.6518 17.1758 10.6518C17.3818 10.4592 16.7637 8.53331 16.7637 8.53331C16.6849 8.68043 16.6062 8.79946 16.539 8.90113C16.4302 9.06562 16.3515 9.18465 16.3515 9.30368Z" fill="url(#paint5_radial)"/>
<path d="M16.3515 9.30368C16.3515 9.30368 16.7637 10.6518 17.1758 10.6518C17.3818 10.4592 16.7637 8.53331 16.7637 8.53331C16.6849 8.68043 16.6062 8.79946 16.539 8.90113C16.4302 9.06562 16.3515 9.18465 16.3515 9.30368Z" fill="url(#paint6_radial)"/>
<path d="M16.3515 9.30368C16.3515 9.30368 16.7637 10.6518 17.1758 10.6518C17.3818 10.4592 16.7637 8.53331 16.7637 8.53331C16.6849 8.68043 16.6062 8.79946 16.539 8.90113C16.4302 9.06562 16.3515 9.18465 16.3515 9.30368Z" fill="url(#paint7_linear)"/>
<path d="M17.7939 13.5407C17.7939 13.5407 17.414 13.5771 17.1757 13.5407C15.5273 12.5777 15.7333 10.8444 15.7333 10.8444C15.7333 10.4059 15.8725 10.1629 15.9892 9.95918C16.0775 9.80499 16.1529 9.67326 16.1455 9.49622C16.1455 9.49622 16.5576 11.2296 17.3818 11.6148C17.3818 11.7879 17.4651 12.0777 17.5567 12.3967C17.669 12.7876 17.7939 13.2226 17.7939 13.5407Z" fill="#C2A6F1"/>
<path d="M17.7939 13.5407C17.7939 13.5407 17.414 13.5771 17.1757 13.5407C15.5273 12.5777 15.7333 10.8444 15.7333 10.8444C15.7333 10.4059 15.8725 10.1629 15.9892 9.95918C16.0775 9.80499 16.1529 9.67326 16.1455 9.49622C16.1455 9.49622 16.5576 11.2296 17.3818 11.6148C17.3818 11.7879 17.4651 12.0777 17.5567 12.3967C17.669 12.7876 17.7939 13.2226 17.7939 13.5407Z" fill="url(#paint8_radial)"/>
<path d="M17.7939 13.5407C17.7939 13.5407 17.414 13.5771 17.1757 13.5407C15.5273 12.5777 15.7333 10.8444 15.7333 10.8444C15.7333 10.4059 15.8725 10.1629 15.9892 9.95918C16.0775 9.80499 16.1529 9.67326 16.1455 9.49622C16.1455 9.49622 16.5576 11.2296 17.3818 11.6148C17.3818 11.7879 17.4651 12.0777 17.5567 12.3967C17.669 12.7876 17.7939 13.2226 17.7939 13.5407Z" fill="url(#paint9_linear)"/>
<path d="M17.7939 13.5407C17.7939 13.5407 17.414 13.5771 17.1757 13.5407C15.5273 12.5777 15.7333 10.8444 15.7333 10.8444C15.7333 10.4059 15.8725 10.1629 15.9892 9.95918C16.0775 9.80499 16.1529 9.67326 16.1455 9.49622C16.1455 9.49622 16.5576 11.2296 17.3818 11.6148C17.3818 11.7879 17.4651 12.0777 17.5567 12.3967C17.669 12.7876 17.7939 13.2226 17.7939 13.5407Z" fill="url(#paint10_linear)"/>
<path d="M17.7939 13.5407C17.7939 13.5407 17.414 13.5771 17.1757 13.5407C15.5273 12.5777 15.7333 10.8444 15.7333 10.8444C15.7333 10.4059 15.8725 10.1629 15.9892 9.95918C16.0775 9.80499 16.1529 9.67326 16.1455 9.49622C16.1455 9.49622 16.5576 11.2296 17.3818 11.6148C17.3818 11.7879 17.4651 12.0777 17.5567 12.3967C17.669 12.7876 17.7939 13.2226 17.7939 13.5407Z" fill="url(#paint11_linear)"/>
<path d="M17.7939 13.5407C17.7939 13.5407 17.414 13.5771 17.1757 13.5407C15.5273 12.5777 15.7333 10.8444 15.7333 10.8444C15.7333 10.4059 15.8725 10.1629 15.9892 9.95918C16.0775 9.80499 16.1529 9.67326 16.1455 9.49622C16.1455 9.49622 16.5576 11.2296 17.3818 11.6148C17.3818 11.7879 17.4651 12.0777 17.5567 12.3967C17.669 12.7876 17.7939 13.2226 17.7939 13.5407Z" fill="url(#paint12_radial)"/>
<path d="M17.7939 13.5407C17.7939 13.5407 17.414 13.5771 17.1757 13.5407C15.5273 12.5777 15.7333 10.8444 15.7333 10.8444C15.7333 10.4059 15.8725 10.1629 15.9892 9.95918C16.0775 9.80499 16.1529 9.67326 16.1455 9.49622C16.1455 9.49622 16.5576 11.2296 17.3818 11.6148C17.3818 11.7879 17.4651 12.0777 17.5567 12.3967C17.669 12.7876 17.7939 13.2226 17.7939 13.5407Z" fill="url(#paint13_radial)"/>
<path d="M17.7939 13.5407C17.7939 13.5407 17.414 13.5771 17.1757 13.5407C15.5273 12.5777 15.7333 10.8444 15.7333 10.8444C15.7333 10.4059 15.8725 10.1629 15.9892 9.95918C16.0775 9.80499 16.1529 9.67326 16.1455 9.49622C16.1455 9.49622 16.5576 11.2296 17.3818 11.6148C17.3818 11.7879 17.4651 12.0777 17.5567 12.3967C17.669 12.7876 17.7939 13.2226 17.7939 13.5407Z" fill="url(#paint14_radial)"/>
<path d="M17.7939 13.5407C17.7939 13.5407 17.414 13.5771 17.1757 13.5407C15.5273 12.5777 15.7333 10.8444 15.7333 10.8444C15.7333 10.4059 15.8725 10.1629 15.9892 9.95918C16.0775 9.80499 16.1529 9.67326 16.1455 9.49622C16.1455 9.49622 16.5576 11.2296 17.3818 11.6148C17.3818 11.7879 17.4651 12.0777 17.5567 12.3967C17.669 12.7876 17.7939 13.2226 17.7939 13.5407Z" fill="url(#paint15_linear)"/>
<path fill-rule="evenodd" clip-rule="evenodd" d="M15.7333 22.4C18.237 22.4 20.2667 20.503 20.2667 18.1629C20.2667 15.8229 18.237 13.9259 15.7333 13.9259C14.9091 12.7704 15.3212 11.2296 15.3212 11.2296C14.0519 12.416 13.7156 13.4644 13.5197 14.0751C13.4293 14.3566 13.3689 14.5451 13.2606 14.6111C12.02 15.3671 11.2 16.6755 11.2 18.1629C11.2 20.503 13.2296 22.4 15.7333 22.4ZM15.7333 20.474C17.3266 20.474 18.4121 19.5035 18.4121 17.9704C18.4121 16.4372 17.3266 15.4667 15.7333 15.4667C14.1401 15.4667 12.8485 16.3498 12.8485 17.9704C12.8485 19.5909 14.1401 20.474 15.7333 20.474Z" fill="#C2A6F1"/>
<path fill-rule="evenodd" clip-rule="evenodd" d="M15.7333 22.4C18.237 22.4 20.2667 20.503 20.2667 18.1629C20.2667 15.8229 18.237 13.9259 15.7333 13.9259C14.9091 12.7704 15.3212 11.2296 15.3212 11.2296C14.0519 12.416 13.7156 13.4644 13.5197 14.0751C13.4293 14.3566 13.3689 14.5451 13.2606 14.6111C12.02 15.3671 11.2 16.6755 11.2 18.1629C11.2 20.503 13.2296 22.4 15.7333 22.4ZM15.7333 20.474C17.3266 20.474 18.4121 19.5035 18.4121 17.9704C18.4121 16.4372 17.3266 15.4667 15.7333 15.4667C14.1401 15.4667 12.8485 16.3498 12.8485 17.9704C12.8485 19.5909 14.1401 20.474 15.7333 20.474Z" fill="url(#paint16_radial)"/>
<path fill-rule="evenodd" clip-rule="evenodd" d="M15.7333 22.4C18.237 22.4 20.2667 20.503 20.2667 18.1629C20.2667 15.8229 18.237 13.9259 15.7333 13.9259C14.9091 12.7704 15.3212 11.2296 15.3212 11.2296C14.0519 12.416 13.7156 13.4644 13.5197 14.0751C13.4293 14.3566 13.3689 14.5451 13.2606 14.6111C12.02 15.3671 11.2 16.6755 11.2 18.1629C11.2 20.503 13.2296 22.4 15.7333 22.4ZM15.7333 20.474C17.3266 20.474 18.4121 19.5035 18.4121 17.9704C18.4121 16.4372 17.3266 15.4667 15.7333 15.4667C14.1401 15.4667 12.8485 16.3498 12.8485 17.9704C12.8485 19.5909 14.1401 20.474 15.7333 20.474Z" fill="url(#paint17_linear)"/>
<path fill-rule="evenodd" clip-rule="evenodd" d="M15.7333 22.4C18.237 22.4 20.2667 20.503 20.2667 18.1629C20.2667 15.8229 18.237 13.9259 15.7333 13.9259C14.9091 12.7704 15.3212 11.2296 15.3212 11.2296C14.0519 12.416 13.7156 13.4644 13.5197 14.0751C13.4293 14.3566 13.3689 14.5451 13.2606 14.6111C12.02 15.3671 11.2 16.6755 11.2 18.1629C11.2 20.503 13.2296 22.4 15.7333 22.4ZM15.7333 20.474C17.3266 20.474 18.4121 19.5035 18.4121 17.9704C18.4121 16.4372 17.3266 15.4667 15.7333 15.4667C14.1401 15.4667 12.8485 16.3498 12.8485 17.9704C12.8485 19.5909 14.1401 20.474 15.7333 20.474Z" fill="url(#paint18_linear)"/>
<path fill-rule="evenodd" clip-rule="evenodd" d="M15.7333 22.4C18.237 22.4 20.2667 20.503 20.2667 18.1629C20.2667 15.8229 18.237 13.9259 15.7333 13.9259C14.9091 12.7704 15.3212 11.2296 15.3212 11.2296C14.0519 12.416 13.7156 13.4644 13.5197 14.0751C13.4293 14.3566 13.3689 14.5451 13.2606 14.6111C12.02 15.3671 11.2 16.6755 11.2 18.1629C11.2 20.503 13.2296 22.4 15.7333 22.4ZM15.7333 20.474C17.3266 20.474 18.4121 19.5035 18.4121 17.9704C18.4121 16.4372 17.3266 15.4667 15.7333 15.4667C14.1401 15.4667 12.8485 16.3498 12.8485 17.9704C12.8485 19.5909 14.1401 20.474 15.7333 20.474Z" fill="url(#paint19_linear)"/>
<path fill-rule="evenodd" clip-rule="evenodd" d="M15.7333 22.4C18.237 22.4 20.2667 20.503 20.2667 18.1629C20.2667 15.8229 18.237 13.9259 15.7333 13.9259C14.9091 12.7704 15.3212 11.2296 15.3212 11.2296C14.0519 12.416 13.7156 13.4644 13.5197 14.0751C13.4293 14.3566 13.3689 14.5451 13.2606 14.6111C12.02 15.3671 11.2 16.6755 11.2 18.1629C11.2 20.503 13.2296 22.4 15.7333 22.4ZM15.7333 20.474C17.3266 20.474 18.4121 19.5035 18.4121 17.9704C18.4121 16.4372 17.3266 15.4667 15.7333 15.4667C14.1401 15.4667 12.8485 16.3498 12.8485 17.9704C12.8485 19.5909 14.1401 20.474 15.7333 20.474Z" fill="url(#paint20_radial)"/>
<path fill-rule="evenodd" clip-rule="evenodd" d="M15.7333 22.4C18.237 22.4 20.2667 20.503 20.2667 18.1629C20.2667 15.8229 18.237 13.9259 15.7333 13.9259C14.9091 12.7704 15.3212 11.2296 15.3212 11.2296C14.0519 12.416 13.7156 13.4644 13.5197 14.0751C13.4293 14.3566 13.3689 14.5451 13.2606 14.6111C12.02 15.3671 11.2 16.6755 11.2 18.1629C11.2 20.503 13.2296 22.4 15.7333 22.4ZM15.7333 20.474C17.3266 20.474 18.4121 19.5035 18.4121 17.9704C18.4121 16.4372 17.3266 15.4667 15.7333 15.4667C14.1401 15.4667 12.8485 16.3498 12.8485 17.9704C12.8485 19.5909 14.1401 20.474 15.7333 20.474Z" fill="url(#paint21_radial)"/>
<path fill-rule="evenodd" clip-rule="evenodd" d="M15.7333 22.4C18.237 22.4 20.2667 20.503 20.2667 18.1629C20.2667 15.8229 18.237 13.9259 15.7333 13.9259C14.9091 12.7704 15.3212 11.2296 15.3212 11.2296C14.0519 12.416 13.7156 13.4644 13.5197 14.0751C13.4293 14.3566 13.3689 14.5451 13.2606 14.6111C12.02 15.3671 11.2 16.6755 11.2 18.1629C11.2 20.503 13.2296 22.4 15.7333 22.4ZM15.7333 20.474C17.3266 20.474 18.4121 19.5035 18.4121 17.9704C18.4121 16.4372 17.3266 15.4667 15.7333 15.4667C14.1401 15.4667 12.8485 16.3498 12.8485 17.9704C12.8485 19.5909 14.1401 20.474 15.7333 20.474Z" fill="url(#paint22_radial)"/>
<path fill-rule="evenodd" clip-rule="evenodd" d="M15.7333 22.4C18.237 22.4 20.2667 20.503 20.2667 18.1629C20.2667 15.8229 18.237 13.9259 15.7333 13.9259C14.9091 12.7704 15.3212 11.2296 15.3212 11.2296C14.0519 12.416 13.7156 13.4644 13.5197 14.0751C13.4293 14.3566 13.3689 14.5451 13.2606 14.6111C12.02 15.3671 11.2 16.6755 11.2 18.1629C11.2 20.503 13.2296 22.4 15.7333 22.4ZM15.7333 20.474C17.3266 20.474 18.4121 19.5035 18.4121 17.9704C18.4121 16.4372 17.3266 15.4667 15.7333 15.4667C14.1401 15.4667 12.8485 16.3498 12.8485 17.9704C12.8485 19.5909 14.1401 20.474 15.7333 20.474Z" fill="url(#paint23_linear)"/>
<path fill-rule="evenodd" clip-rule="evenodd" d="M16 5.86668C21.5964 5.86668 26.1333 10.4036 26.1333 16C26.1333 21.5964 21.5964 26.1333 16 26.1333C10.4036 26.1333 5.86667 21.5964 5.86667 16C5.86667 10.4036 10.4036 5.86668 16 5.86668ZM16 25.0667C21.0073 25.0667 25.0667 21.0073 25.0667 16C25.0667 10.9927 21.0073 6.93335 16 6.93335C10.9927 6.93335 6.93333 10.9927 6.93333 16C6.93333 21.0073 10.9927 25.0667 16 25.0667Z" fill="#C2A6F1"/>
<path fill-rule="evenodd" clip-rule="evenodd" d="M16 5.86668C21.5964 5.86668 26.1333 10.4036 26.1333 16C26.1333 21.5964 21.5964 26.1333 16 26.1333C10.4036 26.1333 5.86667 21.5964 5.86667 16C5.86667 10.4036 10.4036 5.86668 16 5.86668ZM16 25.0667C21.0073 25.0667 25.0667 21.0073 25.0667 16C25.0667 10.9927 21.0073 6.93335 16 6.93335C10.9927 6.93335 6.93333 10.9927 6.93333 16C6.93333 21.0073 10.9927 25.0667 16 25.0667Z" fill="url(#paint24_radial)"/>
<path fill-rule="evenodd" clip-rule="evenodd" d="M16 5.86668C21.5964 5.86668 26.1333 10.4036 26.1333 16C26.1333 21.5964 21.5964 26.1333 16 26.1333C10.4036 26.1333 5.86667 21.5964 5.86667 16C5.86667 10.4036 10.4036 5.86668 16 5.86668ZM16 25.0667C21.0073 25.0667 25.0667 21.0073 25.0667 16C25.0667 10.9927 21.0073 6.93335 16 6.93335C10.9927 6.93335 6.93333 10.9927 6.93333 16C6.93333 21.0073 10.9927 25.0667 16 25.0667Z" fill="url(#paint25_linear)"/>
<path fill-rule="evenodd" clip-rule="evenodd" d="M16 5.86668C21.5964 5.86668 26.1333 10.4036 26.1333 16C26.1333 21.5964 21.5964 26.1333 16 26.1333C10.4036 26.1333 5.86667 21.5964 5.86667 16C5.86667 10.4036 10.4036 5.86668 16 5.86668ZM16 25.0667C21.0073 25.0667 25.0667 21.0073 25.0667 16C25.0667 10.9927 21.0073 6.93335 16 6.93335C10.9927 6.93335 6.93333 10.9927 6.93333 16C6.93333 21.0073 10.9927 25.0667 16 25.0667Z" fill="url(#paint26_linear)"/>
<path fill-rule="evenodd" clip-rule="evenodd" d="M16 5.86668C21.5964 5.86668 26.1333 10.4036 26.1333 16C26.1333 21.5964 21.5964 26.1333 16 26.1333C10.4036 26.1333 5.86667 21.5964 5.86667 16C5.86667 10.4036 10.4036 5.86668 16 5.86668ZM16 25.0667C21.0073 25.0667 25.0667 21.0073 25.0667 16C25.0667 10.9927 21.0073 6.93335 16 6.93335C10.9927 6.93335 6.93333 10.9927 6.93333 16C6.93333 21.0073 10.9927 25.0667 16 25.0667Z" fill="url(#paint27_linear)"/>
<path fill-rule="evenodd" clip-rule="evenodd" d="M16 5.86668C21.5964 5.86668 26.1333 10.4036 26.1333 16C26.1333 21.5964 21.5964 26.1333 16 26.1333C10.4036 26.1333 5.86667 21.5964 5.86667 16C5.86667 10.4036 10.4036 5.86668 16 5.86668ZM16 25.0667C21.0073 25.0667 25.0667 21.0073 25.0667 16C25.0667 10.9927 21.0073 6.93335 16 6.93335C10.9927 6.93335 6.93333 10.9927 6.93333 16C6.93333 21.0073 10.9927 25.0667 16 25.0667Z" fill="url(#paint28_radial)"/>
<path fill-rule="evenodd" clip-rule="evenodd" d="M16 5.86668C21.5964 5.86668 26.1333 10.4036 26.1333 16C26.1333 21.5964 21.5964 26.1333 16 26.1333C10.4036 26.1333 5.86667 21.5964 5.86667 16C5.86667 10.4036 10.4036 5.86668 16 5.86668ZM16 25.0667C21.0073 25.0667 25.0667 21.0073 25.0667 16C25.0667 10.9927 21.0073 6.93335 16 6.93335C10.9927 6.93335 6.93333 10.9927 6.93333 16C6.93333 21.0073 10.9927 25.0667 16 25.0667Z" fill="url(#paint29_radial)"/>
<path fill-rule="evenodd" clip-rule="evenodd" d="M16 5.86668C21.5964 5.86668 26.1333 10.4036 26.1333 16C26.1333 21.5964 21.5964 26.1333 16 26.1333C10.4036 26.1333 5.86667 21.5964 5.86667 16C5.86667 10.4036 10.4036 5.86668 16 5.86668ZM16 25.0667C21.0073 25.0667 25.0667 21.0073 25.0667 16C25.0667 10.9927 21.0073 6.93335 16 6.93335C10.9927 6.93335 6.93333 10.9927 6.93333 16C6.93333 21.0073 10.9927 25.0667 16 25.0667Z" fill="url(#paint30_radial)"/>
<path fill-rule="evenodd" clip-rule="evenodd" d="M16 5.86668C21.5964 5.86668 26.1333 10.4036 26.1333 16C26.1333 21.5964 21.5964 26.1333 16 26.1333C10.4036 26.1333 5.86667 21.5964 5.86667 16C5.86667 10.4036 10.4036 5.86668 16 5.86668ZM16 25.0667C21.0073 25.0667 25.0667 21.0073 25.0667 16C25.0667 10.9927 21.0073 6.93335 16 6.93335C10.9927 6.93335 6.93333 10.9927 6.93333 16C6.93333 21.0073 10.9927 25.0667 16 25.0667Z" fill="url(#paint31_linear)"/>
<path fill-rule="evenodd" clip-rule="evenodd" d="M32 16C32 24.8209 24.8252 31.9973 16.0048 32H15.9951C7.1748 31.9973 0 24.8209 0 16C0 7.17744 7.17744 0 16 0C24.8225 0 32 7.17744 32 16ZM15.4667 30.9239C11.7512 30.7928 8.37656 29.2974 5.82957 26.9246L6.95648 25.7977C9.21143 27.8801 12.1868 29.1938 15.4667 29.3228V30.9239ZM6.20224 25.0435L5.07533 26.1704C2.70255 23.6234 1.20717 20.2488 1.07606 16.5333H2.67714C2.80616 19.8131 4.11987 22.7885 6.20224 25.0435ZM6.20223 6.95651C4.11986 9.21145 2.80615 12.1869 2.67714 15.4667H1.07606C1.20716 11.7512 2.70254 8.37659 5.07533 5.8296L6.20223 6.95651ZM6.95648 6.20226C9.21142 4.11987 12.1868 2.80615 15.4667 2.67714V1.07606C11.7512 1.20717 8.37656 2.70256 5.82957 5.07535L6.95648 6.20226ZM16.5333 29.3228V30.9239C20.2488 30.7928 23.6234 29.2974 26.1704 26.9246L25.0435 25.7977C22.7885 27.8801 19.8131 29.1938 16.5333 29.3228ZM30.9239 16.5333C30.7928 20.2488 29.2974 23.6234 26.9247 26.1704L25.7977 25.0435C27.8801 22.7885 29.1938 19.8131 29.3228 16.5333H30.9239ZM28.2666 15.9868L28.2665 16L28.2666 16.0132C28.2595 22.7819 22.7703 28.2666 16 28.2666C9.22521 28.2666 3.73333 22.7748 3.73333 16C3.73333 9.22521 9.22521 3.73333 16 3.73333C22.7704 3.73333 28.2595 9.21807 28.2666 15.9868ZM29.3228 15.4667H30.9239C30.7928 11.7512 29.2974 8.37659 26.9247 5.8296L25.7977 6.95651C27.8801 9.21145 29.1938 12.1869 29.3228 15.4667ZM25.0435 6.20226L26.1704 5.07535C23.6234 2.70256 20.2488 1.20717 16.5333 1.07606V2.67714C19.8131 2.80615 22.7886 4.11987 25.0435 6.20226Z" fill="#C2A6F1"/>
<path fill-rule="evenodd" clip-rule="evenodd" d="M32 16C32 24.8209 24.8252 31.9973 16.0048 32H15.9951C7.1748 31.9973 0 24.8209 0 16C0 7.17744 7.17744 0 16 0C24.8225 0 32 7.17744 32 16ZM15.4667 30.9239C11.7512 30.7928 8.37656 29.2974 5.82957 26.9246L6.95648 25.7977C9.21143 27.8801 12.1868 29.1938 15.4667 29.3228V30.9239ZM6.20224 25.0435L5.07533 26.1704C2.70255 23.6234 1.20717 20.2488 1.07606 16.5333H2.67714C2.80616 19.8131 4.11987 22.7885 6.20224 25.0435ZM6.20223 6.95651C4.11986 9.21145 2.80615 12.1869 2.67714 15.4667H1.07606C1.20716 11.7512 2.70254 8.37659 5.07533 5.8296L6.20223 6.95651ZM6.95648 6.20226C9.21142 4.11987 12.1868 2.80615 15.4667 2.67714V1.07606C11.7512 1.20717 8.37656 2.70256 5.82957 5.07535L6.95648 6.20226ZM16.5333 29.3228V30.9239C20.2488 30.7928 23.6234 29.2974 26.1704 26.9246L25.0435 25.7977C22.7885 27.8801 19.8131 29.1938 16.5333 29.3228ZM30.9239 16.5333C30.7928 20.2488 29.2974 23.6234 26.9247 26.1704L25.7977 25.0435C27.8801 22.7885 29.1938 19.8131 29.3228 16.5333H30.9239ZM28.2666 15.9868L28.2665 16L28.2666 16.0132C28.2595 22.7819 22.7703 28.2666 16 28.2666C9.22521 28.2666 3.73333 22.7748 3.73333 16C3.73333 9.22521 9.22521 3.73333 16 3.73333C22.7704 3.73333 28.2595 9.21807 28.2666 15.9868ZM29.3228 15.4667H30.9239C30.7928 11.7512 29.2974 8.37659 26.9247 5.8296L25.7977 6.95651C27.8801 9.21145 29.1938 12.1869 29.3228 15.4667ZM25.0435 6.20226L26.1704 5.07535C23.6234 2.70256 20.2488 1.20717 16.5333 1.07606V2.67714C19.8131 2.80615 22.7886 4.11987 25.0435 6.20226Z" fill="url(#paint32_radial)"/>
<path fill-rule="evenodd" clip-rule="evenodd" d="M32 16C32 24.8209 24.8252 31.9973 16.0048 32H15.9951C7.1748 31.9973 0 24.8209 0 16C0 7.17744 7.17744 0 16 0C24.8225 0 32 7.17744 32 16ZM15.4667 30.9239C11.7512 30.7928 8.37656 29.2974 5.82957 26.9246L6.95648 25.7977C9.21143 27.8801 12.1868 29.1938 15.4667 29.3228V30.9239ZM6.20224 25.0435L5.07533 26.1704C2.70255 23.6234 1.20717 20.2488 1.07606 16.5333H2.67714C2.80616 19.8131 4.11987 22.7885 6.20224 25.0435ZM6.20223 6.95651C4.11986 9.21145 2.80615 12.1869 2.67714 15.4667H1.07606C1.20716 11.7512 2.70254 8.37659 5.07533 5.8296L6.20223 6.95651ZM6.95648 6.20226C9.21142 4.11987 12.1868 2.80615 15.4667 2.67714V1.07606C11.7512 1.20717 8.37656 2.70256 5.82957 5.07535L6.95648 6.20226ZM16.5333 29.3228V30.9239C20.2488 30.7928 23.6234 29.2974 26.1704 26.9246L25.0435 25.7977C22.7885 27.8801 19.8131 29.1938 16.5333 29.3228ZM30.9239 16.5333C30.7928 20.2488 29.2974 23.6234 26.9247 26.1704L25.7977 25.0435C27.8801 22.7885 29.1938 19.8131 29.3228 16.5333H30.9239ZM28.2666 15.9868L28.2665 16L28.2666 16.0132C28.2595 22.7819 22.7703 28.2666 16 28.2666C9.22521 28.2666 3.73333 22.7748 3.73333 16C3.73333 9.22521 9.22521 3.73333 16 3.73333C22.7704 3.73333 28.2595 9.21807 28.2666 15.9868ZM29.3228 15.4667H30.9239C30.7928 11.7512 29.2974 8.37659 26.9247 5.8296L25.7977 6.95651C27.8801 9.21145 29.1938 12.1869 29.3228 15.4667ZM25.0435 6.20226L26.1704 5.07535C23.6234 2.70256 20.2488 1.20717 16.5333 1.07606V2.67714C19.8131 2.80615 22.7886 4.11987 25.0435 6.20226Z" fill="url(#paint33_linear)"/>
<path fill-rule="evenodd" clip-rule="evenodd" d="M32 16C32 24.8209 24.8252 31.9973 16.0048 32H15.9951C7.1748 31.9973 0 24.8209 0 16C0 7.17744 7.17744 0 16 0C24.8225 0 32 7.17744 32 16ZM15.4667 30.9239C11.7512 30.7928 8.37656 29.2974 5.82957 26.9246L6.95648 25.7977C9.21143 27.8801 12.1868 29.1938 15.4667 29.3228V30.9239ZM6.20224 25.0435L5.07533 26.1704C2.70255 23.6234 1.20717 20.2488 1.07606 16.5333H2.67714C2.80616 19.8131 4.11987 22.7885 6.20224 25.0435ZM6.20223 6.95651C4.11986 9.21145 2.80615 12.1869 2.67714 15.4667H1.07606C1.20716 11.7512 2.70254 8.37659 5.07533 5.8296L6.20223 6.95651ZM6.95648 6.20226C9.21142 4.11987 12.1868 2.80615 15.4667 2.67714V1.07606C11.7512 1.20717 8.37656 2.70256 5.82957 5.07535L6.95648 6.20226ZM16.5333 29.3228V30.9239C20.2488 30.7928 23.6234 29.2974 26.1704 26.9246L25.0435 25.7977C22.7885 27.8801 19.8131 29.1938 16.5333 29.3228ZM30.9239 16.5333C30.7928 20.2488 29.2974 23.6234 26.9247 26.1704L25.7977 25.0435C27.8801 22.7885 29.1938 19.8131 29.3228 16.5333H30.9239ZM28.2666 15.9868L28.2665 16L28.2666 16.0132C28.2595 22.7819 22.7703 28.2666 16 28.2666C9.22521 28.2666 3.73333 22.7748 3.73333 16C3.73333 9.22521 9.22521 3.73333 16 3.73333C22.7704 3.73333 28.2595 9.21807 28.2666 15.9868ZM29.3228 15.4667H30.9239C30.7928 11.7512 29.2974 8.37659 26.9247 5.8296L25.7977 6.95651C27.8801 9.21145 29.1938 12.1869 29.3228 15.4667ZM25.0435 6.20226L26.1704 5.07535C23.6234 2.70256 20.2488 1.20717 16.5333 1.07606V2.67714C19.8131 2.80615 22.7886 4.11987 25.0435 6.20226Z" fill="url(#paint34_linear)"/>
<path fill-rule="evenodd" clip-rule="evenodd" d="M32 16C32 24.8209 24.8252 31.9973 16.0048 32H15.9951C7.1748 31.9973 0 24.8209 0 16C0 7.17744 7.17744 0 16 0C24.8225 0 32 7.17744 32 16ZM15.4667 30.9239C11.7512 30.7928 8.37656 29.2974 5.82957 26.9246L6.95648 25.7977C9.21143 27.8801 12.1868 29.1938 15.4667 29.3228V30.9239ZM6.20224 25.0435L5.07533 26.1704C2.70255 23.6234 1.20717 20.2488 1.07606 16.5333H2.67714C2.80616 19.8131 4.11987 22.7885 6.20224 25.0435ZM6.20223 6.95651C4.11986 9.21145 2.80615 12.1869 2.67714 15.4667H1.07606C1.20716 11.7512 2.70254 8.37659 5.07533 5.8296L6.20223 6.95651ZM6.95648 6.20226C9.21142 4.11987 12.1868 2.80615 15.4667 2.67714V1.07606C11.7512 1.20717 8.37656 2.70256 5.82957 5.07535L6.95648 6.20226ZM16.5333 29.3228V30.9239C20.2488 30.7928 23.6234 29.2974 26.1704 26.9246L25.0435 25.7977C22.7885 27.8801 19.8131 29.1938 16.5333 29.3228ZM30.9239 16.5333C30.7928 20.2488 29.2974 23.6234 26.9247 26.1704L25.7977 25.0435C27.8801 22.7885 29.1938 19.8131 29.3228 16.5333H30.9239ZM28.2666 15.9868L28.2665 16L28.2666 16.0132C28.2595 22.7819 22.7703 28.2666 16 28.2666C9.22521 28.2666 3.73333 22.7748 3.73333 16C3.73333 9.22521 9.22521 3.73333 16 3.73333C22.7704 3.73333 28.2595 9.21807 28.2666 15.9868ZM29.3228 15.4667H30.9239C30.7928 11.7512 29.2974 8.37659 26.9247 5.8296L25.7977 6.95651C27.8801 9.21145 29.1938 12.1869 29.3228 15.4667ZM25.0435 6.20226L26.1704 5.07535C23.6234 2.70256 20.2488 1.20717 16.5333 1.07606V2.67714C19.8131 2.80615 22.7886 4.11987 25.0435 6.20226Z" fill="url(#paint35_linear)"/>
<path fill-rule="evenodd" clip-rule="evenodd" d="M32 16C32 24.8209 24.8252 31.9973 16.0048 32H15.9951C7.1748 31.9973 0 24.8209 0 16C0 7.17744 7.17744 0 16 0C24.8225 0 32 7.17744 32 16ZM15.4667 30.9239C11.7512 30.7928 8.37656 29.2974 5.82957 26.9246L6.95648 25.7977C9.21143 27.8801 12.1868 29.1938 15.4667 29.3228V30.9239ZM6.20224 25.0435L5.07533 26.1704C2.70255 23.6234 1.20717 20.2488 1.07606 16.5333H2.67714C2.80616 19.8131 4.11987 22.7885 6.20224 25.0435ZM6.20223 6.95651C4.11986 9.21145 2.80615 12.1869 2.67714 15.4667H1.07606C1.20716 11.7512 2.70254 8.37659 5.07533 5.8296L6.20223 6.95651ZM6.95648 6.20226C9.21142 4.11987 12.1868 2.80615 15.4667 2.67714V1.07606C11.7512 1.20717 8.37656 2.70256 5.82957 5.07535L6.95648 6.20226ZM16.5333 29.3228V30.9239C20.2488 30.7928 23.6234 29.2974 26.1704 26.9246L25.0435 25.7977C22.7885 27.8801 19.8131 29.1938 16.5333 29.3228ZM30.9239 16.5333C30.7928 20.2488 29.2974 23.6234 26.9247 26.1704L25.7977 25.0435C27.8801 22.7885 29.1938 19.8131 29.3228 16.5333H30.9239ZM28.2666 15.9868L28.2665 16L28.2666 16.0132C28.2595 22.7819 22.7703 28.2666 16 28.2666C9.22521 28.2666 3.73333 22.7748 3.73333 16C3.73333 9.22521 9.22521 3.73333 16 3.73333C22.7704 3.73333 28.2595 9.21807 28.2666 15.9868ZM29.3228 15.4667H30.9239C30.7928 11.7512 29.2974 8.37659 26.9247 5.8296L25.7977 6.95651C27.8801 9.21145 29.1938 12.1869 29.3228 15.4667ZM25.0435 6.20226L26.1704 5.07535C23.6234 2.70256 20.2488 1.20717 16.5333 1.07606V2.67714C19.8131 2.80615 22.7886 4.11987 25.0435 6.20226Z" fill="url(#paint36_radial)"/>
<path fill-rule="evenodd" clip-rule="evenodd" d="M32 16C32 24.8209 24.8252 31.9973 16.0048 32H15.9951C7.1748 31.9973 0 24.8209 0 16C0 7.17744 7.17744 0 16 0C24.8225 0 32 7.17744 32 16ZM15.4667 30.9239C11.7512 30.7928 8.37656 29.2974 5.82957 26.9246L6.95648 25.7977C9.21143 27.8801 12.1868 29.1938 15.4667 29.3228V30.9239ZM6.20224 25.0435L5.07533 26.1704C2.70255 23.6234 1.20717 20.2488 1.07606 16.5333H2.67714C2.80616 19.8131 4.11987 22.7885 6.20224 25.0435ZM6.20223 6.95651C4.11986 9.21145 2.80615 12.1869 2.67714 15.4667H1.07606C1.20716 11.7512 2.70254 8.37659 5.07533 5.8296L6.20223 6.95651ZM6.95648 6.20226C9.21142 4.11987 12.1868 2.80615 15.4667 2.67714V1.07606C11.7512 1.20717 8.37656 2.70256 5.82957 5.07535L6.95648 6.20226ZM16.5333 29.3228V30.9239C20.2488 30.7928 23.6234 29.2974 26.1704 26.9246L25.0435 25.7977C22.7885 27.8801 19.8131 29.1938 16.5333 29.3228ZM30.9239 16.5333C30.7928 20.2488 29.2974 23.6234 26.9247 26.1704L25.7977 25.0435C27.8801 22.7885 29.1938 19.8131 29.3228 16.5333H30.9239ZM28.2666 15.9868L28.2665 16L28.2666 16.0132C28.2595 22.7819 22.7703 28.2666 16 28.2666C9.22521 28.2666 3.73333 22.7748 3.73333 16C3.73333 9.22521 9.22521 3.73333 16 3.73333C22.7704 3.73333 28.2595 9.21807 28.2666 15.9868ZM29.3228 15.4667H30.9239C30.7928 11.7512 29.2974 8.37659 26.9247 5.8296L25.7977 6.95651C27.8801 9.21145 29.1938 12.1869 29.3228 15.4667ZM25.0435 6.20226L26.1704 5.07535C23.6234 2.70256 20.2488 1.20717 16.5333 1.07606V2.67714C19.8131 2.80615 22.7886 4.11987 25.0435 6.20226Z" fill="url(#paint37_radial)"/>
<path fill-rule="evenodd" clip-rule="evenodd" d="M32 16C32 24.8209 24.8252 31.9973 16.0048 32H15.9951C7.1748 31.9973 0 24.8209 0 16C0 7.17744 7.17744 0 16 0C24.8225 0 32 7.17744 32 16ZM15.4667 30.9239C11.7512 30.7928 8.37656 29.2974 5.82957 26.9246L6.95648 25.7977C9.21143 27.8801 12.1868 29.1938 15.4667 29.3228V30.9239ZM6.20224 25.0435L5.07533 26.1704C2.70255 23.6234 1.20717 20.2488 1.07606 16.5333H2.67714C2.80616 19.8131 4.11987 22.7885 6.20224 25.0435ZM6.20223 6.95651C4.11986 9.21145 2.80615 12.1869 2.67714 15.4667H1.07606C1.20716 11.7512 2.70254 8.37659 5.07533 5.8296L6.20223 6.95651ZM6.95648 6.20226C9.21142 4.11987 12.1868 2.80615 15.4667 2.67714V1.07606C11.7512 1.20717 8.37656 2.70256 5.82957 5.07535L6.95648 6.20226ZM16.5333 29.3228V30.9239C20.2488 30.7928 23.6234 29.2974 26.1704 26.9246L25.0435 25.7977C22.7885 27.8801 19.8131 29.1938 16.5333 29.3228ZM30.9239 16.5333C30.7928 20.2488 29.2974 23.6234 26.9247 26.1704L25.7977 25.0435C27.8801 22.7885 29.1938 19.8131 29.3228 16.5333H30.9239ZM28.2666 15.9868L28.2665 16L28.2666 16.0132C28.2595 22.7819 22.7703 28.2666 16 28.2666C9.22521 28.2666 3.73333 22.7748 3.73333 16C3.73333 9.22521 9.22521 3.73333 16 3.73333C22.7704 3.73333 28.2595 9.21807 28.2666 15.9868ZM29.3228 15.4667H30.9239C30.7928 11.7512 29.2974 8.37659 26.9247 5.8296L25.7977 6.95651C27.8801 9.21145 29.1938 12.1869 29.3228 15.4667ZM25.0435 6.20226L26.1704 5.07535C23.6234 2.70256 20.2488 1.20717 16.5333 1.07606V2.67714C19.8131 2.80615 22.7886 4.11987 25.0435 6.20226Z" fill="url(#paint38_radial)"/>
<path fill-rule="evenodd" clip-rule="evenodd" d="M32 16C32 24.8209 24.8252 31.9973 16.0048 32H15.9951C7.1748 31.9973 0 24.8209 0 16C0 7.17744 7.17744 0 16 0C24.8225 0 32 7.17744 32 16ZM15.4667 30.9239C11.7512 30.7928 8.37656 29.2974 5.82957 26.9246L6.95648 25.7977C9.21143 27.8801 12.1868 29.1938 15.4667 29.3228V30.9239ZM6.20224 25.0435L5.07533 26.1704C2.70255 23.6234 1.20717 20.2488 1.07606 16.5333H2.67714C2.80616 19.8131 4.11987 22.7885 6.20224 25.0435ZM6.20223 6.95651C4.11986 9.21145 2.80615 12.1869 2.67714 15.4667H1.07606C1.20716 11.7512 2.70254 8.37659 5.07533 5.8296L6.20223 6.95651ZM6.95648 6.20226C9.21142 4.11987 12.1868 2.80615 15.4667 2.67714V1.07606C11.7512 1.20717 8.37656 2.70256 5.82957 5.07535L6.95648 6.20226ZM16.5333 29.3228V30.9239C20.2488 30.7928 23.6234 29.2974 26.1704 26.9246L25.0435 25.7977C22.7885 27.8801 19.8131 29.1938 16.5333 29.3228ZM30.9239 16.5333C30.7928 20.2488 29.2974 23.6234 26.9247 26.1704L25.7977 25.0435C27.8801 22.7885 29.1938 19.8131 29.3228 16.5333H30.9239ZM28.2666 15.9868L28.2665 16L28.2666 16.0132C28.2595 22.7819 22.7703 28.2666 16 28.2666C9.22521 28.2666 3.73333 22.7748 3.73333 16C3.73333 9.22521 9.22521 3.73333 16 3.73333C22.7704 3.73333 28.2595 9.21807 28.2666 15.9868ZM29.3228 15.4667H30.9239C30.7928 11.7512 29.2974 8.37659 26.9247 5.8296L25.7977 6.95651C27.8801 9.21145 29.1938 12.1869 29.3228 15.4667ZM25.0435 6.20226L26.1704 5.07535C23.6234 2.70256 20.2488 1.20717 16.5333 1.07606V2.67714C19.8131 2.80615 22.7886 4.11987 25.0435 6.20226Z" fill="url(#paint39_linear)"/>
<defs>
<radialGradient id="paint0_radial" cx="0" cy="0" r="1" gradientUnits="userSpaceOnUse" gradientTransform="translate(29.04 12.848) rotate(105.702) scale(32.3674 14.7885)">
<stop stop-color="#FFFDB1"/>
<stop offset="0.344597" stop-color="#FEE4BF"/>
<stop offset="0.695017" stop-color="#F0BDD0"/>
<stop offset="1" stop-color="#FF8126" stop-opacity="0"/>
</radialGradient>
<linearGradient id="paint1_linear" x1="18.18" y1="-2.16135" x2="25.7893" y2="3.89855" gradientUnits="userSpaceOnUse">
<stop stop-color="#C0A9F0" stop-opacity="0"/>
<stop offset="0.456382" stop-color="#C0A9F0"/>
<stop offset="1" stop-color="#C0A9F0" stop-opacity="0"/>
</linearGradient>
<linearGradient id="paint2_linear" x1="34.28" y1="-7.50469" x2="25.3713" y2="4.55918" gradientUnits="userSpaceOnUse">
<stop stop-color="#C0A9F0" stop-opacity="0"/>
<stop offset="0.461891" stop-color="#C0A9F0"/>
<stop offset="1" stop-color="#C0A9F0" stop-opacity="0"/>
</linearGradient>
<linearGradient id="paint3_linear" x1="8.13999" y1="5.04315" x2="16.9067" y2="13.6859" gradientUnits="userSpaceOnUse">
<stop stop-color="#CDF9E8"/>
<stop offset="1" stop-color="#CDF9E8" stop-opacity="0"/>
</linearGradient>
<radialGradient id="paint4_radial" cx="0" cy="0" r="1" gradientUnits="userSpaceOnUse" gradientTransform="translate(14.58 14.2889) rotate(-117.358) scale(9.83557 19.4353)">
<stop stop-color="#CBADEB"/>
<stop offset="1" stop-color="#C2A6F1" stop-opacity="0"/>
</radialGradient>
<radialGradient id="paint5_radial" cx="0" cy="0" r="1" gradientUnits="userSpaceOnUse" gradientTransform="translate(11.48 32) rotate(-125.099) scale(14.0525 18.7138)">
<stop stop-color="#DC8DDC"/>
<stop offset="1" stop-color="#DC8DDC" stop-opacity="0"/>
</radialGradient>
<radialGradient id="paint6_radial" cx="0" cy="0" r="1" gradientUnits="userSpaceOnUse" gradientTransform="translate(14.16 27.8274) rotate(-136.482) scale(12.1629 23.0508)">
<stop stop-color="#DC8DDC"/>
<stop offset="1" stop-color="#DC8DDC" stop-opacity="0"/>
</radialGradient>
<linearGradient id="paint7_linear" x1="0" y1="0" x2="6.81057" y2="4.48243" gradientUnits="userSpaceOnUse">
<stop stop-color="#EBF3D0"/>
<stop offset="1" stop-color="#EBF3D0" stop-opacity="0"/>
</linearGradient>
<radialGradient id="paint8_radial" cx="0" cy="0" r="1" gradientUnits="userSpaceOnUse" gradientTransform="translate(29.04 12.848) rotate(105.702) scale(32.3674 14.7885)">
<stop stop-color="#FFFDB1"/>
<stop offset="0.344597" stop-color="#FEE4BF"/>
<stop offset="0.695017" stop-color="#F0BDD0"/>
<stop offset="1" stop-color="#FF8126" stop-opacity="0"/>
</radialGradient>
<linearGradient id="paint9_linear" x1="18.18" y1="-2.16135" x2="25.7893" y2="3.89855" gradientUnits="userSpaceOnUse">
<stop stop-color="#C0A9F0" stop-opacity="0"/>
<stop offset="0.456382" stop-color="#C0A9F0"/>
<stop offset="1" stop-color="#C0A9F0" stop-opacity="0"/>
</linearGradient>
<linearGradient id="paint10_linear" x1="34.28" y1="-7.50469" x2="25.3713" y2="4.55918" gradientUnits="userSpaceOnUse">
<stop stop-color="#C0A9F0" stop-opacity="0"/>
<stop offset="0.461891" stop-color="#C0A9F0"/>
<stop offset="1" stop-color="#C0A9F0" stop-opacity="0"/>
</linearGradient>
<linearGradient id="paint11_linear" x1="8.13999" y1="5.04315" x2="16.9067" y2="13.6859" gradientUnits="userSpaceOnUse">
<stop stop-color="#CDF9E8"/>
<stop offset="1" stop-color="#CDF9E8" stop-opacity="0"/>
</linearGradient>
<radialGradient id="paint12_radial" cx="0" cy="0" r="1" gradientUnits="userSpaceOnUse" gradientTransform="translate(14.58 14.2889) rotate(-117.358) scale(9.83557 19.4353)">
<stop stop-color="#CBADEB"/>
<stop offset="1" stop-color="#C2A6F1" stop-opacity="0"/>
</radialGradient>
<radialGradient id="paint13_radial" cx="0" cy="0" r="1" gradientUnits="userSpaceOnUse" gradientTransform="translate(11.48 32) rotate(-125.099) scale(14.0525 18.7138)">
<stop stop-color="#DC8DDC"/>
<stop offset="1" stop-color="#DC8DDC" stop-opacity="0"/>
</radialGradient>
<radialGradient id="paint14_radial" cx="0" cy="0" r="1" gradientUnits="userSpaceOnUse" gradientTransform="translate(14.16 27.8274) rotate(-136.482) scale(12.1629 23.0508)">
<stop stop-color="#DC8DDC"/>
<stop offset="1" stop-color="#DC8DDC" stop-opacity="0"/>
</radialGradient>
<linearGradient id="paint15_linear" x1="0" y1="0" x2="6.81057" y2="4.48243" gradientUnits="userSpaceOnUse">
<stop stop-color="#EBF3D0"/>
<stop offset="1" stop-color="#EBF3D0" stop-opacity="0"/>
</linearGradient>
<radialGradient id="paint16_radial" cx="0" cy="0" r="1" gradientUnits="userSpaceOnUse" gradientTransform="translate(29.04 12.848) rotate(105.702) scale(32.3674 14.7885)">
<stop stop-color="#FFFDB1"/>
<stop offset="0.344597" stop-color="#FEE4BF"/>
<stop offset="0.695017" stop-color="#F0BDD0"/>
<stop offset="1" stop-color="#FF8126" stop-opacity="0"/>
</radialGradient>
<linearGradient id="paint17_linear" x1="18.18" y1="-2.16135" x2="25.7893" y2="3.89855" gradientUnits="userSpaceOnUse">
<stop stop-color="#C0A9F0" stop-opacity="0"/>
<stop offset="0.456382" stop-color="#C0A9F0"/>
<stop offset="1" stop-color="#C0A9F0" stop-opacity="0"/>
</linearGradient>
<linearGradient id="paint18_linear" x1="34.28" y1="-7.50469" x2="25.3713" y2="4.55918" gradientUnits="userSpaceOnUse">
<stop stop-color="#C0A9F0" stop-opacity="0"/>
<stop offset="0.461891" stop-color="#C0A9F0"/>
<stop offset="1" stop-color="#C0A9F0" stop-opacity="0"/>
</linearGradient>
<linearGradient id="paint19_linear" x1="8.13999" y1="5.04315" x2="16.9067" y2="13.6859" gradientUnits="userSpaceOnUse">
<stop stop-color="#CDF9E8"/>
<stop offset="1" stop-color="#CDF9E8" stop-opacity="0"/>
</linearGradient>
<radialGradient id="paint20_radial" cx="0" cy="0" r="1" gradientUnits="userSpaceOnUse" gradientTransform="translate(14.58 14.2889) rotate(-117.358) scale(9.83557 19.4353)">
<stop stop-color="#CBADEB"/>
<stop offset="1" stop-color="#C2A6F1" stop-opacity="0"/>
</radialGradient>
<radialGradient id="paint21_radial" cx="0" cy="0" r="1" gradientUnits="userSpaceOnUse" gradientTransform="translate(11.48 32) rotate(-125.099) scale(14.0525 18.7138)">
<stop stop-color="#DC8DDC"/>
<stop offset="1" stop-color="#DC8DDC" stop-opacity="0"/>
</radialGradient>
<radialGradient id="paint22_radial" cx="0" cy="0" r="1" gradientUnits="userSpaceOnUse" gradientTransform="translate(14.16 27.8274) rotate(-136.482) scale(12.1629 23.0508)">
<stop stop-color="#DC8DDC"/>
<stop offset="1" stop-color="#DC8DDC" stop-opacity="0"/>
</radialGradient>
<linearGradient id="paint23_linear" x1="0" y1="0" x2="6.81057" y2="4.48243" gradientUnits="userSpaceOnUse">
<stop stop-color="#EBF3D0"/>
<stop offset="1" stop-color="#EBF3D0" stop-opacity="0"/>
</linearGradient>
<radialGradient id="paint24_radial" cx="0" cy="0" r="1" gradientUnits="userSpaceOnUse" gradientTransform="translate(29.04 12.848) rotate(105.702) scale(32.3674 14.7885)">
<stop stop-color="#FFFDB1"/>
<stop offset="0.344597" stop-color="#FEE4BF"/>
<stop offset="0.695017" stop-color="#F0BDD0"/>
<stop offset="1" stop-color="#FF8126" stop-opacity="0"/>
</radialGradient>
<linearGradient id="paint25_linear" x1="18.18" y1="-2.16135" x2="25.7893" y2="3.89855" gradientUnits="userSpaceOnUse">
<stop stop-color="#C0A9F0" stop-opacity="0"/>
<stop offset="0.456382" stop-color="#C0A9F0"/>
<stop offset="1" stop-color="#C0A9F0" stop-opacity="0"/>
</linearGradient>
<linearGradient id="paint26_linear" x1="34.28" y1="-7.50469" x2="25.3713" y2="4.55918" gradientUnits="userSpaceOnUse">
<stop stop-color="#C0A9F0" stop-opacity="0"/>
<stop offset="0.461891" stop-color="#C0A9F0"/>
<stop offset="1" stop-color="#C0A9F0" stop-opacity="0"/>
</linearGradient>
<linearGradient id="paint27_linear" x1="8.13999" y1="5.04315" x2="16.9067" y2="13.6859" gradientUnits="userSpaceOnUse">
<stop stop-color="#CDF9E8"/>
<stop offset="1" stop-color="#CDF9E8" stop-opacity="0"/>
</linearGradient>
<radialGradient id="paint28_radial" cx="0" cy="0" r="1" gradientUnits="userSpaceOnUse" gradientTransform="translate(14.58 14.2889) rotate(-117.358) scale(9.83557 19.4353)">
<stop stop-color="#CBADEB"/>
<stop offset="1" stop-color="#C2A6F1" stop-opacity="0"/>
</radialGradient>
<radialGradient id="paint29_radial" cx="0" cy="0" r="1" gradientUnits="userSpaceOnUse" gradientTransform="translate(11.48 32) rotate(-125.099) scale(14.0525 18.7138)">
<stop stop-color="#DC8DDC"/>
<stop offset="1" stop-color="#DC8DDC" stop-opacity="0"/>
</radialGradient>
<radialGradient id="paint30_radial" cx="0" cy="0" r="1" gradientUnits="userSpaceOnUse" gradientTransform="translate(14.16 27.8274) rotate(-136.482) scale(12.1629 23.0508)">
<stop stop-color="#DC8DDC"/>
<stop offset="1" stop-color="#DC8DDC" stop-opacity="0"/>
</radialGradient>
<linearGradient id="paint31_linear" x1="0" y1="0" x2="6.81057" y2="4.48243" gradientUnits="userSpaceOnUse">
<stop stop-color="#EBF3D0"/>
<stop offset="1" stop-color="#EBF3D0" stop-opacity="0"/>
</linearGradient>
<radialGradient id="paint32_radial" cx="0" cy="0" r="1" gradientUnits="userSpaceOnUse" gradientTransform="translate(29.04 12.848) rotate(105.702) scale(32.3674 14.7885)">
<stop stop-color="#FFFDB1"/>
<stop offset="0.344597" stop-color="#FEE4BF"/>
<stop offset="0.695017" stop-color="#F0BDD0"/>
<stop offset="1" stop-color="#FF8126" stop-opacity="0"/>
</radialGradient>
<linearGradient id="paint33_linear" x1="18.18" y1="-2.16135" x2="25.7893" y2="3.89855" gradientUnits="userSpaceOnUse">
<stop stop-color="#C0A9F0" stop-opacity="0"/>
<stop offset="0.456382" stop-color="#C0A9F0"/>
<stop offset="1" stop-color="#C0A9F0" stop-opacity="0"/>
</linearGradient>
<linearGradient id="paint34_linear" x1="34.28" y1="-7.50469" x2="25.3713" y2="4.55918" gradientUnits="userSpaceOnUse">
<stop stop-color="#C0A9F0" stop-opacity="0"/>
<stop offset="0.461891" stop-color="#C0A9F0"/>
<stop offset="1" stop-color="#C0A9F0" stop-opacity="0"/>
</linearGradient>
<linearGradient id="paint35_linear" x1="8.13999" y1="5.04315" x2="16.9067" y2="13.6859" gradientUnits="userSpaceOnUse">
<stop stop-color="#CDF9E8"/>
<stop offset="1" stop-color="#CDF9E8" stop-opacity="0"/>
</linearGradient>
<radialGradient id="paint36_radial" cx="0" cy="0" r="1" gradientUnits="userSpaceOnUse" gradientTransform="translate(14.58 14.2889) rotate(-117.358) scale(9.83557 19.4353)">
<stop stop-color="#CBADEB"/>
<stop offset="1" stop-color="#C2A6F1" stop-opacity="0"/>
</radialGradient>
<radialGradient id="paint37_radial" cx="0" cy="0" r="1" gradientUnits="userSpaceOnUse" gradientTransform="translate(11.48 32) rotate(-125.099) scale(14.0525 18.7138)">
<stop stop-color="#DC8DDC"/>
<stop offset="1" stop-color="#DC8DDC" stop-opacity="0"/>
</radialGradient>
<radialGradient id="paint38_radial" cx="0" cy="0" r="1" gradientUnits="userSpaceOnUse" gradientTransform="translate(14.16 27.8274) rotate(-136.482) scale(12.1629 23.0508)">
<stop stop-color="#DC8DDC"/>
<stop offset="1" stop-color="#DC8DDC" stop-opacity="0"/>
</radialGradient>
<linearGradient id="paint39_linear" x1="0" y1="0" x2="6.81057" y2="4.48243" gradientUnits="userSpaceOnUse">
<stop stop-color="#EBF3D0"/>
<stop offset="1" stop-color="#EBF3D0" stop-opacity="0"/>
</linearGradient>
</defs>
</svg>
