<svg width="24" height="24" viewBox="0 0 24 24" fill="none" xmlns="http://www.w3.org/2000/svg">
<path d="M13.7667 9.47653e-05L13.2559 3.37305L15.5018 3.7148L16.0127 0.341852L13.7667 9.47653e-05Z" fill="white"/>
<path d="M23.6582 8.00844L20.293 8.52051L20.6339 10.7716L23.9992 10.2596L23.6582 8.00844Z" fill="white"/>
<path d="M19.4192 2.9499L16.9961 5.37793L18.6021 6.98813L21.0253 4.5601L19.4192 2.9499Z" fill="white"/>
<path d="M2.07836 23.7628C1.70819 23.9072 1.28765 23.8188 1.00701 23.5375L0.460038 22.9892C0.18039 22.709 0.0924506 22.2901 0.235771 21.921L6.57323 5.60034C6.69564 5.2851 6.96909 5.05308 7.30006 4.98363L8.10176 4.81541C8.43266 4.74598 8.77623 4.84845 9.01503 5.0878L18.8708 14.9662C19.1088 15.2048 19.2106 15.5471 19.1417 15.877L18.9729 16.6852C18.9038 17.016 18.6723 17.2895 18.3575 17.4123L2.07836 23.7628ZM8.24982 7.54259L3.05156 20.9381L16.4164 15.7279L8.24982 7.54259Z" fill="white"/>
</svg>
