<svg width="20" height="24" viewBox="0 0 20 24" fill="none" xmlns="http://www.w3.org/2000/svg">
<path d="M0.87 1.992L10 0L19.13 1.992C19.3767 2.04585 19.5974 2.18069 19.7556 2.37426C19.9137 2.56783 20 2.80856 20 3.05673V13.9516C19.9999 15.0292 19.7289 16.09 19.211 17.04C18.6931 17.99 17.9443 18.7998 17.0311 19.3975L10 24L2.96889 19.3975C2.05586 18.7999 1.30718 17.9903 0.789276 17.0405C0.271373 16.0907 0.000262618 15.0301 0 13.9527V3.05673C4.33753e-05 2.80856 0.0862644 2.56783 0.244433 2.37426C0.402601 2.18069 0.623263 2.04585 0.87 1.992ZM2.22222 3.93164V13.9516C2.22223 14.67 2.40286 15.3772 2.74807 16.0105C3.09328 16.6438 3.59239 17.1837 4.20111 17.5822L10 21.3785L15.7989 17.5822C16.4075 17.1838 16.9065 16.6441 17.2517 16.011C17.5969 15.3779 17.7776 14.6709 17.7778 13.9527V3.93164L10 2.23636L2.22222 3.93164ZM10 10.9091C9.26329 10.9091 8.55675 10.6218 8.03582 10.1103C7.51488 9.59883 7.22222 8.90514 7.22222 8.18182C7.22222 7.4585 7.51488 6.76481 8.03582 6.25335C8.55675 5.74188 9.26329 5.45455 10 5.45455C10.7367 5.45455 11.4433 5.74188 11.9642 6.25335C12.4851 6.76481 12.7778 7.4585 12.7778 8.18182C12.7778 8.90514 12.4851 9.59883 11.9642 10.1103C11.4433 10.6218 10.7367 10.9091 10 10.9091ZM5.03 16.3636C5.16469 15.1619 5.74632 14.0512 6.66342 13.2444C7.58053 12.4376 8.76861 11.9915 10 11.9915C11.2314 11.9915 12.4195 12.4376 13.3366 13.2444C14.2537 14.0512 14.8353 15.1619 14.97 16.3636H5.03Z" fill="white"/>
</svg>
