<svg width="24" height="24" viewBox="0 0 24 24" fill="none" xmlns="http://www.w3.org/2000/svg">
<path d="M17.6489 15.2562C18.6938 14.1587 19.3923 12.7809 19.658 11.293C19.9237 9.80514 19.7451 8.27248 19.1441 6.88445C18.5431 5.49643 17.5462 4.3139 16.2765 3.48302C15.0069 2.65214 13.5201 2.20933 12 2.20933C10.4799 2.20933 8.99315 2.65214 7.72347 3.48302C6.45379 4.3139 5.45685 5.49643 4.85589 6.88445C4.25492 8.27248 4.07626 9.80514 4.342 11.293C4.60774 12.7809 5.30622 14.1587 6.35111 15.2562C6.95074 14.305 7.78373 13.5209 8.77186 12.9776C9.75998 12.4343 10.8708 12.1496 12 12.1502C13.1292 12.1496 14.24 12.4343 15.2281 12.9776C16.2163 13.5209 17.0493 14.305 17.6489 15.2562ZM7.98334 16.8833L12 20.8752L16.0167 16.8833C15.6565 16.1272 15.0878 15.4884 14.3767 15.0411C13.6657 14.5937 12.8415 14.3563 12 14.3563C11.1585 14.3563 10.3343 14.5937 9.62328 15.0411C8.91223 15.4884 8.34354 16.1272 7.98334 16.8833ZM12 24L4.92889 16.9705C3.53038 15.5802 2.57798 13.8089 2.19214 11.8805C1.8063 9.95211 2.00434 7.95329 2.76122 6.13679C3.5181 4.3203 4.79982 2.76771 6.44431 1.67537C8.0888 0.583034 10.0222 0 12 0C13.9778 0 15.9112 0.583034 17.5557 1.67537C19.2002 2.76771 20.4819 4.3203 21.2388 6.13679C21.9957 7.95329 22.1937 9.95211 21.8079 11.8805C21.422 13.8089 20.4696 15.5802 19.0711 16.9705L12 24ZM12 8.83647C12.2947 8.83647 12.5773 8.72009 12.7857 8.51295C12.994 8.3058 13.1111 8.02485 13.1111 7.7319C13.1111 7.43895 12.994 7.158 12.7857 6.95085C12.5773 6.7437 12.2947 6.62733 12 6.62733C11.7053 6.62733 11.4227 6.7437 11.2143 6.95085C11.006 7.158 10.8889 7.43895 10.8889 7.7319C10.8889 8.02485 11.006 8.3058 11.2143 8.51295C11.4227 8.72009 11.7053 8.83647 12 8.83647ZM12 11.0456C11.1159 11.0456 10.2681 10.6965 9.64298 10.075C9.01786 9.4536 8.66667 8.61075 8.66667 7.7319C8.66667 6.85305 9.01786 6.0102 9.64298 5.38875C10.2681 4.76731 11.1159 4.41819 12 4.41819C12.8841 4.41819 13.7319 4.76731 14.357 5.38875C14.9821 6.0102 15.3333 6.85305 15.3333 7.7319C15.3333 8.61075 14.9821 9.4536 14.357 10.075C13.7319 10.6965 12.8841 11.0456 12 11.0456Z" fill="white"/>
</svg>
