<svg width="40" height="44" viewBox="0 0 40 44" fill="none" xmlns="http://www.w3.org/2000/svg">
<path d="M39.4971 35.2C38.2616 31.5854 36.7126 29.3386 35.6875 27.8522C35.208 27.1556 34.6108 26.2903 34.6559 26.04C34.6559 26.038 34.6951 25.8577 35.2393 25.495C36.316 24.7785 36.7844 23.3572 36.7407 22.0737C37.8539 20.1375 38.3988 17.8215 38.1362 15.4053C37.5541 10.0362 33.2362 5.98688 28.0912 5.98688C27.709 5.98688 27.3209 6.01019 26.9374 6.05613C21.3939 6.72118 17.3981 11.9936 18.0319 17.8105C18.2455 19.7789 18.9642 21.567 20.0382 23.0466C17.9731 23.4559 14.1942 23.8145 11.3084 21.8625C9.13023 20.3891 7.8118 17.8071 7.37473 14.2007H9.34975C10.5767 14.2007 11.884 13.2038 12.3257 11.9299L15.5283 2.69519C15.7733 1.99106 15.7145 1.28897 15.3682 0.769957C15.0416 0.28042 14.4862 0 13.844 0H10.8178C9.59083 0 8.28416 0.9969 7.84186 2.27011L6.75079 5.41644C6.17782 5.27657 5.55781 5.23818 4.91624 5.35405C1.22165 6.0143 0.289999 9.52676 0.0286669 14.5976C-0.148386 18.0326 0.522585 22.4158 1.27326 24.6702C2.90855 29.5847 6.90694 34.5137 13.2201 34.5137C14.1321 34.5137 15.0971 34.4026 16.1058 34.1812C16.0869 34.3533 16.066 34.5274 16.0477 34.6961C15.8216 36.7605 15.5878 38.8941 14.1138 42.6521C13.9185 43.1505 14.1445 43.7216 14.6202 43.9259C14.7358 43.976 14.856 44 14.9743 44C15.3401 44 15.6871 43.7717 15.8347 43.3946C17.4073 39.3857 17.6673 37.0121 17.8966 34.9182C17.9665 34.2799 18.0325 33.6765 18.1318 33.0458C18.1331 33.0382 18.1318 33.0314 18.1331 33.0238C18.1384 32.9868 18.139 32.9505 18.1397 32.9128C18.1403 32.884 18.1423 32.8552 18.1403 32.8264C18.139 32.7969 18.1331 32.7674 18.1286 32.7372C18.1233 32.7016 18.1181 32.6659 18.109 32.6316C18.107 32.6241 18.107 32.6166 18.105 32.609C18.0998 32.5898 18.09 32.5727 18.0835 32.5549C18.0711 32.5199 18.0587 32.4849 18.043 32.4527C18.0306 32.426 18.0155 32.402 18.0012 32.3766C17.9842 32.3485 17.9672 32.3204 17.9476 32.2936C17.9299 32.2696 17.9103 32.2477 17.8907 32.2244C17.8698 32.2011 17.8489 32.1784 17.8254 32.1565C17.8032 32.1359 17.7797 32.1174 17.7562 32.0996C17.732 32.0811 17.7078 32.0626 17.6817 32.0468C17.6542 32.0304 17.6255 32.016 17.5961 32.0022C17.5713 31.9906 17.5471 31.9789 17.5216 31.9686C17.4857 31.9556 17.4491 31.9467 17.4119 31.9378C17.3962 31.9337 17.3811 31.9268 17.3648 31.9241C17.3583 31.9227 17.3524 31.9241 17.3465 31.9227C17.3034 31.9159 17.259 31.9152 17.2152 31.9152C17.1982 31.9152 17.1819 31.9131 17.1649 31.9145C17.1244 31.9165 17.0839 31.9241 17.0434 31.9323C17.0218 31.9364 17.0003 31.9399 16.9787 31.946C16.9682 31.9488 16.9578 31.9488 16.948 31.9522C9.41443 34.3066 4.81955 29.4017 3.03007 24.0257C2.35387 21.9955 1.72472 17.8537 1.88674 14.7025C2.1827 8.96386 3.38483 7.60701 5.22984 7.27723C6.44569 7.06125 7.42046 7.66186 7.56877 8.3612C7.74582 9.19766 6.72923 10.3852 4.05907 11.1538C3.56319 11.2964 3.2718 11.8332 3.4077 12.3536C3.54359 12.8733 4.05515 13.1805 4.55103 13.0365C4.57063 13.031 4.58761 13.0241 4.60721 13.0187C4.67647 13.2189 4.76924 13.4067 4.90121 13.5678C5.06193 13.7626 5.2625 13.912 5.49052 14.0183C5.48725 14.0752 5.4866 14.1328 5.49248 14.1918C5.9668 18.5366 7.58706 21.6712 10.3088 23.508C12.3975 24.9184 14.7972 25.3291 16.8872 25.3291C18.9289 25.3291 20.67 24.9376 21.5383 24.6996C23.3082 26.278 25.5916 27.2269 28.0723 27.2269C28.3316 27.2269 28.5936 27.2015 28.8556 27.1802C29.0902 29.9221 29.8219 33.4153 30.7627 37.8767C31.007 39.49 32.2738 42.541 35.3197 42.5417H35.3203C35.5405 42.5417 35.7692 42.5259 35.9985 42.493C37.9585 42.2194 38.9221 41.2102 39.3854 40.4121C40.1654 39.0697 40.2033 37.2672 39.4971 35.2ZM9.38568 7.93954C9.19687 7.04823 8.63043 6.32558 7.85819 5.85867L8.95579 2.69588C9.22888 1.90878 10.0821 1.24372 10.8191 1.24372H13.8453C14.025 1.24372 14.2674 1.28555 14.4 1.48369C14.5215 1.66607 14.5274 1.95266 14.417 2.27079L11.2144 11.5062C10.9413 12.2926 10.088 12.9583 9.35105 12.9583H6.32482C6.16084 12.9583 5.93609 12.9234 5.79824 12.7561C5.76753 12.719 5.74597 12.6786 5.72833 12.6361C8.86301 11.3971 9.70647 9.4534 9.38568 7.93954ZM35.7528 40.5582C35.6026 40.5787 35.4588 40.5897 35.321 40.5897C33.1055 40.589 32.6201 37.6902 32.5907 37.5133C30.1538 25.9516 29.6056 22.553 33.0853 21.0857C33.4146 20.9465 33.7072 20.8759 33.9555 20.8759C34.1345 20.8759 34.6088 20.8759 34.8173 21.6287C35.042 22.4405 34.7683 23.4977 34.2436 23.8467C33.7151 24.1985 32.9938 24.7703 32.8292 25.6719C32.6319 26.751 33.2813 27.6924 34.1803 28.9965C35.2008 30.4774 36.5995 32.5048 37.7455 35.8589C38.2486 37.3309 38.2668 38.587 37.7971 39.3974C37.4299 40.0295 36.7426 40.4197 35.7528 40.5582ZM19.9795 17.5774C19.4692 12.887 22.6901 8.63613 27.1602 8.09998C27.4692 8.06295 27.7828 8.04444 28.0919 8.04444C32.2392 8.04444 35.7208 11.3094 36.1899 15.6391C36.3408 17.0309 36.1572 18.3809 35.7162 19.6096C34.9133 18.8862 33.7249 18.7107 32.3908 19.2743C29.8487 20.3459 28.8465 22.1717 28.7746 25.1302C28.5407 25.1508 28.3062 25.172 28.0736 25.172C23.9282 25.1714 20.4485 21.9064 19.9795 17.5774Z" fill="#FD2356"/>
<path d="M26.5268 18.7484C25.5971 18.6442 25.2933 18.4893 24.2865 17.9764L23.9246 17.7927C23.4385 17.5479 22.8511 17.7618 22.6166 18.2733C22.382 18.7848 22.5872 19.3998 23.0746 19.6459L23.4306 19.8269C24.5073 20.3754 25.0483 20.651 26.3184 20.793C26.3536 20.7971 26.3889 20.7991 26.4236 20.7991C26.9181 20.7991 27.3428 20.4076 27.397 19.8797C27.4545 19.3154 27.0645 18.8088 26.5268 18.7484Z" fill="#FD2356"/>
<path d="M10.2079 6.74164C10.888 6.74164 11.6387 6.16366 11.8863 5.44992C12.1339 4.73618 11.7837 4.1582 11.1036 4.1582C10.4235 4.1582 9.6728 4.73618 9.42519 5.44992C9.17758 6.16366 9.52776 6.74164 10.2079 6.74164Z" fill="#FD2356"/>
<path d="M9.93917 2.74171C10.1744 2.74171 10.4344 2.54151 10.5206 2.29468C10.6069 2.04786 10.4854 1.84766 10.2495 1.84766C10.0137 1.84766 9.75363 2.04786 9.66804 2.29468C9.58245 2.54151 9.70397 2.74171 9.93917 2.74171Z" fill="#FD2356"/>
</svg>
