<svg width="24" height="24" viewBox="0 0 24 24" fill="none" xmlns="http://www.w3.org/2000/svg">
<path d="M0.913788 0.0697371L23.6808 11.5067C23.7775 11.5553 23.8581 11.6267 23.9142 11.7135C23.9704 11.8003 24 11.8992 24 12C24 12.1008 23.9704 12.1997 23.9142 12.2865C23.8581 12.3733 23.7775 12.4447 23.6808 12.4933L0.913788 23.9303C0.81991 23.9774 0.714195 24.0014 0.607062 23.9999C0.49993 23.9984 0.395078 23.9714 0.302841 23.9216C0.210604 23.8718 0.134166 23.8009 0.0810613 23.716C0.0279567 23.631 1.83442e-05 23.5348 0 23.4369V0.563077C1.83442e-05 0.465214 0.0279567 0.369044 0.0810613 0.284047C0.134166 0.19905 0.210604 0.128159 0.302841 0.0783616C0.395078 0.0285643 0.49993 0.00157961 0.607062 6.72672e-05C0.714195 -0.00144508 0.81991 0.0225671 0.913788 0.0697371ZM2.46636 13.1263V20.5794L19.5459 12L2.46636 3.42062V10.8737H8.63227V13.1263H2.46636Z" fill="white"/>
</svg>
