<svg width="24" height="24" viewBox="0 0 24 24" fill="none" xmlns="http://www.w3.org/2000/svg">
<path d="M6 4.8H4.8V1.2C4.8 0.88174 4.67357 0.576515 4.44853 0.351472C4.22348 0.126428 3.91826 0 3.6 0C3.28174 0 2.97652 0.126428 2.75147 0.351472C2.52643 0.576515 2.4 0.88174 2.4 1.2V4.8H1.2C0.88174 4.8 0.576515 4.92643 0.351472 5.15147C0.126428 5.37652 0 5.68174 0 6C0 6.31826 0.126428 6.62348 0.351472 6.84853C0.576515 7.07357 0.88174 7.2 1.2 7.2H6C6.31826 7.2 6.62348 7.07357 6.84853 6.84853C7.07357 6.62348 7.2 6.31826 7.2 6C7.2 5.68174 7.07357 5.37652 6.84853 5.15147C6.62348 4.92643 6.31826 4.8 6 4.8ZM3.6 9.6C3.28174 9.6 2.97652 9.72643 2.75147 9.95147C2.52643 10.1765 2.4 10.4817 2.4 10.8V22.8C2.4 23.1183 2.52643 23.4235 2.75147 23.6485C2.97652 23.8736 3.28174 24 3.6 24C3.91826 24 4.22348 23.8736 4.44853 23.6485C4.67357 23.4235 4.8 23.1183 4.8 22.8V10.8C4.8 10.4817 4.67357 10.1765 4.44853 9.95147C4.22348 9.72643 3.91826 9.6 3.6 9.6ZM12 19.2C11.6817 19.2 11.3765 19.3264 11.1515 19.5515C10.9264 19.7765 10.8 20.0817 10.8 20.4V22.8C10.8 23.1183 10.9264 23.4235 11.1515 23.6485C11.3765 23.8736 11.6817 24 12 24C12.3183 24 12.6235 23.8736 12.8485 23.6485C13.0736 23.4235 13.2 23.1183 13.2 22.8V20.4C13.2 20.0817 13.0736 19.7765 12.8485 19.5515C12.6235 19.3264 12.3183 19.2 12 19.2ZM22.8 9.6H21.6V1.2C21.6 0.88174 21.4736 0.576515 21.2485 0.351472C21.0235 0.126428 20.7183 0 20.4 0C20.0817 0 19.7765 0.126428 19.5515 0.351472C19.3264 0.576515 19.2 0.88174 19.2 1.2V9.6H18C17.6817 9.6 17.3765 9.72643 17.1515 9.95147C16.9264 10.1765 16.8 10.4817 16.8 10.8C16.8 11.1183 16.9264 11.4235 17.1515 11.6485C17.3765 11.8736 17.6817 12 18 12H22.8C23.1183 12 23.4235 11.8736 23.6485 11.6485C23.8736 11.4235 24 11.1183 24 10.8C24 10.4817 23.8736 10.1765 23.6485 9.95147C23.4235 9.72643 23.1183 9.6 22.8 9.6ZM20.4 14.4C20.0817 14.4 19.7765 14.5264 19.5515 14.7515C19.3264 14.9765 19.2 15.2817 19.2 15.6V22.8C19.2 23.1183 19.3264 23.4235 19.5515 23.6485C19.7765 23.8736 20.0817 24 20.4 24C20.7183 24 21.0235 23.8736 21.2485 23.6485C21.4736 23.4235 21.6 23.1183 21.6 22.8V15.6C21.6 15.2817 21.4736 14.9765 21.2485 14.7515C21.0235 14.5264 20.7183 14.4 20.4 14.4ZM14.4 14.4H13.2V1.2C13.2 0.88174 13.0736 0.576515 12.8485 0.351472C12.6235 0.126428 12.3183 0 12 0C11.6817 0 11.3765 0.126428 11.1515 0.351472C10.9264 0.576515 10.8 0.88174 10.8 1.2V14.4H9.6C9.28174 14.4 8.97652 14.5264 8.75147 14.7515C8.52643 14.9765 8.4 15.2817 8.4 15.6C8.4 15.9183 8.52643 16.2235 8.75147 16.4485C8.97652 16.6736 9.28174 16.8 9.6 16.8H14.4C14.7183 16.8 15.0235 16.6736 15.2485 16.4485C15.4736 16.2235 15.6 15.9183 15.6 15.6C15.6 15.2817 15.4736 14.9765 15.2485 14.7515C15.0235 14.5264 14.7183 14.4 14.4 14.4Z" fill="white"/>
</svg>
