<svg width="24" height="24" viewBox="0 0 24 24" fill="none" xmlns="http://www.w3.org/2000/svg">
<path d="M14.047 18.0266L8.74286 15.2791C8.05037 15.9822 7.15121 16.4713 6.16223 16.6827C5.17326 16.8941 4.1402 16.8181 3.19732 16.4645C2.25443 16.1109 1.44531 15.4962 0.875111 14.7001C0.304912 13.904 0 12.9634 0 12.0006C0 11.0378 0.304912 10.0972 0.875111 9.30112C1.44531 8.50504 2.25443 7.89027 3.19732 7.5367C4.1402 7.18313 5.17326 7.10711 6.16223 7.31852C7.15121 7.52993 8.05037 8.01899 8.74286 8.72215L14.0483 5.97461C13.7471 4.84208 13.8911 3.6441 14.4533 2.60521C15.0155 1.56632 15.9574 0.757853 17.1023 0.331348C18.2472 -0.0951558 19.5166 -0.110414 20.6725 0.288435C21.8284 0.687284 22.7915 1.47286 23.3812 2.4979C23.9709 3.52294 24.1468 4.71708 23.8759 5.85648C23.6049 6.99588 22.9058 8.00231 21.9095 8.68713C20.9132 9.37194 19.6881 9.68812 18.4639 9.5764C17.2397 9.46468 16.1005 8.93272 15.2597 8.08025L9.95426 10.8278C10.1579 11.5973 10.1579 12.4027 9.95426 13.1722L15.2584 15.9197C16.0992 15.0673 17.2385 14.5353 18.4627 14.4236C19.6868 14.3119 20.9119 14.6281 21.9082 15.3129C22.9045 15.9977 23.6037 17.0041 23.8746 18.1435C24.1455 19.2829 23.9696 20.4771 23.3799 21.5021C22.7902 22.5271 21.8271 23.3127 20.6712 23.7116C19.5153 24.1104 18.2459 24.0952 17.101 23.6687C15.9561 23.2421 15.0143 22.4337 14.4521 21.3948C13.8898 20.3559 13.7458 19.1579 14.047 18.0254V18.0266ZM5.05305 14.3996C5.7231 14.3996 6.3657 14.1468 6.83949 13.6968C7.31328 13.2468 7.57945 12.6364 7.57945 12C7.57945 11.3636 7.31328 10.7532 6.83949 10.3032C6.3657 9.85322 5.7231 9.6004 5.05305 9.6004C4.38301 9.6004 3.74041 9.85322 3.26662 10.3032C2.79283 10.7532 2.52666 11.3636 2.52666 12C2.52666 12.6364 2.79283 13.2468 3.26662 13.6968C3.74041 14.1468 4.38301 14.3996 5.05305 14.3996ZM18.9482 7.2008C19.6183 7.2008 20.2609 6.94799 20.7347 6.49797C21.2085 6.04796 21.4746 5.43761 21.4746 4.8012C21.4746 4.16479 21.2085 3.55444 20.7347 3.10443C20.2609 2.65442 19.6183 2.4016 18.9482 2.4016C18.2782 2.4016 17.6356 2.65442 17.1618 3.10443C16.688 3.55444 16.4218 4.16479 16.4218 4.8012C16.4218 5.43761 16.688 6.04796 17.1618 6.49797C17.6356 6.94799 18.2782 7.2008 18.9482 7.2008ZM18.9482 21.5984C19.6183 21.5984 20.2609 21.3456 20.7347 20.8956C21.2085 20.4456 21.4746 19.8352 21.4746 19.1988C21.4746 18.5624 21.2085 17.952 20.7347 17.502C20.2609 17.052 19.6183 16.7992 18.9482 16.7992C18.2782 16.7992 17.6356 17.052 17.1618 17.502C16.688 17.952 16.4218 18.5624 16.4218 19.1988C16.4218 19.8352 16.688 20.4456 17.1618 20.8956C17.6356 21.3456 18.2782 21.5984 18.9482 21.5984Z" fill="white"/>
</svg>
