<svg width="24" height="40" viewBox="0 0 24 40" fill="none" xmlns="http://www.w3.org/2000/svg">
<path d="M6.26078 27.5752H5.21731C4.64101 27.5752 4.17383 27.1513 4.17383 26.6283V18.5785C4.17383 16.4871 6.04172 14.7919 8.34647 14.7919H15.6534C17.9582 14.7919 19.826 16.4866 19.826 18.5785V26.6283C19.826 27.1513 19.3588 27.5752 18.7825 27.5752H17.739V35.1505C17.739 35.6735 17.2719 36.0975 16.6956 36.0975H7.30426C6.72797 36.0975 6.26078 35.6735 6.26078 35.1505V27.5752ZM13.0434 34.2036H15.6521V26.6283C15.6521 26.1053 16.1193 25.6814 16.6956 25.6814H17.739V18.5785C17.739 17.5326 16.8056 16.6857 15.6534 16.6857H8.34647C7.19438 16.6857 6.26078 17.533 6.26078 18.5785V25.6814H7.30426C7.88056 25.6814 8.34774 26.1053 8.34774 26.6283V34.2036H10.9564V28.5221C10.9564 27.9992 11.4236 27.5752 11.9999 27.5752C12.5762 27.5752 13.0434 27.9992 13.0434 28.5221V34.2036ZM11.9999 13.3715C9.11843 13.3715 6.78252 11.2518 6.78252 8.63692C6.78252 6.02208 9.11843 3.90234 11.9999 3.90234C14.8814 3.90234 17.2173 6.02208 17.2173 8.63692C17.2173 11.2518 14.8814 13.3715 11.9999 13.3715ZM11.9999 11.4777C13.7288 11.4777 15.1303 10.2058 15.1303 8.63692C15.1303 7.06802 13.7288 5.79617 11.9999 5.79617C10.271 5.79617 8.86948 7.06802 8.86948 8.63692C8.86948 10.2058 10.271 11.4777 11.9999 11.4777Z" fill="#FD2356"/>
</svg>
