<svg width="24" height="24" viewBox="0 0 24 24" fill="none" xmlns="http://www.w3.org/2000/svg">
<path d="M15.7178 12.7605L13.2 11.3074V6C13.2 5.68174 13.0736 5.37651 12.8485 5.15147C12.6235 4.92643 12.3183 4.8 12 4.8C11.6817 4.8 11.3765 4.92643 11.1515 5.15147C10.9264 5.37651 10.8 5.68174 10.8 6V12C10.7999 12.2107 10.8554 12.4177 10.9607 12.6001C11.066 12.7826 11.2175 12.9341 11.4 13.0394L14.5178 14.8394C14.6543 14.9183 14.805 14.9696 14.9613 14.9902C15.1176 15.0108 15.2764 15.0004 15.4287 14.9597C15.581 14.9189 15.7238 14.8485 15.8489 14.7525C15.974 14.6565 16.0789 14.5369 16.1578 14.4003C16.2366 14.2638 16.2877 14.113 16.3083 13.9567C16.3288 13.8004 16.3183 13.6415 16.2775 13.4893C16.2366 13.337 16.1662 13.1943 16.0701 13.0692C15.9741 12.9442 15.8544 12.8393 15.7178 12.7605ZM12 0C9.62663 0 7.30655 0.703788 5.33316 2.02236C3.35977 3.34094 1.8217 5.21508 0.913451 7.4078C0.00519941 9.60051 -0.232441 12.0133 0.230582 14.3411C0.693605 16.6689 1.83649 18.807 3.51472 20.4853C5.19295 22.1635 7.33115 23.3064 9.65892 23.7694C11.9867 24.2324 14.3995 23.9948 16.5922 23.0865C18.7849 22.1783 20.6591 20.6402 21.9776 18.6668C23.2962 16.6934 24 14.3734 24 12C23.9965 8.81849 22.731 5.7683 20.4814 3.51863C18.2317 1.26896 15.1815 0.00353829 12 0ZM12 21.6C10.1013 21.6 8.24524 21.037 6.66653 19.9821C5.08782 18.9272 3.85736 17.4279 3.13076 15.6738C2.40416 13.9196 2.21405 11.9893 2.58447 10.1271C2.95488 8.26491 3.8692 6.55436 5.21178 5.21177C6.55436 3.86919 8.26492 2.95488 10.1271 2.58446C11.9894 2.21404 13.9196 2.40415 15.6738 3.13076C17.4279 3.85736 18.9272 5.08781 19.9821 6.66652C21.037 8.24524 21.6 10.1013 21.6 12C21.5971 14.5452 20.5847 16.9853 18.785 18.785C16.9853 20.5847 14.5452 21.5971 12 21.6Z" fill="white"/>
</svg>
