<svg width="24" height="32" viewBox="0 0 24 32" fill="none" xmlns="http://www.w3.org/2000/svg">
<path d="M23.5394 16.8798L1.60778 31.8229C1.45198 31.9289 1.27097 31.9897 1.08404 31.9988C0.897113 32.0079 0.711256 31.9651 0.54627 31.8748C0.381284 31.7845 0.243347 31.6502 0.147149 31.4861C0.0509514 31.3221 9.66745e-05 31.1344 0 30.9431V1.05685C9.66745e-05 0.865586 0.0509514 0.677927 0.147149 0.513864C0.243347 0.349801 0.381284 0.215477 0.54627 0.125198C0.711256 0.0349204 0.897113 -0.00793125 1.08404 0.00120804C1.27097 0.0103473 1.45198 0.0711357 1.60778 0.177097L23.5394 15.1202C23.6811 15.2168 23.7972 15.3476 23.8776 15.5011C23.958 15.6546 24 15.8259 24 16C24 16.1741 23.958 16.3454 23.8776 16.4989C23.7972 16.6524 23.6811 16.7832 23.5394 16.8798Z" fill="white"/>
</svg>
